M48
; DRILL file {KiCad (5.1.8)-1} date 05/15/22 10:40:37
; FORMAT={-:-/ absolute / metric / decimal}
; #@! TF.CreationDate,2022-05-15T10:40:37+08:00
; #@! TF.GenerationSoftware,Kicad,Pcbnew,(5.1.8)-1
; #@! TF.FileFunction,Plated,1,2,PTH
FMAT,2
METRIC
T1C0.400
T2C0.800
T3C1.000
T4C1.300
T5C1.520
%
G90
G05
T1
X124.0Y-32.8
X127.2Y-66.0
X130.2Y-35.8
X133.0Y-38.4
X133.0Y-40.4
X134.4Y-73.2
X136.84Y-78.76
X140.8Y-60.2
X143.0Y-47.6
X144.2Y-38.4
X144.2Y-40.4
X144.2Y-46.4
X144.2Y-49.2
X145.6Y-60.4
X146.2Y-53.8
X148.8Y-48.2
X149.0Y-44.6
X150.8Y-95.8
T2
X134.0Y-31.2
X136.0Y-31.2
X138.0Y-31.2
X140.0Y-31.2
X142.0Y-31.2
X144.0Y-31.2
T3
X141.95Y-67.95
X153.95Y-67.95
T4
X141.95Y-80.15
X148.0Y-66.0
X154.0Y-80.2
T5
X131.76Y-116.0
X136.84Y-116.0
X141.92Y-116.0
X147.0Y-116.0
T0
M30
