%TF.GenerationSoftware,KiCad,Pcbnew,(5.1.8)-1*%
%TF.CreationDate,2022-05-15T10:40:37+08:00*%
%TF.ProjectId,smartkey-dc-pwm-60w,736d6172-746b-4657-992d-64632d70776d,rev?*%
%TF.SameCoordinates,Original*%
%TF.FileFunction,Copper,L1,Top*%
%TF.FilePolarity,Positive*%
%FSLAX46Y46*%
G04 Gerber Fmt 4.6, Leading zero omitted, Abs format (unit mm)*
G04 Created by KiCad (PCBNEW (5.1.8)-1) date 2022-05-15 10:40:37*
%MOMM*%
%LPD*%
G01*
G04 APERTURE LIST*
%TA.AperFunction,SMDPad,CuDef*%
%ADD10R,1.500000X2.000000*%
%TD*%
%TA.AperFunction,SMDPad,CuDef*%
%ADD11R,3.800000X2.000000*%
%TD*%
%TA.AperFunction,SMDPad,CuDef*%
%ADD12R,9.400000X10.800000*%
%TD*%
%TA.AperFunction,SMDPad,CuDef*%
%ADD13R,4.600000X1.100000*%
%TD*%
%TA.AperFunction,SMDPad,CuDef*%
%ADD14R,0.900000X1.700000*%
%TD*%
%TA.AperFunction,SMDPad,CuDef*%
%ADD15R,6.400000X5.800000*%
%TD*%
%TA.AperFunction,SMDPad,CuDef*%
%ADD16R,2.200000X1.200000*%
%TD*%
%TA.AperFunction,SMDPad,CuDef*%
%ADD17R,2.600000X1.100000*%
%TD*%
%TA.AperFunction,SMDPad,CuDef*%
%ADD18R,0.800000X0.900000*%
%TD*%
%TA.AperFunction,ComponentPad*%
%ADD19C,3.000000*%
%TD*%
%TA.AperFunction,ComponentPad*%
%ADD20C,2.500000*%
%TD*%
%TA.AperFunction,ComponentPad*%
%ADD21O,1.350000X1.350000*%
%TD*%
%TA.AperFunction,ComponentPad*%
%ADD22R,1.350000X1.350000*%
%TD*%
%TA.AperFunction,ComponentPad*%
%ADD23R,3.000000X3.000000*%
%TD*%
%TA.AperFunction,ViaPad*%
%ADD24C,0.800000*%
%TD*%
%TA.AperFunction,Conductor*%
%ADD25C,1.000000*%
%TD*%
%TA.AperFunction,Conductor*%
%ADD26C,2.000000*%
%TD*%
%TA.AperFunction,Conductor*%
%ADD27C,0.400000*%
%TD*%
%TA.AperFunction,Conductor*%
%ADD28C,0.254000*%
%TD*%
%TA.AperFunction,Conductor*%
%ADD29C,0.350000*%
%TD*%
%ADD30C,0.350000*%
G04 APERTURE END LIST*
%TO.P,R9,2*%
%TO.N,GND*%
%TA.AperFunction,SMDPad,CuDef*%
G36*
G01*
X150200000Y-50675000D02*
X150200000Y-50125000D01*
G75*
G02*
X150400000Y-49925000I200000J0D01*
G01*
X150800000Y-49925000D01*
G75*
G02*
X151000000Y-50125000I0J-200000D01*
G01*
X151000000Y-50675000D01*
G75*
G02*
X150800000Y-50875000I-200000J0D01*
G01*
X150400000Y-50875000D01*
G75*
G02*
X150200000Y-50675000I0J200000D01*
G01*
G37*
%TD.AperFunction*%
%TO.P,R9,1*%
%TO.N,Net-(R9-Pad1)*%
%TA.AperFunction,SMDPad,CuDef*%
G36*
G01*
X148550000Y-50675000D02*
X148550000Y-50125000D01*
G75*
G02*
X148750000Y-49925000I200000J0D01*
G01*
X149150000Y-49925000D01*
G75*
G02*
X149350000Y-50125000I0J-200000D01*
G01*
X149350000Y-50675000D01*
G75*
G02*
X149150000Y-50875000I-200000J0D01*
G01*
X148750000Y-50875000D01*
G75*
G02*
X148550000Y-50675000I0J200000D01*
G01*
G37*
%TD.AperFunction*%
%TD*%
%TO.P,R7,2*%
%TO.N,PWM*%
%TA.AperFunction,SMDPad,CuDef*%
G36*
G01*
X151650000Y-94275000D02*
X151650000Y-93725000D01*
G75*
G02*
X151850000Y-93525000I200000J0D01*
G01*
X152250000Y-93525000D01*
G75*
G02*
X152450000Y-93725000I0J-200000D01*
G01*
X152450000Y-94275000D01*
G75*
G02*
X152250000Y-94475000I-200000J0D01*
G01*
X151850000Y-94475000D01*
G75*
G02*
X151650000Y-94275000I0J200000D01*
G01*
G37*
%TD.AperFunction*%
%TO.P,R7,1*%
%TO.N,Net-(Q2-Pad1)*%
%TA.AperFunction,SMDPad,CuDef*%
G36*
G01*
X150000000Y-94275000D02*
X150000000Y-93725000D01*
G75*
G02*
X150200000Y-93525000I200000J0D01*
G01*
X150600000Y-93525000D01*
G75*
G02*
X150800000Y-93725000I0J-200000D01*
G01*
X150800000Y-94275000D01*
G75*
G02*
X150600000Y-94475000I-200000J0D01*
G01*
X150200000Y-94475000D01*
G75*
G02*
X150000000Y-94275000I0J200000D01*
G01*
G37*
%TD.AperFunction*%
%TD*%
%TO.P,R8,2*%
%TO.N,GND*%
%TA.AperFunction,SMDPad,CuDef*%
G36*
G01*
X147575000Y-93725000D02*
X147575000Y-94275000D01*
G75*
G02*
X147375000Y-94475000I-200000J0D01*
G01*
X146975000Y-94475000D01*
G75*
G02*
X146775000Y-94275000I0J200000D01*
G01*
X146775000Y-93725000D01*
G75*
G02*
X146975000Y-93525000I200000J0D01*
G01*
X147375000Y-93525000D01*
G75*
G02*
X147575000Y-93725000I0J-200000D01*
G01*
G37*
%TD.AperFunction*%
%TO.P,R8,1*%
%TO.N,Net-(Q2-Pad1)*%
%TA.AperFunction,SMDPad,CuDef*%
G36*
G01*
X149225000Y-93725000D02*
X149225000Y-94275000D01*
G75*
G02*
X149025000Y-94475000I-200000J0D01*
G01*
X148625000Y-94475000D01*
G75*
G02*
X148425000Y-94275000I0J200000D01*
G01*
X148425000Y-93725000D01*
G75*
G02*
X148625000Y-93525000I200000J0D01*
G01*
X149025000Y-93525000D01*
G75*
G02*
X149225000Y-93725000I0J-200000D01*
G01*
G37*
%TD.AperFunction*%
%TD*%
D10*
%TO.P,U3,1*%
%TO.N,GND*%
X129500000Y-70750000D03*
%TO.P,U3,3*%
%TO.N,+5V*%
X134100000Y-70750000D03*
%TO.P,U3,2*%
%TO.N,+3V3*%
X131800000Y-70750000D03*
D11*
X131800000Y-64450000D03*
%TD*%
D12*
%TO.P,U2,2*%
%TO.N,GND*%
X127025000Y-78800000D03*
D13*
%TO.P,U2,3*%
%TO.N,+5V*%
X136175000Y-76260000D03*
%TO.P,U2,1*%
%TO.N,VCC+*%
X136175000Y-81340000D03*
%TD*%
%TO.P,C7,2*%
%TO.N,GND*%
%TA.AperFunction,SMDPad,CuDef*%
G36*
G01*
X137525000Y-64250000D02*
X137525000Y-63750000D01*
G75*
G02*
X137750000Y-63525000I225000J0D01*
G01*
X138200000Y-63525000D01*
G75*
G02*
X138425000Y-63750000I0J-225000D01*
G01*
X138425000Y-64250000D01*
G75*
G02*
X138200000Y-64475000I-225000J0D01*
G01*
X137750000Y-64475000D01*
G75*
G02*
X137525000Y-64250000I0J225000D01*
G01*
G37*
%TD.AperFunction*%
%TO.P,C7,1*%
%TO.N,+3V3*%
%TA.AperFunction,SMDPad,CuDef*%
G36*
G01*
X135975000Y-64250000D02*
X135975000Y-63750000D01*
G75*
G02*
X136200000Y-63525000I225000J0D01*
G01*
X136650000Y-63525000D01*
G75*
G02*
X136875000Y-63750000I0J-225000D01*
G01*
X136875000Y-64250000D01*
G75*
G02*
X136650000Y-64475000I-225000J0D01*
G01*
X136200000Y-64475000D01*
G75*
G02*
X135975000Y-64250000I0J225000D01*
G01*
G37*
%TD.AperFunction*%
%TD*%
%TO.P,C6,2*%
%TO.N,GND*%
%TA.AperFunction,SMDPad,CuDef*%
G36*
G01*
X137525000Y-65850000D02*
X137525000Y-65350000D01*
G75*
G02*
X137750000Y-65125000I225000J0D01*
G01*
X138200000Y-65125000D01*
G75*
G02*
X138425000Y-65350000I0J-225000D01*
G01*
X138425000Y-65850000D01*
G75*
G02*
X138200000Y-66075000I-225000J0D01*
G01*
X137750000Y-66075000D01*
G75*
G02*
X137525000Y-65850000I0J225000D01*
G01*
G37*
%TD.AperFunction*%
%TO.P,C6,1*%
%TO.N,+3V3*%
%TA.AperFunction,SMDPad,CuDef*%
G36*
G01*
X135975000Y-65850000D02*
X135975000Y-65350000D01*
G75*
G02*
X136200000Y-65125000I225000J0D01*
G01*
X136650000Y-65125000D01*
G75*
G02*
X136875000Y-65350000I0J-225000D01*
G01*
X136875000Y-65850000D01*
G75*
G02*
X136650000Y-66075000I-225000J0D01*
G01*
X136200000Y-66075000D01*
G75*
G02*
X135975000Y-65850000I0J225000D01*
G01*
G37*
%TD.AperFunction*%
%TD*%
%TO.P,C5,2*%
%TO.N,GND*%
%TA.AperFunction,SMDPad,CuDef*%
G36*
G01*
X137525000Y-68250000D02*
X137525000Y-67750000D01*
G75*
G02*
X137750000Y-67525000I225000J0D01*
G01*
X138200000Y-67525000D01*
G75*
G02*
X138425000Y-67750000I0J-225000D01*
G01*
X138425000Y-68250000D01*
G75*
G02*
X138200000Y-68475000I-225000J0D01*
G01*
X137750000Y-68475000D01*
G75*
G02*
X137525000Y-68250000I0J225000D01*
G01*
G37*
%TD.AperFunction*%
%TO.P,C5,1*%
%TO.N,+5V*%
%TA.AperFunction,SMDPad,CuDef*%
G36*
G01*
X135975000Y-68250000D02*
X135975000Y-67750000D01*
G75*
G02*
X136200000Y-67525000I225000J0D01*
G01*
X136650000Y-67525000D01*
G75*
G02*
X136875000Y-67750000I0J-225000D01*
G01*
X136875000Y-68250000D01*
G75*
G02*
X136650000Y-68475000I-225000J0D01*
G01*
X136200000Y-68475000D01*
G75*
G02*
X135975000Y-68250000I0J225000D01*
G01*
G37*
%TD.AperFunction*%
%TD*%
%TO.P,C4,2*%
%TO.N,GND*%
%TA.AperFunction,SMDPad,CuDef*%
G36*
G01*
X137525000Y-69850000D02*
X137525000Y-69350000D01*
G75*
G02*
X137750000Y-69125000I225000J0D01*
G01*
X138200000Y-69125000D01*
G75*
G02*
X138425000Y-69350000I0J-225000D01*
G01*
X138425000Y-69850000D01*
G75*
G02*
X138200000Y-70075000I-225000J0D01*
G01*
X137750000Y-70075000D01*
G75*
G02*
X137525000Y-69850000I0J225000D01*
G01*
G37*
%TD.AperFunction*%
%TO.P,C4,1*%
%TO.N,+5V*%
%TA.AperFunction,SMDPad,CuDef*%
G36*
G01*
X135975000Y-69850000D02*
X135975000Y-69350000D01*
G75*
G02*
X136200000Y-69125000I225000J0D01*
G01*
X136650000Y-69125000D01*
G75*
G02*
X136875000Y-69350000I0J-225000D01*
G01*
X136875000Y-69850000D01*
G75*
G02*
X136650000Y-70075000I-225000J0D01*
G01*
X136200000Y-70075000D01*
G75*
G02*
X135975000Y-69850000I0J225000D01*
G01*
G37*
%TD.AperFunction*%
%TD*%
%TO.P,C3,2*%
%TO.N,GND*%
%TA.AperFunction,SMDPad,CuDef*%
G36*
G01*
X137525000Y-71450000D02*
X137525000Y-70950000D01*
G75*
G02*
X137750000Y-70725000I225000J0D01*
G01*
X138200000Y-70725000D01*
G75*
G02*
X138425000Y-70950000I0J-225000D01*
G01*
X138425000Y-71450000D01*
G75*
G02*
X138200000Y-71675000I-225000J0D01*
G01*
X137750000Y-71675000D01*
G75*
G02*
X137525000Y-71450000I0J225000D01*
G01*
G37*
%TD.AperFunction*%
%TO.P,C3,1*%
%TO.N,+5V*%
%TA.AperFunction,SMDPad,CuDef*%
G36*
G01*
X135975000Y-71450000D02*
X135975000Y-70950000D01*
G75*
G02*
X136200000Y-70725000I225000J0D01*
G01*
X136650000Y-70725000D01*
G75*
G02*
X136875000Y-70950000I0J-225000D01*
G01*
X136875000Y-71450000D01*
G75*
G02*
X136650000Y-71675000I-225000J0D01*
G01*
X136200000Y-71675000D01*
G75*
G02*
X135975000Y-71450000I0J225000D01*
G01*
G37*
%TD.AperFunction*%
%TD*%
%TO.P,C2,2*%
%TO.N,GND*%
%TA.AperFunction,SMDPad,CuDef*%
G36*
G01*
X135100000Y-86650000D02*
X135100000Y-87750000D01*
G75*
G02*
X134850000Y-88000000I-250000J0D01*
G01*
X132750000Y-88000000D01*
G75*
G02*
X132500000Y-87750000I0J250000D01*
G01*
X132500000Y-86650000D01*
G75*
G02*
X132750000Y-86400000I250000J0D01*
G01*
X134850000Y-86400000D01*
G75*
G02*
X135100000Y-86650000I0J-250000D01*
G01*
G37*
%TD.AperFunction*%
%TO.P,C2,1*%
%TO.N,VCC+*%
%TA.AperFunction,SMDPad,CuDef*%
G36*
G01*
X138700000Y-86650000D02*
X138700000Y-87750000D01*
G75*
G02*
X138450000Y-88000000I-250000J0D01*
G01*
X136350000Y-88000000D01*
G75*
G02*
X136100000Y-87750000I0J250000D01*
G01*
X136100000Y-86650000D01*
G75*
G02*
X136350000Y-86400000I250000J0D01*
G01*
X138450000Y-86400000D01*
G75*
G02*
X138700000Y-86650000I0J-250000D01*
G01*
G37*
%TD.AperFunction*%
%TD*%
D14*
%TO.P,SW1,2*%
%TO.N,BTN*%
X133200000Y-34800000D03*
%TO.P,SW1,1*%
%TO.N,GND*%
X137600000Y-34800000D03*
%TD*%
D15*
%TO.P,Q2,2*%
%TO.N,GND*%
X145100000Y-89400000D03*
D16*
%TO.P,Q2,3*%
%TO.N,LED-*%
X151400000Y-87120000D03*
%TO.P,Q2,1*%
%TO.N,Net-(Q2-Pad1)*%
X151400000Y-91680000D03*
%TD*%
D17*
%TO.P,U1,16*%
%TO.N,TXD*%
X146300000Y-38400000D03*
%TO.P,U1,15*%
%TO.N,RXD*%
X146300000Y-40400000D03*
%TO.P,U1,14*%
%TO.N,Net-(D4-Pad2)*%
X146300000Y-42400000D03*
%TO.P,U1,13*%
%TO.N,PWM*%
X146300000Y-44400000D03*
%TO.P,U1,12*%
%TO.N,IO0*%
X146300000Y-46400000D03*
%TO.P,U1,11*%
%TO.N,OPEN*%
X146300000Y-48400000D03*
%TO.P,U1,10*%
%TO.N,Net-(R9-Pad1)*%
X146300000Y-50400000D03*
%TO.P,U1,9*%
%TO.N,GND*%
X146300000Y-52400000D03*
%TO.P,U1,8*%
%TO.N,+3V3*%
X130900000Y-52400000D03*
%TO.P,U1,7*%
%TO.N,N/C*%
X130900000Y-50400000D03*
%TO.P,U1,6*%
X130900000Y-48400000D03*
%TO.P,U1,5*%
X130900000Y-46400000D03*
%TO.P,U1,4*%
X130900000Y-44400000D03*
%TO.P,U1,3*%
%TO.N,Net-(R3-Pad2)*%
X130900000Y-42400000D03*
%TO.P,U1,2*%
%TO.N,BTN*%
X130900000Y-40400000D03*
%TO.P,U1,1*%
%TO.N,EN*%
X130900000Y-38400000D03*
%TD*%
%TO.P,R6,2*%
%TO.N,Net-(D4-Pad1)*%
%TA.AperFunction,SMDPad,CuDef*%
G36*
G01*
X144475000Y-34575000D02*
X143925000Y-34575000D01*
G75*
G02*
X143725000Y-34375000I0J200000D01*
G01*
X143725000Y-33975000D01*
G75*
G02*
X143925000Y-33775000I200000J0D01*
G01*
X144475000Y-33775000D01*
G75*
G02*
X144675000Y-33975000I0J-200000D01*
G01*
X144675000Y-34375000D01*
G75*
G02*
X144475000Y-34575000I-200000J0D01*
G01*
G37*
%TD.AperFunction*%
%TO.P,R6,1*%
%TO.N,GND*%
%TA.AperFunction,SMDPad,CuDef*%
G36*
G01*
X144475000Y-36225000D02*
X143925000Y-36225000D01*
G75*
G02*
X143725000Y-36025000I0J200000D01*
G01*
X143725000Y-35625000D01*
G75*
G02*
X143925000Y-35425000I200000J0D01*
G01*
X144475000Y-35425000D01*
G75*
G02*
X144675000Y-35625000I0J-200000D01*
G01*
X144675000Y-36025000D01*
G75*
G02*
X144475000Y-36225000I-200000J0D01*
G01*
G37*
%TD.AperFunction*%
%TD*%
%TO.P,R5,2*%
%TO.N,OPEN*%
%TA.AperFunction,SMDPad,CuDef*%
G36*
G01*
X141075000Y-61775000D02*
X140525000Y-61775000D01*
G75*
G02*
X140325000Y-61575000I0J200000D01*
G01*
X140325000Y-61175000D01*
G75*
G02*
X140525000Y-60975000I200000J0D01*
G01*
X141075000Y-60975000D01*
G75*
G02*
X141275000Y-61175000I0J-200000D01*
G01*
X141275000Y-61575000D01*
G75*
G02*
X141075000Y-61775000I-200000J0D01*
G01*
G37*
%TD.AperFunction*%
%TO.P,R5,1*%
%TO.N,Net-(Q1-Pad1)*%
%TA.AperFunction,SMDPad,CuDef*%
G36*
G01*
X141075000Y-63425000D02*
X140525000Y-63425000D01*
G75*
G02*
X140325000Y-63225000I0J200000D01*
G01*
X140325000Y-62825000D01*
G75*
G02*
X140525000Y-62625000I200000J0D01*
G01*
X141075000Y-62625000D01*
G75*
G02*
X141275000Y-62825000I0J-200000D01*
G01*
X141275000Y-63225000D01*
G75*
G02*
X141075000Y-63425000I-200000J0D01*
G01*
G37*
%TD.AperFunction*%
%TD*%
%TO.P,R4,2*%
%TO.N,BTN*%
%TA.AperFunction,SMDPad,CuDef*%
G36*
G01*
X131125000Y-35225000D02*
X131675000Y-35225000D01*
G75*
G02*
X131875000Y-35425000I0J-200000D01*
G01*
X131875000Y-35825000D01*
G75*
G02*
X131675000Y-36025000I-200000J0D01*
G01*
X131125000Y-36025000D01*
G75*
G02*
X130925000Y-35825000I0J200000D01*
G01*
X130925000Y-35425000D01*
G75*
G02*
X131125000Y-35225000I200000J0D01*
G01*
G37*
%TD.AperFunction*%
%TO.P,R4,1*%
%TO.N,+3V3*%
%TA.AperFunction,SMDPad,CuDef*%
G36*
G01*
X131125000Y-33575000D02*
X131675000Y-33575000D01*
G75*
G02*
X131875000Y-33775000I0J-200000D01*
G01*
X131875000Y-34175000D01*
G75*
G02*
X131675000Y-34375000I-200000J0D01*
G01*
X131125000Y-34375000D01*
G75*
G02*
X130925000Y-34175000I0J200000D01*
G01*
X130925000Y-33775000D01*
G75*
G02*
X131125000Y-33575000I200000J0D01*
G01*
G37*
%TD.AperFunction*%
%TD*%
%TO.P,R3,2*%
%TO.N,Net-(R3-Pad2)*%
%TA.AperFunction,SMDPad,CuDef*%
G36*
G01*
X127825000Y-42675000D02*
X127825000Y-42125000D01*
G75*
G02*
X128025000Y-41925000I200000J0D01*
G01*
X128425000Y-41925000D01*
G75*
G02*
X128625000Y-42125000I0J-200000D01*
G01*
X128625000Y-42675000D01*
G75*
G02*
X128425000Y-42875000I-200000J0D01*
G01*
X128025000Y-42875000D01*
G75*
G02*
X127825000Y-42675000I0J200000D01*
G01*
G37*
%TD.AperFunction*%
%TO.P,R3,1*%
%TO.N,+3V3*%
%TA.AperFunction,SMDPad,CuDef*%
G36*
G01*
X126175000Y-42675000D02*
X126175000Y-42125000D01*
G75*
G02*
X126375000Y-41925000I200000J0D01*
G01*
X126775000Y-41925000D01*
G75*
G02*
X126975000Y-42125000I0J-200000D01*
G01*
X126975000Y-42675000D01*
G75*
G02*
X126775000Y-42875000I-200000J0D01*
G01*
X126375000Y-42875000D01*
G75*
G02*
X126175000Y-42675000I0J200000D01*
G01*
G37*
%TD.AperFunction*%
%TD*%
%TO.P,R2,2*%
%TO.N,IO0*%
%TA.AperFunction,SMDPad,CuDef*%
G36*
G01*
X149375000Y-46125000D02*
X149375000Y-46675000D01*
G75*
G02*
X149175000Y-46875000I-200000J0D01*
G01*
X148775000Y-46875000D01*
G75*
G02*
X148575000Y-46675000I0J200000D01*
G01*
X148575000Y-46125000D01*
G75*
G02*
X148775000Y-45925000I200000J0D01*
G01*
X149175000Y-45925000D01*
G75*
G02*
X149375000Y-46125000I0J-200000D01*
G01*
G37*
%TD.AperFunction*%
%TO.P,R2,1*%
%TO.N,+3V3*%
%TA.AperFunction,SMDPad,CuDef*%
G36*
G01*
X151025000Y-46125000D02*
X151025000Y-46675000D01*
G75*
G02*
X150825000Y-46875000I-200000J0D01*
G01*
X150425000Y-46875000D01*
G75*
G02*
X150225000Y-46675000I0J200000D01*
G01*
X150225000Y-46125000D01*
G75*
G02*
X150425000Y-45925000I200000J0D01*
G01*
X150825000Y-45925000D01*
G75*
G02*
X151025000Y-46125000I0J-200000D01*
G01*
G37*
%TD.AperFunction*%
%TD*%
%TO.P,R1,2*%
%TO.N,EN*%
%TA.AperFunction,SMDPad,CuDef*%
G36*
G01*
X127800000Y-39475000D02*
X127800000Y-38925000D01*
G75*
G02*
X128000000Y-38725000I200000J0D01*
G01*
X128400000Y-38725000D01*
G75*
G02*
X128600000Y-38925000I0J-200000D01*
G01*
X128600000Y-39475000D01*
G75*
G02*
X128400000Y-39675000I-200000J0D01*
G01*
X128000000Y-39675000D01*
G75*
G02*
X127800000Y-39475000I0J200000D01*
G01*
G37*
%TD.AperFunction*%
%TO.P,R1,1*%
%TO.N,+3V3*%
%TA.AperFunction,SMDPad,CuDef*%
G36*
G01*
X126150000Y-39475000D02*
X126150000Y-38925000D01*
G75*
G02*
X126350000Y-38725000I200000J0D01*
G01*
X126750000Y-38725000D01*
G75*
G02*
X126950000Y-38925000I0J-200000D01*
G01*
X126950000Y-39475000D01*
G75*
G02*
X126750000Y-39675000I-200000J0D01*
G01*
X126350000Y-39675000D01*
G75*
G02*
X126150000Y-39475000I0J200000D01*
G01*
G37*
%TD.AperFunction*%
%TD*%
D18*
%TO.P,Q1,3*%
%TO.N,Net-(D1-Pad2)*%
X143600000Y-61000000D03*
%TO.P,Q1,2*%
%TO.N,GND*%
X144550000Y-63000000D03*
%TO.P,Q1,1*%
%TO.N,Net-(Q1-Pad1)*%
X142650000Y-63000000D03*
%TD*%
D19*
%TO.P,K1,1*%
%TO.N,VCC+*%
X148000000Y-66000000D03*
D20*
%TO.P,K1,5*%
%TO.N,+5V*%
X153950000Y-67950000D03*
D19*
%TO.P,K1,4*%
%TO.N,N/C*%
X154000000Y-80200000D03*
%TO.P,K1,3*%
%TO.N,LED+*%
X141950000Y-80150000D03*
D20*
%TO.P,K1,2*%
%TO.N,Net-(D1-Pad2)*%
X141950000Y-67950000D03*
%TD*%
D21*
%TO.P,J4,6*%
%TO.N,TXD*%
X144000000Y-31200000D03*
%TO.P,J4,5*%
%TO.N,RXD*%
X142000000Y-31200000D03*
%TO.P,J4,4*%
%TO.N,IO0*%
X140000000Y-31200000D03*
%TO.P,J4,3*%
%TO.N,EN*%
X138000000Y-31200000D03*
%TO.P,J4,2*%
%TO.N,GND*%
X136000000Y-31200000D03*
D22*
%TO.P,J4,1*%
%TO.N,+5V*%
X134000000Y-31200000D03*
%TD*%
D19*
%TO.P,J3,4*%
%TO.N,GND*%
X131760000Y-116000000D03*
D23*
%TO.P,J3,1*%
%TO.N,LED-*%
X147000000Y-116000000D03*
D19*
%TO.P,J3,3*%
%TO.N,VCC+*%
X136840000Y-116000000D03*
%TO.P,J3,2*%
%TO.N,LED+*%
X141920000Y-116000000D03*
%TD*%
%TO.P,D4,2*%
%TO.N,Net-(D4-Pad2)*%
%TA.AperFunction,SMDPad,CuDef*%
G36*
G01*
X145743750Y-35350000D02*
X146256250Y-35350000D01*
G75*
G02*
X146475000Y-35568750I0J-218750D01*
G01*
X146475000Y-36006250D01*
G75*
G02*
X146256250Y-36225000I-218750J0D01*
G01*
X145743750Y-36225000D01*
G75*
G02*
X145525000Y-36006250I0J218750D01*
G01*
X145525000Y-35568750D01*
G75*
G02*
X145743750Y-35350000I218750J0D01*
G01*
G37*
%TD.AperFunction*%
%TO.P,D4,1*%
%TO.N,Net-(D4-Pad1)*%
%TA.AperFunction,SMDPad,CuDef*%
G36*
G01*
X145743750Y-33775000D02*
X146256250Y-33775000D01*
G75*
G02*
X146475000Y-33993750I0J-218750D01*
G01*
X146475000Y-34431250D01*
G75*
G02*
X146256250Y-34650000I-218750J0D01*
G01*
X145743750Y-34650000D01*
G75*
G02*
X145525000Y-34431250I0J218750D01*
G01*
X145525000Y-33993750D01*
G75*
G02*
X145743750Y-33775000I218750J0D01*
G01*
G37*
%TD.AperFunction*%
%TD*%
%TO.P,D1,2*%
%TO.N,Net-(D1-Pad2)*%
%TA.AperFunction,SMDPad,CuDef*%
G36*
G01*
X146656250Y-61850000D02*
X146143750Y-61850000D01*
G75*
G02*
X145925000Y-61631250I0J218750D01*
G01*
X145925000Y-61193750D01*
G75*
G02*
X146143750Y-60975000I218750J0D01*
G01*
X146656250Y-60975000D01*
G75*
G02*
X146875000Y-61193750I0J-218750D01*
G01*
X146875000Y-61631250D01*
G75*
G02*
X146656250Y-61850000I-218750J0D01*
G01*
G37*
%TD.AperFunction*%
%TO.P,D1,1*%
%TO.N,+5V*%
%TA.AperFunction,SMDPad,CuDef*%
G36*
G01*
X146656250Y-63425000D02*
X146143750Y-63425000D01*
G75*
G02*
X145925000Y-63206250I0J218750D01*
G01*
X145925000Y-62768750D01*
G75*
G02*
X146143750Y-62550000I218750J0D01*
G01*
X146656250Y-62550000D01*
G75*
G02*
X146875000Y-62768750I0J-218750D01*
G01*
X146875000Y-63206250D01*
G75*
G02*
X146656250Y-63425000I-218750J0D01*
G01*
G37*
%TD.AperFunction*%
%TD*%
%TO.P,C1,2*%
%TO.N,GND*%
%TA.AperFunction,SMDPad,CuDef*%
G36*
G01*
X127075000Y-37350000D02*
X127075000Y-37850000D01*
G75*
G02*
X126850000Y-38075000I-225000J0D01*
G01*
X126400000Y-38075000D01*
G75*
G02*
X126175000Y-37850000I0J225000D01*
G01*
X126175000Y-37350000D01*
G75*
G02*
X126400000Y-37125000I225000J0D01*
G01*
X126850000Y-37125000D01*
G75*
G02*
X127075000Y-37350000I0J-225000D01*
G01*
G37*
%TD.AperFunction*%
%TO.P,C1,1*%
%TO.N,EN*%
%TA.AperFunction,SMDPad,CuDef*%
G36*
G01*
X128625000Y-37350000D02*
X128625000Y-37850000D01*
G75*
G02*
X128400000Y-38075000I-225000J0D01*
G01*
X127950000Y-38075000D01*
G75*
G02*
X127725000Y-37850000I0J225000D01*
G01*
X127725000Y-37350000D01*
G75*
G02*
X127950000Y-37125000I225000J0D01*
G01*
X128400000Y-37125000D01*
G75*
G02*
X128625000Y-37350000I0J-225000D01*
G01*
G37*
%TD.AperFunction*%
%TD*%
D24*
%TO.N,GND*%
X146200000Y-53800000D03*
X124000000Y-32800000D03*
%TO.N,EN*%
X133000000Y-38400000D03*
%TO.N,+5V*%
X134400000Y-73200000D03*
X127200000Y-65999988D03*
%TO.N,VCC+*%
X136840000Y-78760000D03*
%TO.N,TXD*%
X144200000Y-38400000D03*
%TO.N,RXD*%
X144200000Y-40400000D03*
%TO.N,IO0*%
X144200000Y-46400000D03*
%TO.N,+3V3*%
X143000000Y-47600000D03*
X148800014Y-48200000D03*
%TO.N,BTN*%
X133000000Y-40400000D03*
X130200000Y-35800000D03*
%TO.N,OPEN*%
X140800000Y-60200000D03*
X144200000Y-49200000D03*
%TO.N,Net-(D1-Pad2)*%
X145600000Y-60400000D03*
%TO.N,PWM*%
X149000000Y-44600000D03*
X150800000Y-95800000D03*
%TD*%
D25*
%TO.N,GND*%
X133800000Y-85575000D02*
X127025000Y-78800000D01*
X133800000Y-87200000D02*
X133800000Y-85575000D01*
X129500000Y-76325000D02*
X127025000Y-78800000D01*
X129500000Y-70750000D02*
X129500000Y-76325000D01*
D26*
X131760000Y-83535000D02*
X127025000Y-78800000D01*
X131760000Y-116000000D02*
X131760000Y-83535000D01*
D25*
X147175000Y-91475000D02*
X145100000Y-89400000D01*
X147175000Y-94000000D02*
X147175000Y-91475000D01*
X137975000Y-71200000D02*
X137975000Y-69600000D01*
X137975000Y-69600000D02*
X137975000Y-68000000D01*
X137975000Y-68000000D02*
X137975000Y-65600000D01*
X137975000Y-65600000D02*
X137975000Y-64000000D01*
X144550000Y-63450000D02*
X144550000Y-63000000D01*
X143849999Y-64150001D02*
X144550000Y-63450000D01*
X138125001Y-64150001D02*
X143849999Y-64150001D01*
X137975000Y-64000000D02*
X138125001Y-64150001D01*
D26*
X141400000Y-89400000D02*
X145100000Y-89400000D01*
X131760000Y-99040000D02*
X141400000Y-89400000D01*
X131760000Y-116000000D02*
X131760000Y-99040000D01*
D27*
X146300000Y-53700000D02*
X146200000Y-53800000D01*
X146300000Y-52400000D02*
X146300000Y-53700000D01*
%TO.N,EN*%
X128175000Y-39175000D02*
X128200000Y-39200000D01*
X128175000Y-37600000D02*
X128175000Y-39175000D01*
X128975000Y-38400000D02*
X128175000Y-37600000D01*
X130900000Y-38400000D02*
X128975000Y-38400000D01*
X133000000Y-38400000D02*
X130900000Y-38400000D01*
D25*
%TO.N,+5V*%
X136425000Y-68000000D02*
X136425000Y-69600000D01*
X135975000Y-70750000D02*
X136425000Y-71200000D01*
X134100000Y-70750000D02*
X135975000Y-70750000D01*
X135975000Y-70983164D02*
X136208164Y-70983164D01*
X135975000Y-70750000D02*
X135975000Y-70983164D01*
X136425000Y-69600000D02*
X136425000Y-70425000D01*
X136425000Y-70425000D02*
X136425000Y-71200000D01*
D27*
X136425000Y-70425000D02*
X136425000Y-71225000D01*
D25*
X136425000Y-76010000D02*
X136175000Y-76260000D01*
X136425000Y-71200000D02*
X136425000Y-76010000D01*
X150787500Y-62987500D02*
X146400000Y-62987500D01*
X153950000Y-66150000D02*
X150787500Y-62987500D01*
X153950000Y-67950000D02*
X153950000Y-66150000D01*
X153950000Y-72450000D02*
X153950000Y-67950000D01*
X150140000Y-76260000D02*
X153950000Y-72450000D01*
X136175000Y-76260000D02*
X150140000Y-76260000D01*
X134400000Y-71050000D02*
X134100000Y-70750000D01*
X134400000Y-73200000D02*
X134400000Y-71050000D01*
X124200000Y-35000000D02*
X124200000Y-62999988D01*
X128000000Y-31200000D02*
X124200000Y-35000000D01*
X124200000Y-62999988D02*
X127200000Y-65999988D01*
X134000000Y-31200000D02*
X128000000Y-31200000D01*
D27*
%TO.N,Net-(D4-Pad2)*%
X148600000Y-37600000D02*
X146787500Y-35787500D01*
X148600000Y-41625000D02*
X148600000Y-37600000D01*
X146787500Y-35787500D02*
X146000000Y-35787500D01*
X147825000Y-42400000D02*
X148600000Y-41625000D01*
X146300000Y-42400000D02*
X147825000Y-42400000D01*
%TO.N,Net-(D4-Pad1)*%
X144237500Y-34212500D02*
X144200000Y-34175000D01*
X146000000Y-34212500D02*
X144237500Y-34212500D01*
D25*
%TO.N,VCC+*%
X137400000Y-82565000D02*
X136175000Y-81340000D01*
X137400000Y-87200000D02*
X137400000Y-82565000D01*
X136175000Y-79425000D02*
X136840000Y-78760000D01*
X136175000Y-81340000D02*
X136175000Y-79425000D01*
D27*
%TO.N,TXD*%
X144200000Y-38400000D02*
X146300000Y-38400000D01*
%TO.N,RXD*%
X144200000Y-40400000D02*
X146300000Y-40400000D01*
%TO.N,IO0*%
X146300000Y-46400000D02*
X148975000Y-46400000D01*
X144200000Y-46400000D02*
X146300000Y-46400000D01*
D25*
%TO.N,+3V3*%
X131800000Y-70750000D02*
X131800000Y-64450000D01*
X136425000Y-64000000D02*
X136425000Y-65600000D01*
X135975000Y-64450000D02*
X136425000Y-64000000D01*
X131800000Y-64450000D02*
X135975000Y-64450000D01*
D27*
X126550000Y-42375000D02*
X126575000Y-42400000D01*
X126550000Y-39200000D02*
X126550000Y-42375000D01*
D25*
X131800000Y-53300000D02*
X130900000Y-52400000D01*
X131800000Y-64450000D02*
X131800000Y-53300000D01*
D27*
X128800000Y-52400000D02*
X130900000Y-52400000D01*
X126575000Y-50175000D02*
X128800000Y-52400000D01*
X126575000Y-42400000D02*
X126575000Y-50175000D01*
X125400000Y-38050000D02*
X126550000Y-39200000D01*
X125400000Y-35800000D02*
X125400000Y-38050000D01*
X127225000Y-33975000D02*
X125400000Y-35800000D01*
X131400000Y-33975000D02*
X127225000Y-33975000D01*
X138200000Y-52400000D02*
X143000000Y-47600000D01*
X130900000Y-52400000D02*
X138200000Y-52400000D01*
X150000000Y-48200000D02*
X148800014Y-48200000D01*
X150625000Y-47575000D02*
X150000000Y-48200000D01*
X150625000Y-46400000D02*
X150625000Y-47575000D01*
%TO.N,Net-(Q1-Pad1)*%
X142625000Y-63025000D02*
X142650000Y-63000000D01*
X140800000Y-63025000D02*
X142625000Y-63025000D01*
%TO.N,Net-(R3-Pad2)*%
X130900000Y-42400000D02*
X128225000Y-42400000D01*
%TO.N,BTN*%
X132375000Y-35625000D02*
X133200000Y-34800000D01*
X131400000Y-35625000D02*
X132375000Y-35625000D01*
X130900000Y-40400000D02*
X133000000Y-40400000D01*
X131225000Y-35800000D02*
X131400000Y-35625000D01*
X130200000Y-35800000D02*
X131225000Y-35800000D01*
D25*
%TO.N,Net-(Q2-Pad1)*%
X150400000Y-94000000D02*
X148825000Y-94000000D01*
X150400000Y-92680000D02*
X151400000Y-91680000D01*
X150400000Y-94000000D02*
X150400000Y-92680000D01*
D27*
%TO.N,OPEN*%
X140800000Y-61375000D02*
X140800000Y-60200000D01*
X145000000Y-48400000D02*
X146300000Y-48400000D01*
X144200000Y-49200000D02*
X145000000Y-48400000D01*
D25*
%TO.N,Net-(D1-Pad2)*%
X145600000Y-60612500D02*
X146400000Y-61412500D01*
X145600000Y-60400000D02*
X145600000Y-60612500D01*
X144200000Y-60400000D02*
X143600000Y-61000000D01*
X145600000Y-60400000D02*
X144200000Y-60400000D01*
D27*
%TO.N,PWM*%
X146500000Y-44600000D02*
X146300000Y-44400000D01*
X149000000Y-44600000D02*
X146500000Y-44600000D01*
X151400000Y-95800000D02*
X150800000Y-95800000D01*
X152050000Y-95150000D02*
X151400000Y-95800000D01*
X152050000Y-94000000D02*
X152050000Y-95150000D01*
D26*
%TO.N,LED-*%
X147000000Y-106800000D02*
X147000000Y-116000000D01*
X155000000Y-98800000D02*
X147000000Y-106800000D01*
X155000000Y-89200000D02*
X155000000Y-98800000D01*
X152920000Y-87120000D02*
X155000000Y-89200000D01*
X151400000Y-87120000D02*
X152920000Y-87120000D01*
D27*
%TO.N,Net-(R9-Pad1)*%
X148775000Y-50400000D02*
X148975000Y-50600000D01*
X146300000Y-50400000D02*
X148775000Y-50400000D01*
%TD*%
D28*
%TO.N,GND*%
X157340000Y-77073000D02*
X150938467Y-77073000D01*
X150946449Y-77066449D01*
X150981996Y-77023135D01*
X154713146Y-73291987D01*
X154756449Y-73256449D01*
X154839034Y-73155820D01*
X154898284Y-73083623D01*
X155003676Y-72886447D01*
X155068577Y-72672499D01*
X155090491Y-72450000D01*
X155085000Y-72394248D01*
X155085000Y-69458688D01*
X155151618Y-69414175D01*
X155414175Y-69151618D01*
X155620466Y-68842882D01*
X155762561Y-68499834D01*
X155835000Y-68135656D01*
X155835000Y-67764344D01*
X155762561Y-67400166D01*
X155620466Y-67057118D01*
X155414175Y-66748382D01*
X155151618Y-66485825D01*
X155085000Y-66441312D01*
X155085000Y-66205741D01*
X155090490Y-66149999D01*
X155085000Y-66094257D01*
X155085000Y-66094248D01*
X155068577Y-65927501D01*
X155003676Y-65713553D01*
X154898284Y-65516377D01*
X154756449Y-65343551D01*
X154713141Y-65308009D01*
X151629496Y-62224365D01*
X151593949Y-62181051D01*
X151421123Y-62039216D01*
X151223947Y-61933824D01*
X151009999Y-61868923D01*
X150843252Y-61852500D01*
X150843251Y-61852500D01*
X150787500Y-61847009D01*
X150731749Y-61852500D01*
X147480199Y-61852500D01*
X147496608Y-61798408D01*
X147509878Y-61663674D01*
X147518577Y-61634999D01*
X147540491Y-61412500D01*
X147518577Y-61190001D01*
X147509878Y-61161326D01*
X147496608Y-61026592D01*
X147447850Y-60865858D01*
X147368671Y-60717725D01*
X147262115Y-60587885D01*
X147132275Y-60481329D01*
X147006999Y-60414367D01*
X146696128Y-60103496D01*
X146653676Y-59963553D01*
X146548284Y-59766377D01*
X146406449Y-59593551D01*
X146233623Y-59451716D01*
X146036447Y-59346324D01*
X145822499Y-59281423D01*
X145655752Y-59265000D01*
X145655751Y-59265000D01*
X145600000Y-59259509D01*
X145544248Y-59265000D01*
X144255751Y-59265000D01*
X144199999Y-59259509D01*
X143977500Y-59281423D01*
X143927705Y-59296529D01*
X143763553Y-59346324D01*
X143566377Y-59451716D01*
X143393551Y-59593551D01*
X143358004Y-59636865D01*
X143068575Y-59926294D01*
X142955820Y-59960498D01*
X142845506Y-60019463D01*
X142748815Y-60098815D01*
X142669463Y-60195506D01*
X142610498Y-60305820D01*
X142574188Y-60425518D01*
X142563816Y-60530829D01*
X142546324Y-60563554D01*
X142481423Y-60777502D01*
X142459509Y-61000000D01*
X142481423Y-61222498D01*
X142546324Y-61436446D01*
X142563816Y-61469171D01*
X142574188Y-61574482D01*
X142610498Y-61694180D01*
X142669463Y-61804494D01*
X142748815Y-61901185D01*
X142761905Y-61911928D01*
X142250000Y-61911928D01*
X142125518Y-61924188D01*
X142005820Y-61960498D01*
X141895506Y-62019463D01*
X141798815Y-62098815D01*
X141723982Y-62190000D01*
X141640319Y-62190000D01*
X141667606Y-62167606D01*
X141771831Y-62040608D01*
X141849278Y-61895716D01*
X141896969Y-61738500D01*
X141913072Y-61575000D01*
X141913072Y-61175000D01*
X141896969Y-61011500D01*
X141849278Y-60854284D01*
X141771831Y-60709392D01*
X141730260Y-60658738D01*
X141795226Y-60501898D01*
X141835000Y-60301939D01*
X141835000Y-60098061D01*
X141795226Y-59898102D01*
X141717205Y-59709744D01*
X141603937Y-59540226D01*
X141459774Y-59396063D01*
X141290256Y-59282795D01*
X141101898Y-59204774D01*
X140901939Y-59165000D01*
X140698061Y-59165000D01*
X140498102Y-59204774D01*
X140309744Y-59282795D01*
X140140226Y-59396063D01*
X139996063Y-59540226D01*
X139882795Y-59709744D01*
X139804774Y-59898102D01*
X139765000Y-60098061D01*
X139765000Y-60301939D01*
X139804774Y-60501898D01*
X139869740Y-60658738D01*
X139828169Y-60709392D01*
X139750722Y-60854284D01*
X139703031Y-61011500D01*
X139686928Y-61175000D01*
X139686928Y-61575000D01*
X139703031Y-61738500D01*
X139750722Y-61895716D01*
X139828169Y-62040608D01*
X139932394Y-62167606D01*
X139971866Y-62200000D01*
X139932394Y-62232394D01*
X139828169Y-62359392D01*
X139750722Y-62504284D01*
X139703031Y-62661500D01*
X139686928Y-62825000D01*
X139686928Y-63225000D01*
X139703031Y-63388500D01*
X139750722Y-63545716D01*
X139828169Y-63690608D01*
X139932394Y-63817606D01*
X140059392Y-63921831D01*
X140204284Y-63999278D01*
X140361500Y-64046969D01*
X140525000Y-64063072D01*
X141075000Y-64063072D01*
X141238500Y-64046969D01*
X141395716Y-63999278D01*
X141540608Y-63921831D01*
X141615949Y-63860000D01*
X141765015Y-63860000D01*
X141798815Y-63901185D01*
X141895506Y-63980537D01*
X142005820Y-64039502D01*
X142125518Y-64075812D01*
X142250000Y-64088072D01*
X143050000Y-64088072D01*
X143174482Y-64075812D01*
X143294180Y-64039502D01*
X143404494Y-63980537D01*
X143501185Y-63901185D01*
X143580537Y-63804494D01*
X143600000Y-63768082D01*
X143619463Y-63804494D01*
X143698815Y-63901185D01*
X143795506Y-63980537D01*
X143905820Y-64039502D01*
X144025518Y-64075812D01*
X144150000Y-64088072D01*
X144264250Y-64085000D01*
X144423000Y-63926250D01*
X144423000Y-63127000D01*
X144403000Y-63127000D01*
X144403000Y-62873000D01*
X144423000Y-62873000D01*
X144423000Y-62073750D01*
X144338393Y-61989143D01*
X144354494Y-61980537D01*
X144451185Y-61901185D01*
X144530537Y-61804494D01*
X144589502Y-61694180D01*
X144623706Y-61581425D01*
X144670131Y-61535000D01*
X144917369Y-61535000D01*
X145364367Y-61981999D01*
X145431329Y-62107275D01*
X145507426Y-62200000D01*
X145492597Y-62218069D01*
X145480537Y-62195506D01*
X145401185Y-62098815D01*
X145304494Y-62019463D01*
X145194180Y-61960498D01*
X145074482Y-61924188D01*
X144950000Y-61911928D01*
X144835750Y-61915000D01*
X144677000Y-62073750D01*
X144677000Y-62873000D01*
X144697000Y-62873000D01*
X144697000Y-63127000D01*
X144677000Y-63127000D01*
X144677000Y-63926250D01*
X144835750Y-64085000D01*
X144950000Y-64088072D01*
X145074482Y-64075812D01*
X145194180Y-64039502D01*
X145304494Y-63980537D01*
X145401185Y-63901185D01*
X145480537Y-63804494D01*
X145500690Y-63766792D01*
X145537885Y-63812115D01*
X145667725Y-63918671D01*
X145815858Y-63997850D01*
X145976592Y-64046608D01*
X145983800Y-64047318D01*
X146177501Y-64106077D01*
X146344248Y-64122500D01*
X146966979Y-64122500D01*
X146639017Y-64341637D01*
X146341637Y-64639017D01*
X146107988Y-64988698D01*
X145947047Y-65377244D01*
X145865000Y-65789721D01*
X145865000Y-66210279D01*
X145947047Y-66622756D01*
X146107988Y-67011302D01*
X146341637Y-67360983D01*
X146639017Y-67658363D01*
X146988698Y-67892012D01*
X147377244Y-68052953D01*
X147789721Y-68135000D01*
X148210279Y-68135000D01*
X148622756Y-68052953D01*
X149011302Y-67892012D01*
X149360983Y-67658363D01*
X149658363Y-67360983D01*
X149892012Y-67011302D01*
X150052953Y-66622756D01*
X150135000Y-66210279D01*
X150135000Y-65789721D01*
X150052953Y-65377244D01*
X149892012Y-64988698D01*
X149658363Y-64639017D01*
X149360983Y-64341637D01*
X149033021Y-64122500D01*
X150317369Y-64122500D01*
X152714538Y-66519669D01*
X152485825Y-66748382D01*
X152279534Y-67057118D01*
X152137439Y-67400166D01*
X152065000Y-67764344D01*
X152065000Y-68135656D01*
X152137439Y-68499834D01*
X152279534Y-68842882D01*
X152485825Y-69151618D01*
X152748382Y-69414175D01*
X152815001Y-69458688D01*
X152815000Y-71979867D01*
X149669869Y-75125000D01*
X138727603Y-75125000D01*
X138719180Y-75120498D01*
X138599482Y-75084188D01*
X138475000Y-75071928D01*
X137560000Y-75071928D01*
X137560000Y-72312417D01*
X137689250Y-72310000D01*
X137848000Y-72151250D01*
X137848000Y-71327000D01*
X138102000Y-71327000D01*
X138102000Y-72151250D01*
X138260750Y-72310000D01*
X138425000Y-72313072D01*
X138549482Y-72300812D01*
X138669180Y-72264502D01*
X138779494Y-72205537D01*
X138876185Y-72126185D01*
X138955537Y-72029494D01*
X139014502Y-71919180D01*
X139050812Y-71799482D01*
X139063072Y-71675000D01*
X139060000Y-71485750D01*
X138901250Y-71327000D01*
X138102000Y-71327000D01*
X137848000Y-71327000D01*
X137828000Y-71327000D01*
X137828000Y-71073000D01*
X137848000Y-71073000D01*
X137848000Y-69727000D01*
X138102000Y-69727000D01*
X138102000Y-71073000D01*
X138901250Y-71073000D01*
X139060000Y-70914250D01*
X139063072Y-70725000D01*
X139050812Y-70600518D01*
X139014502Y-70480820D01*
X138971302Y-70400000D01*
X139014502Y-70319180D01*
X139050812Y-70199482D01*
X139063072Y-70075000D01*
X139060000Y-69885750D01*
X138901250Y-69727000D01*
X138102000Y-69727000D01*
X137848000Y-69727000D01*
X137828000Y-69727000D01*
X137828000Y-69473000D01*
X137848000Y-69473000D01*
X137848000Y-68127000D01*
X138102000Y-68127000D01*
X138102000Y-69473000D01*
X138901250Y-69473000D01*
X139060000Y-69314250D01*
X139063072Y-69125000D01*
X139050812Y-69000518D01*
X139014502Y-68880820D01*
X138971302Y-68800000D01*
X139014502Y-68719180D01*
X139050812Y-68599482D01*
X139063072Y-68475000D01*
X139060000Y-68285750D01*
X138901250Y-68127000D01*
X138102000Y-68127000D01*
X137848000Y-68127000D01*
X137828000Y-68127000D01*
X137828000Y-67873000D01*
X137848000Y-67873000D01*
X137848000Y-67048750D01*
X138102000Y-67048750D01*
X138102000Y-67873000D01*
X138901250Y-67873000D01*
X139009906Y-67764344D01*
X140065000Y-67764344D01*
X140065000Y-68135656D01*
X140137439Y-68499834D01*
X140279534Y-68842882D01*
X140485825Y-69151618D01*
X140748382Y-69414175D01*
X141057118Y-69620466D01*
X141400166Y-69762561D01*
X141764344Y-69835000D01*
X142135656Y-69835000D01*
X142499834Y-69762561D01*
X142842882Y-69620466D01*
X143151618Y-69414175D01*
X143414175Y-69151618D01*
X143620466Y-68842882D01*
X143762561Y-68499834D01*
X143835000Y-68135656D01*
X143835000Y-67764344D01*
X143762561Y-67400166D01*
X143620466Y-67057118D01*
X143414175Y-66748382D01*
X143151618Y-66485825D01*
X142842882Y-66279534D01*
X142499834Y-66137439D01*
X142135656Y-66065000D01*
X141764344Y-66065000D01*
X141400166Y-66137439D01*
X141057118Y-66279534D01*
X140748382Y-66485825D01*
X140485825Y-66748382D01*
X140279534Y-67057118D01*
X140137439Y-67400166D01*
X140065000Y-67764344D01*
X139009906Y-67764344D01*
X139060000Y-67714250D01*
X139063072Y-67525000D01*
X139050812Y-67400518D01*
X139014502Y-67280820D01*
X138955537Y-67170506D01*
X138876185Y-67073815D01*
X138779494Y-66994463D01*
X138669180Y-66935498D01*
X138549482Y-66899188D01*
X138425000Y-66886928D01*
X138260750Y-66890000D01*
X138102000Y-67048750D01*
X137848000Y-67048750D01*
X137689250Y-66890000D01*
X137525000Y-66886928D01*
X137400518Y-66899188D01*
X137280820Y-66935498D01*
X137170506Y-66994463D01*
X137126351Y-67030700D01*
X136980283Y-66952625D01*
X136818377Y-66903512D01*
X136673168Y-66889210D01*
X136647498Y-66881423D01*
X136425000Y-66859509D01*
X136202501Y-66881423D01*
X136176831Y-66889210D01*
X136031623Y-66903512D01*
X135869717Y-66952625D01*
X135720503Y-67032382D01*
X135589716Y-67139716D01*
X135482382Y-67270503D01*
X135402625Y-67419717D01*
X135353512Y-67581623D01*
X135347583Y-67641815D01*
X135306423Y-67777502D01*
X135290000Y-67944249D01*
X135290000Y-69289636D01*
X135204494Y-69219463D01*
X135094180Y-69160498D01*
X134974482Y-69124188D01*
X134850000Y-69111928D01*
X133350000Y-69111928D01*
X133225518Y-69124188D01*
X133105820Y-69160498D01*
X132995506Y-69219463D01*
X132950000Y-69256809D01*
X132935000Y-69244499D01*
X132935000Y-66088072D01*
X133700000Y-66088072D01*
X133824482Y-66075812D01*
X133944180Y-66039502D01*
X134054494Y-65980537D01*
X134151185Y-65901185D01*
X134230537Y-65804494D01*
X134289502Y-65694180D01*
X134322621Y-65585000D01*
X135290000Y-65585000D01*
X135290000Y-65655752D01*
X135306423Y-65822499D01*
X135347583Y-65958183D01*
X135353512Y-66018377D01*
X135402625Y-66180283D01*
X135482382Y-66329497D01*
X135589716Y-66460284D01*
X135720503Y-66567618D01*
X135869717Y-66647375D01*
X136031623Y-66696488D01*
X136176832Y-66710790D01*
X136202502Y-66718577D01*
X136425000Y-66740491D01*
X136647499Y-66718577D01*
X136673169Y-66710790D01*
X136818377Y-66696488D01*
X136980283Y-66647375D01*
X137126351Y-66569300D01*
X137170506Y-66605537D01*
X137280820Y-66664502D01*
X137400518Y-66700812D01*
X137525000Y-66713072D01*
X137689250Y-66710000D01*
X137848000Y-66551250D01*
X137848000Y-65727000D01*
X138102000Y-65727000D01*
X138102000Y-66551250D01*
X138260750Y-66710000D01*
X138425000Y-66713072D01*
X138549482Y-66700812D01*
X138669180Y-66664502D01*
X138779494Y-66605537D01*
X138876185Y-66526185D01*
X138955537Y-66429494D01*
X139014502Y-66319180D01*
X139050812Y-66199482D01*
X139063072Y-66075000D01*
X139060000Y-65885750D01*
X138901250Y-65727000D01*
X138102000Y-65727000D01*
X137848000Y-65727000D01*
X137828000Y-65727000D01*
X137828000Y-65473000D01*
X137848000Y-65473000D01*
X137848000Y-64127000D01*
X138102000Y-64127000D01*
X138102000Y-65473000D01*
X138901250Y-65473000D01*
X139060000Y-65314250D01*
X139063072Y-65125000D01*
X139050812Y-65000518D01*
X139014502Y-64880820D01*
X138971302Y-64800000D01*
X139014502Y-64719180D01*
X139050812Y-64599482D01*
X139063072Y-64475000D01*
X139060000Y-64285750D01*
X138901250Y-64127000D01*
X138102000Y-64127000D01*
X137848000Y-64127000D01*
X137828000Y-64127000D01*
X137828000Y-63873000D01*
X137848000Y-63873000D01*
X137848000Y-63048750D01*
X138102000Y-63048750D01*
X138102000Y-63873000D01*
X138901250Y-63873000D01*
X139060000Y-63714250D01*
X139063072Y-63525000D01*
X139050812Y-63400518D01*
X139014502Y-63280820D01*
X138955537Y-63170506D01*
X138876185Y-63073815D01*
X138779494Y-62994463D01*
X138669180Y-62935498D01*
X138549482Y-62899188D01*
X138425000Y-62886928D01*
X138260750Y-62890000D01*
X138102000Y-63048750D01*
X137848000Y-63048750D01*
X137689250Y-62890000D01*
X137525000Y-62886928D01*
X137400518Y-62899188D01*
X137280820Y-62935498D01*
X137170506Y-62994463D01*
X137126351Y-63030700D01*
X136980283Y-62952625D01*
X136818377Y-62903512D01*
X136673168Y-62889210D01*
X136647498Y-62881423D01*
X136425000Y-62859509D01*
X136424999Y-62859509D01*
X136288022Y-62873000D01*
X136202501Y-62881423D01*
X136176831Y-62889210D01*
X136031623Y-62903512D01*
X135869717Y-62952625D01*
X135720503Y-63032382D01*
X135589716Y-63139716D01*
X135482382Y-63270503D01*
X135458598Y-63315000D01*
X134322621Y-63315000D01*
X134289502Y-63205820D01*
X134230537Y-63095506D01*
X134151185Y-62998815D01*
X134054494Y-62919463D01*
X133944180Y-62860498D01*
X133824482Y-62824188D01*
X133700000Y-62811928D01*
X132935000Y-62811928D01*
X132935000Y-53355743D01*
X132940490Y-53299999D01*
X132935000Y-53244255D01*
X132935000Y-53244248D01*
X132934089Y-53235000D01*
X138158982Y-53235000D01*
X138200000Y-53239040D01*
X138241018Y-53235000D01*
X138241019Y-53235000D01*
X138363689Y-53222918D01*
X138521087Y-53175172D01*
X138666146Y-53097636D01*
X138793291Y-52993291D01*
X138819446Y-52961421D01*
X138830867Y-52950000D01*
X144361928Y-52950000D01*
X144374188Y-53074482D01*
X144410498Y-53194180D01*
X144469463Y-53304494D01*
X144548815Y-53401185D01*
X144645506Y-53480537D01*
X144755820Y-53539502D01*
X144875518Y-53575812D01*
X145000000Y-53588072D01*
X146014250Y-53585000D01*
X146173000Y-53426250D01*
X146173000Y-52527000D01*
X146427000Y-52527000D01*
X146427000Y-53426250D01*
X146585750Y-53585000D01*
X147600000Y-53588072D01*
X147724482Y-53575812D01*
X147844180Y-53539502D01*
X147954494Y-53480537D01*
X148051185Y-53401185D01*
X148130537Y-53304494D01*
X148189502Y-53194180D01*
X148225812Y-53074482D01*
X148238072Y-52950000D01*
X148235000Y-52685750D01*
X148076250Y-52527000D01*
X146427000Y-52527000D01*
X146173000Y-52527000D01*
X144523750Y-52527000D01*
X144365000Y-52685750D01*
X144361928Y-52950000D01*
X138830867Y-52950000D01*
X143156775Y-48624092D01*
X143301898Y-48595226D01*
X143381285Y-48562342D01*
X143282795Y-48709744D01*
X143204774Y-48898102D01*
X143165000Y-49098061D01*
X143165000Y-49301939D01*
X143204774Y-49501898D01*
X143282795Y-49690256D01*
X143396063Y-49859774D01*
X143540226Y-50003937D01*
X143709744Y-50117205D01*
X143898102Y-50195226D01*
X144098061Y-50235000D01*
X144301939Y-50235000D01*
X144361928Y-50223068D01*
X144361928Y-50950000D01*
X144374188Y-51074482D01*
X144410498Y-51194180D01*
X144469463Y-51304494D01*
X144547842Y-51400000D01*
X144469463Y-51495506D01*
X144410498Y-51605820D01*
X144374188Y-51725518D01*
X144361928Y-51850000D01*
X144365000Y-52114250D01*
X144523750Y-52273000D01*
X146173000Y-52273000D01*
X146173000Y-52253000D01*
X146427000Y-52253000D01*
X146427000Y-52273000D01*
X148076250Y-52273000D01*
X148235000Y-52114250D01*
X148238072Y-51850000D01*
X148225812Y-51725518D01*
X148189502Y-51605820D01*
X148130537Y-51495506D01*
X148052158Y-51400000D01*
X148130537Y-51304494D01*
X148153070Y-51262338D01*
X148157394Y-51267606D01*
X148284392Y-51371831D01*
X148429284Y-51449278D01*
X148586500Y-51496969D01*
X148750000Y-51513072D01*
X149150000Y-51513072D01*
X149313500Y-51496969D01*
X149470716Y-51449278D01*
X149615608Y-51371831D01*
X149717590Y-51288137D01*
X149748815Y-51326185D01*
X149845506Y-51405537D01*
X149955820Y-51464502D01*
X150075518Y-51500812D01*
X150200000Y-51513072D01*
X150314250Y-51510000D01*
X150473000Y-51351250D01*
X150473000Y-50527000D01*
X150727000Y-50527000D01*
X150727000Y-51351250D01*
X150885750Y-51510000D01*
X151000000Y-51513072D01*
X151124482Y-51500812D01*
X151244180Y-51464502D01*
X151354494Y-51405537D01*
X151451185Y-51326185D01*
X151530537Y-51229494D01*
X151589502Y-51119180D01*
X151625812Y-50999482D01*
X151638072Y-50875000D01*
X151635000Y-50685750D01*
X151476250Y-50527000D01*
X150727000Y-50527000D01*
X150473000Y-50527000D01*
X150453000Y-50527000D01*
X150453000Y-50273000D01*
X150473000Y-50273000D01*
X150473000Y-49448750D01*
X150727000Y-49448750D01*
X150727000Y-50273000D01*
X151476250Y-50273000D01*
X151635000Y-50114250D01*
X151638072Y-49925000D01*
X151625812Y-49800518D01*
X151589502Y-49680820D01*
X151530537Y-49570506D01*
X151451185Y-49473815D01*
X151354494Y-49394463D01*
X151244180Y-49335498D01*
X151124482Y-49299188D01*
X151000000Y-49286928D01*
X150885750Y-49290000D01*
X150727000Y-49448750D01*
X150473000Y-49448750D01*
X150314250Y-49290000D01*
X150200000Y-49286928D01*
X150075518Y-49299188D01*
X149955820Y-49335498D01*
X149845506Y-49394463D01*
X149748815Y-49473815D01*
X149717590Y-49511863D01*
X149615608Y-49428169D01*
X149470716Y-49350722D01*
X149313500Y-49303031D01*
X149150000Y-49286928D01*
X148750000Y-49286928D01*
X148586500Y-49303031D01*
X148429284Y-49350722D01*
X148284392Y-49428169D01*
X148157394Y-49532394D01*
X148153070Y-49537662D01*
X148130537Y-49495506D01*
X148052158Y-49400000D01*
X148130537Y-49304494D01*
X148189502Y-49194180D01*
X148225812Y-49074482D01*
X148227047Y-49061940D01*
X148309758Y-49117205D01*
X148498116Y-49195226D01*
X148698075Y-49235000D01*
X148901953Y-49235000D01*
X149101912Y-49195226D01*
X149290270Y-49117205D01*
X149413299Y-49035000D01*
X149958982Y-49035000D01*
X150000000Y-49039040D01*
X150041018Y-49035000D01*
X150041019Y-49035000D01*
X150163689Y-49022918D01*
X150321087Y-48975172D01*
X150466146Y-48897636D01*
X150593291Y-48793291D01*
X150619446Y-48761422D01*
X151186426Y-48194442D01*
X151218291Y-48168291D01*
X151322636Y-48041146D01*
X151400172Y-47896087D01*
X151447918Y-47738689D01*
X151460000Y-47616019D01*
X151460000Y-47616009D01*
X151464039Y-47575001D01*
X151460000Y-47533993D01*
X151460000Y-47215949D01*
X151521831Y-47140608D01*
X151599278Y-46995716D01*
X151646969Y-46838500D01*
X151663072Y-46675000D01*
X151663072Y-46125000D01*
X151646969Y-45961500D01*
X151599278Y-45804284D01*
X151521831Y-45659392D01*
X151417606Y-45532394D01*
X151290608Y-45428169D01*
X151145716Y-45350722D01*
X150988500Y-45303031D01*
X150825000Y-45286928D01*
X150425000Y-45286928D01*
X150261500Y-45303031D01*
X150104284Y-45350722D01*
X149959392Y-45428169D01*
X149832394Y-45532394D01*
X149800000Y-45571866D01*
X149767606Y-45532394D01*
X149640608Y-45428169D01*
X149631108Y-45423091D01*
X149659774Y-45403937D01*
X149803937Y-45259774D01*
X149917205Y-45090256D01*
X149995226Y-44901898D01*
X150035000Y-44701939D01*
X150035000Y-44498061D01*
X149995226Y-44298102D01*
X149917205Y-44109744D01*
X149803937Y-43940226D01*
X149659774Y-43796063D01*
X149490256Y-43682795D01*
X149301898Y-43604774D01*
X149101939Y-43565000D01*
X148898061Y-43565000D01*
X148698102Y-43604774D01*
X148509744Y-43682795D01*
X148386715Y-43765000D01*
X148229701Y-43765000D01*
X148225812Y-43725518D01*
X148189502Y-43605820D01*
X148130537Y-43495506D01*
X148052158Y-43400000D01*
X148130537Y-43304494D01*
X148189502Y-43194180D01*
X148204786Y-43143797D01*
X148291146Y-43097636D01*
X148418291Y-42993291D01*
X148444445Y-42961422D01*
X149161433Y-42244436D01*
X149193291Y-42218291D01*
X149297636Y-42091146D01*
X149375172Y-41946087D01*
X149422918Y-41788689D01*
X149435000Y-41666019D01*
X149435000Y-41666018D01*
X149439040Y-41625000D01*
X149435000Y-41583982D01*
X149435000Y-37641018D01*
X149439040Y-37599999D01*
X149422918Y-37436311D01*
X149375172Y-37278913D01*
X149297636Y-37133854D01*
X149290370Y-37125000D01*
X149193291Y-37006709D01*
X149161427Y-36980559D01*
X147406946Y-35226079D01*
X147380791Y-35194209D01*
X147253646Y-35089864D01*
X147108587Y-35012328D01*
X146951189Y-34964582D01*
X146923851Y-34961889D01*
X146968671Y-34907275D01*
X147047850Y-34759142D01*
X147096608Y-34598408D01*
X147113072Y-34431250D01*
X147113072Y-33993750D01*
X147096608Y-33826592D01*
X147047850Y-33665858D01*
X146968671Y-33517725D01*
X146862115Y-33387885D01*
X146732275Y-33281329D01*
X146584142Y-33202150D01*
X146423408Y-33153392D01*
X146256250Y-33136928D01*
X145743750Y-33136928D01*
X145576592Y-33153392D01*
X145415858Y-33202150D01*
X145267725Y-33281329D01*
X145150539Y-33377500D01*
X145061643Y-33377500D01*
X144940608Y-33278169D01*
X144795716Y-33200722D01*
X144638500Y-33153031D01*
X144475000Y-33136928D01*
X143925000Y-33136928D01*
X143761500Y-33153031D01*
X143604284Y-33200722D01*
X143459392Y-33278169D01*
X143332394Y-33382394D01*
X143228169Y-33509392D01*
X143150722Y-33654284D01*
X143103031Y-33811500D01*
X143086928Y-33975000D01*
X143086928Y-34375000D01*
X143103031Y-34538500D01*
X143150722Y-34695716D01*
X143228169Y-34840608D01*
X143311863Y-34942590D01*
X143273815Y-34973815D01*
X143194463Y-35070506D01*
X143135498Y-35180820D01*
X143099188Y-35300518D01*
X143086928Y-35425000D01*
X143090000Y-35539250D01*
X143248750Y-35698000D01*
X144073000Y-35698000D01*
X144073000Y-35678000D01*
X144327000Y-35678000D01*
X144327000Y-35698000D01*
X144347000Y-35698000D01*
X144347000Y-35952000D01*
X144327000Y-35952000D01*
X144327000Y-36701250D01*
X144485750Y-36860000D01*
X144675000Y-36863072D01*
X144799482Y-36850812D01*
X144919180Y-36814502D01*
X145029494Y-36755537D01*
X145126185Y-36676185D01*
X145162313Y-36632163D01*
X145267725Y-36718671D01*
X145415858Y-36797850D01*
X145576592Y-36846608D01*
X145743750Y-36863072D01*
X146256250Y-36863072D01*
X146423408Y-36846608D01*
X146584142Y-36797850D01*
X146605543Y-36786411D01*
X147031061Y-37211928D01*
X145000000Y-37211928D01*
X144875518Y-37224188D01*
X144755820Y-37260498D01*
X144645506Y-37319463D01*
X144548815Y-37398815D01*
X144533263Y-37417766D01*
X144501898Y-37404774D01*
X144301939Y-37365000D01*
X144098061Y-37365000D01*
X143898102Y-37404774D01*
X143709744Y-37482795D01*
X143540226Y-37596063D01*
X143396063Y-37740226D01*
X143282795Y-37909744D01*
X143204774Y-38098102D01*
X143165000Y-38298061D01*
X143165000Y-38501939D01*
X143204774Y-38701898D01*
X143282795Y-38890256D01*
X143396063Y-39059774D01*
X143540226Y-39203937D01*
X143709744Y-39317205D01*
X143898102Y-39395226D01*
X143922103Y-39400000D01*
X143898102Y-39404774D01*
X143709744Y-39482795D01*
X143540226Y-39596063D01*
X143396063Y-39740226D01*
X143282795Y-39909744D01*
X143204774Y-40098102D01*
X143165000Y-40298061D01*
X143165000Y-40501939D01*
X143204774Y-40701898D01*
X143282795Y-40890256D01*
X143396063Y-41059774D01*
X143540226Y-41203937D01*
X143709744Y-41317205D01*
X143898102Y-41395226D01*
X144098061Y-41435000D01*
X144301939Y-41435000D01*
X144501898Y-41395226D01*
X144533263Y-41382234D01*
X144547842Y-41400000D01*
X144469463Y-41495506D01*
X144410498Y-41605820D01*
X144374188Y-41725518D01*
X144361928Y-41850000D01*
X144361928Y-42950000D01*
X144374188Y-43074482D01*
X144410498Y-43194180D01*
X144469463Y-43304494D01*
X144547842Y-43400000D01*
X144469463Y-43495506D01*
X144410498Y-43605820D01*
X144374188Y-43725518D01*
X144361928Y-43850000D01*
X144361928Y-44950000D01*
X144374188Y-45074482D01*
X144410498Y-45194180D01*
X144469463Y-45304494D01*
X144547842Y-45400000D01*
X144533263Y-45417766D01*
X144501898Y-45404774D01*
X144301939Y-45365000D01*
X144098061Y-45365000D01*
X143898102Y-45404774D01*
X143709744Y-45482795D01*
X143540226Y-45596063D01*
X143396063Y-45740226D01*
X143282795Y-45909744D01*
X143204774Y-46098102D01*
X143165000Y-46298061D01*
X143165000Y-46501939D01*
X143180658Y-46580658D01*
X143101939Y-46565000D01*
X142898061Y-46565000D01*
X142698102Y-46604774D01*
X142509744Y-46682795D01*
X142340226Y-46796063D01*
X142196063Y-46940226D01*
X142082795Y-47109744D01*
X142004774Y-47298102D01*
X141975908Y-47443225D01*
X137854133Y-51565000D01*
X132767683Y-51565000D01*
X132730537Y-51495506D01*
X132652158Y-51400000D01*
X132730537Y-51304494D01*
X132789502Y-51194180D01*
X132825812Y-51074482D01*
X132838072Y-50950000D01*
X132838072Y-49850000D01*
X132825812Y-49725518D01*
X132789502Y-49605820D01*
X132730537Y-49495506D01*
X132652158Y-49400000D01*
X132730537Y-49304494D01*
X132789502Y-49194180D01*
X132825812Y-49074482D01*
X132838072Y-48950000D01*
X132838072Y-47850000D01*
X132825812Y-47725518D01*
X132789502Y-47605820D01*
X132730537Y-47495506D01*
X132652158Y-47400000D01*
X132730537Y-47304494D01*
X132789502Y-47194180D01*
X132825812Y-47074482D01*
X132838072Y-46950000D01*
X132838072Y-45850000D01*
X132825812Y-45725518D01*
X132789502Y-45605820D01*
X132730537Y-45495506D01*
X132652158Y-45400000D01*
X132730537Y-45304494D01*
X132789502Y-45194180D01*
X132825812Y-45074482D01*
X132838072Y-44950000D01*
X132838072Y-43850000D01*
X132825812Y-43725518D01*
X132789502Y-43605820D01*
X132730537Y-43495506D01*
X132652158Y-43400000D01*
X132730537Y-43304494D01*
X132789502Y-43194180D01*
X132825812Y-43074482D01*
X132838072Y-42950000D01*
X132838072Y-41850000D01*
X132825812Y-41725518D01*
X132789502Y-41605820D01*
X132730537Y-41495506D01*
X132652158Y-41400000D01*
X132666737Y-41382234D01*
X132698102Y-41395226D01*
X132898061Y-41435000D01*
X133101939Y-41435000D01*
X133301898Y-41395226D01*
X133490256Y-41317205D01*
X133659774Y-41203937D01*
X133803937Y-41059774D01*
X133917205Y-40890256D01*
X133995226Y-40701898D01*
X134035000Y-40501939D01*
X134035000Y-40298061D01*
X133995226Y-40098102D01*
X133917205Y-39909744D01*
X133803937Y-39740226D01*
X133659774Y-39596063D01*
X133490256Y-39482795D01*
X133301898Y-39404774D01*
X133277897Y-39400000D01*
X133301898Y-39395226D01*
X133490256Y-39317205D01*
X133659774Y-39203937D01*
X133803937Y-39059774D01*
X133917205Y-38890256D01*
X133995226Y-38701898D01*
X134035000Y-38501939D01*
X134035000Y-38298061D01*
X133995226Y-38098102D01*
X133917205Y-37909744D01*
X133803937Y-37740226D01*
X133659774Y-37596063D01*
X133490256Y-37482795D01*
X133301898Y-37404774D01*
X133101939Y-37365000D01*
X132898061Y-37365000D01*
X132698102Y-37404774D01*
X132666737Y-37417766D01*
X132651185Y-37398815D01*
X132554494Y-37319463D01*
X132444180Y-37260498D01*
X132324482Y-37224188D01*
X132200000Y-37211928D01*
X129600000Y-37211928D01*
X129475518Y-37224188D01*
X129355820Y-37260498D01*
X129259336Y-37312070D01*
X129246488Y-37181623D01*
X129197375Y-37019717D01*
X129117618Y-36870503D01*
X129010284Y-36739716D01*
X128879497Y-36632382D01*
X128730283Y-36552625D01*
X128568377Y-36503512D01*
X128400000Y-36486928D01*
X127950000Y-36486928D01*
X127781623Y-36503512D01*
X127619717Y-36552625D01*
X127473649Y-36630700D01*
X127429494Y-36594463D01*
X127319180Y-36535498D01*
X127199482Y-36499188D01*
X127075000Y-36486928D01*
X126910750Y-36490000D01*
X126752000Y-36648750D01*
X126752000Y-37473000D01*
X126772000Y-37473000D01*
X126772000Y-37727000D01*
X126752000Y-37727000D01*
X126752000Y-37747000D01*
X126498000Y-37747000D01*
X126498000Y-37727000D01*
X126478000Y-37727000D01*
X126478000Y-37473000D01*
X126498000Y-37473000D01*
X126498000Y-36648750D01*
X126339250Y-36490000D01*
X126235000Y-36488050D01*
X126235000Y-36145867D01*
X127570869Y-34810000D01*
X129885485Y-34810000D01*
X129709744Y-34882795D01*
X129540226Y-34996063D01*
X129396063Y-35140226D01*
X129282795Y-35309744D01*
X129204774Y-35498102D01*
X129165000Y-35698061D01*
X129165000Y-35901939D01*
X129204774Y-36101898D01*
X129282795Y-36290256D01*
X129396063Y-36459774D01*
X129540226Y-36603937D01*
X129709744Y-36717205D01*
X129898102Y-36795226D01*
X130098061Y-36835000D01*
X130301939Y-36835000D01*
X130501898Y-36795226D01*
X130690256Y-36717205D01*
X130813285Y-36635000D01*
X130922044Y-36635000D01*
X130961500Y-36646969D01*
X131125000Y-36663072D01*
X131675000Y-36663072D01*
X131838500Y-36646969D01*
X131995716Y-36599278D01*
X132140608Y-36521831D01*
X132215949Y-36460000D01*
X132333982Y-36460000D01*
X132375000Y-36464040D01*
X132416018Y-36460000D01*
X132416019Y-36460000D01*
X132538689Y-36447918D01*
X132696087Y-36400172D01*
X132841146Y-36322636D01*
X132883262Y-36288072D01*
X133650000Y-36288072D01*
X133774482Y-36275812D01*
X133894180Y-36239502D01*
X134004494Y-36180537D01*
X134101185Y-36101185D01*
X134180537Y-36004494D01*
X134239502Y-35894180D01*
X134275812Y-35774482D01*
X134288072Y-35650000D01*
X136511928Y-35650000D01*
X136524188Y-35774482D01*
X136560498Y-35894180D01*
X136619463Y-36004494D01*
X136698815Y-36101185D01*
X136795506Y-36180537D01*
X136905820Y-36239502D01*
X137025518Y-36275812D01*
X137150000Y-36288072D01*
X137314250Y-36285000D01*
X137473000Y-36126250D01*
X137473000Y-34927000D01*
X137727000Y-34927000D01*
X137727000Y-36126250D01*
X137885750Y-36285000D01*
X138050000Y-36288072D01*
X138174482Y-36275812D01*
X138294180Y-36239502D01*
X138321310Y-36225000D01*
X143086928Y-36225000D01*
X143099188Y-36349482D01*
X143135498Y-36469180D01*
X143194463Y-36579494D01*
X143273815Y-36676185D01*
X143370506Y-36755537D01*
X143480820Y-36814502D01*
X143600518Y-36850812D01*
X143725000Y-36863072D01*
X143914250Y-36860000D01*
X144073000Y-36701250D01*
X144073000Y-35952000D01*
X143248750Y-35952000D01*
X143090000Y-36110750D01*
X143086928Y-36225000D01*
X138321310Y-36225000D01*
X138404494Y-36180537D01*
X138501185Y-36101185D01*
X138580537Y-36004494D01*
X138639502Y-35894180D01*
X138675812Y-35774482D01*
X138688072Y-35650000D01*
X138685000Y-35085750D01*
X138526250Y-34927000D01*
X137727000Y-34927000D01*
X137473000Y-34927000D01*
X136673750Y-34927000D01*
X136515000Y-35085750D01*
X136511928Y-35650000D01*
X134288072Y-35650000D01*
X134288072Y-33950000D01*
X136511928Y-33950000D01*
X136515000Y-34514250D01*
X136673750Y-34673000D01*
X137473000Y-34673000D01*
X137473000Y-33473750D01*
X137727000Y-33473750D01*
X137727000Y-34673000D01*
X138526250Y-34673000D01*
X138685000Y-34514250D01*
X138688072Y-33950000D01*
X138675812Y-33825518D01*
X138639502Y-33705820D01*
X138580537Y-33595506D01*
X138501185Y-33498815D01*
X138404494Y-33419463D01*
X138294180Y-33360498D01*
X138174482Y-33324188D01*
X138050000Y-33311928D01*
X137885750Y-33315000D01*
X137727000Y-33473750D01*
X137473000Y-33473750D01*
X137314250Y-33315000D01*
X137150000Y-33311928D01*
X137025518Y-33324188D01*
X136905820Y-33360498D01*
X136795506Y-33419463D01*
X136698815Y-33498815D01*
X136619463Y-33595506D01*
X136560498Y-33705820D01*
X136524188Y-33825518D01*
X136511928Y-33950000D01*
X134288072Y-33950000D01*
X134275812Y-33825518D01*
X134239502Y-33705820D01*
X134180537Y-33595506D01*
X134101185Y-33498815D01*
X134004494Y-33419463D01*
X133894180Y-33360498D01*
X133774482Y-33324188D01*
X133650000Y-33311928D01*
X132750000Y-33311928D01*
X132625518Y-33324188D01*
X132505820Y-33360498D01*
X132422853Y-33404846D01*
X132371831Y-33309392D01*
X132267606Y-33182394D01*
X132140608Y-33078169D01*
X131995716Y-33000722D01*
X131838500Y-32953031D01*
X131675000Y-32936928D01*
X131125000Y-32936928D01*
X130961500Y-32953031D01*
X130804284Y-33000722D01*
X130659392Y-33078169D01*
X130584051Y-33140000D01*
X127665132Y-33140000D01*
X128470133Y-32335000D01*
X132884556Y-32335000D01*
X132970506Y-32405537D01*
X133080820Y-32464502D01*
X133200518Y-32500812D01*
X133325000Y-32513072D01*
X134675000Y-32513072D01*
X134799482Y-32500812D01*
X134919180Y-32464502D01*
X135029494Y-32405537D01*
X135126185Y-32326185D01*
X135203119Y-32232441D01*
X135336371Y-32329473D01*
X135569472Y-32437238D01*
X135670600Y-32467910D01*
X135873000Y-32344224D01*
X135873000Y-31327000D01*
X135853000Y-31327000D01*
X135853000Y-31073000D01*
X135873000Y-31073000D01*
X135873000Y-31053000D01*
X136127000Y-31053000D01*
X136127000Y-31073000D01*
X136147000Y-31073000D01*
X136147000Y-31327000D01*
X136127000Y-31327000D01*
X136127000Y-32344224D01*
X136329400Y-32467910D01*
X136430528Y-32437238D01*
X136663629Y-32329473D01*
X136871227Y-32178303D01*
X136993319Y-32045940D01*
X137164923Y-32217544D01*
X137379482Y-32360907D01*
X137617887Y-32459658D01*
X137870976Y-32510000D01*
X138129024Y-32510000D01*
X138382113Y-32459658D01*
X138620518Y-32360907D01*
X138835077Y-32217544D01*
X139000000Y-32052621D01*
X139164923Y-32217544D01*
X139379482Y-32360907D01*
X139617887Y-32459658D01*
X139870976Y-32510000D01*
X140129024Y-32510000D01*
X140382113Y-32459658D01*
X140620518Y-32360907D01*
X140835077Y-32217544D01*
X141000000Y-32052621D01*
X141164923Y-32217544D01*
X141379482Y-32360907D01*
X141617887Y-32459658D01*
X141870976Y-32510000D01*
X142129024Y-32510000D01*
X142382113Y-32459658D01*
X142620518Y-32360907D01*
X142835077Y-32217544D01*
X143000000Y-32052621D01*
X143164923Y-32217544D01*
X143379482Y-32360907D01*
X143617887Y-32459658D01*
X143870976Y-32510000D01*
X144129024Y-32510000D01*
X144382113Y-32459658D01*
X144620518Y-32360907D01*
X144835077Y-32217544D01*
X145017544Y-32035077D01*
X145160907Y-31820518D01*
X145259658Y-31582113D01*
X145310000Y-31329024D01*
X145310000Y-31070976D01*
X145259658Y-30817887D01*
X145160907Y-30579482D01*
X145017544Y-30364923D01*
X145012621Y-30360000D01*
X157340001Y-30360000D01*
X157340000Y-77073000D01*
%TA.AperFunction,Conductor*%
D29*
G36*
X157340000Y-77073000D02*
G01*
X150938467Y-77073000D01*
X150946449Y-77066449D01*
X150981996Y-77023135D01*
X154713146Y-73291987D01*
X154756449Y-73256449D01*
X154839034Y-73155820D01*
X154898284Y-73083623D01*
X155003676Y-72886447D01*
X155068577Y-72672499D01*
X155090491Y-72450000D01*
X155085000Y-72394248D01*
X155085000Y-69458688D01*
X155151618Y-69414175D01*
X155414175Y-69151618D01*
X155620466Y-68842882D01*
X155762561Y-68499834D01*
X155835000Y-68135656D01*
X155835000Y-67764344D01*
X155762561Y-67400166D01*
X155620466Y-67057118D01*
X155414175Y-66748382D01*
X155151618Y-66485825D01*
X155085000Y-66441312D01*
X155085000Y-66205741D01*
X155090490Y-66149999D01*
X155085000Y-66094257D01*
X155085000Y-66094248D01*
X155068577Y-65927501D01*
X155003676Y-65713553D01*
X154898284Y-65516377D01*
X154756449Y-65343551D01*
X154713141Y-65308009D01*
X151629496Y-62224365D01*
X151593949Y-62181051D01*
X151421123Y-62039216D01*
X151223947Y-61933824D01*
X151009999Y-61868923D01*
X150843252Y-61852500D01*
X150843251Y-61852500D01*
X150787500Y-61847009D01*
X150731749Y-61852500D01*
X147480199Y-61852500D01*
X147496608Y-61798408D01*
X147509878Y-61663674D01*
X147518577Y-61634999D01*
X147540491Y-61412500D01*
X147518577Y-61190001D01*
X147509878Y-61161326D01*
X147496608Y-61026592D01*
X147447850Y-60865858D01*
X147368671Y-60717725D01*
X147262115Y-60587885D01*
X147132275Y-60481329D01*
X147006999Y-60414367D01*
X146696128Y-60103496D01*
X146653676Y-59963553D01*
X146548284Y-59766377D01*
X146406449Y-59593551D01*
X146233623Y-59451716D01*
X146036447Y-59346324D01*
X145822499Y-59281423D01*
X145655752Y-59265000D01*
X145655751Y-59265000D01*
X145600000Y-59259509D01*
X145544248Y-59265000D01*
X144255751Y-59265000D01*
X144199999Y-59259509D01*
X143977500Y-59281423D01*
X143927705Y-59296529D01*
X143763553Y-59346324D01*
X143566377Y-59451716D01*
X143393551Y-59593551D01*
X143358004Y-59636865D01*
X143068575Y-59926294D01*
X142955820Y-59960498D01*
X142845506Y-60019463D01*
X142748815Y-60098815D01*
X142669463Y-60195506D01*
X142610498Y-60305820D01*
X142574188Y-60425518D01*
X142563816Y-60530829D01*
X142546324Y-60563554D01*
X142481423Y-60777502D01*
X142459509Y-61000000D01*
X142481423Y-61222498D01*
X142546324Y-61436446D01*
X142563816Y-61469171D01*
X142574188Y-61574482D01*
X142610498Y-61694180D01*
X142669463Y-61804494D01*
X142748815Y-61901185D01*
X142761905Y-61911928D01*
X142250000Y-61911928D01*
X142125518Y-61924188D01*
X142005820Y-61960498D01*
X141895506Y-62019463D01*
X141798815Y-62098815D01*
X141723982Y-62190000D01*
X141640319Y-62190000D01*
X141667606Y-62167606D01*
X141771831Y-62040608D01*
X141849278Y-61895716D01*
X141896969Y-61738500D01*
X141913072Y-61575000D01*
X141913072Y-61175000D01*
X141896969Y-61011500D01*
X141849278Y-60854284D01*
X141771831Y-60709392D01*
X141730260Y-60658738D01*
X141795226Y-60501898D01*
X141835000Y-60301939D01*
X141835000Y-60098061D01*
X141795226Y-59898102D01*
X141717205Y-59709744D01*
X141603937Y-59540226D01*
X141459774Y-59396063D01*
X141290256Y-59282795D01*
X141101898Y-59204774D01*
X140901939Y-59165000D01*
X140698061Y-59165000D01*
X140498102Y-59204774D01*
X140309744Y-59282795D01*
X140140226Y-59396063D01*
X139996063Y-59540226D01*
X139882795Y-59709744D01*
X139804774Y-59898102D01*
X139765000Y-60098061D01*
X139765000Y-60301939D01*
X139804774Y-60501898D01*
X139869740Y-60658738D01*
X139828169Y-60709392D01*
X139750722Y-60854284D01*
X139703031Y-61011500D01*
X139686928Y-61175000D01*
X139686928Y-61575000D01*
X139703031Y-61738500D01*
X139750722Y-61895716D01*
X139828169Y-62040608D01*
X139932394Y-62167606D01*
X139971866Y-62200000D01*
X139932394Y-62232394D01*
X139828169Y-62359392D01*
X139750722Y-62504284D01*
X139703031Y-62661500D01*
X139686928Y-62825000D01*
X139686928Y-63225000D01*
X139703031Y-63388500D01*
X139750722Y-63545716D01*
X139828169Y-63690608D01*
X139932394Y-63817606D01*
X140059392Y-63921831D01*
X140204284Y-63999278D01*
X140361500Y-64046969D01*
X140525000Y-64063072D01*
X141075000Y-64063072D01*
X141238500Y-64046969D01*
X141395716Y-63999278D01*
X141540608Y-63921831D01*
X141615949Y-63860000D01*
X141765015Y-63860000D01*
X141798815Y-63901185D01*
X141895506Y-63980537D01*
X142005820Y-64039502D01*
X142125518Y-64075812D01*
X142250000Y-64088072D01*
X143050000Y-64088072D01*
X143174482Y-64075812D01*
X143294180Y-64039502D01*
X143404494Y-63980537D01*
X143501185Y-63901185D01*
X143580537Y-63804494D01*
X143600000Y-63768082D01*
X143619463Y-63804494D01*
X143698815Y-63901185D01*
X143795506Y-63980537D01*
X143905820Y-64039502D01*
X144025518Y-64075812D01*
X144150000Y-64088072D01*
X144264250Y-64085000D01*
X144423000Y-63926250D01*
X144423000Y-63127000D01*
X144403000Y-63127000D01*
X144403000Y-62873000D01*
X144423000Y-62873000D01*
X144423000Y-62073750D01*
X144338393Y-61989143D01*
X144354494Y-61980537D01*
X144451185Y-61901185D01*
X144530537Y-61804494D01*
X144589502Y-61694180D01*
X144623706Y-61581425D01*
X144670131Y-61535000D01*
X144917369Y-61535000D01*
X145364367Y-61981999D01*
X145431329Y-62107275D01*
X145507426Y-62200000D01*
X145492597Y-62218069D01*
X145480537Y-62195506D01*
X145401185Y-62098815D01*
X145304494Y-62019463D01*
X145194180Y-61960498D01*
X145074482Y-61924188D01*
X144950000Y-61911928D01*
X144835750Y-61915000D01*
X144677000Y-62073750D01*
X144677000Y-62873000D01*
X144697000Y-62873000D01*
X144697000Y-63127000D01*
X144677000Y-63127000D01*
X144677000Y-63926250D01*
X144835750Y-64085000D01*
X144950000Y-64088072D01*
X145074482Y-64075812D01*
X145194180Y-64039502D01*
X145304494Y-63980537D01*
X145401185Y-63901185D01*
X145480537Y-63804494D01*
X145500690Y-63766792D01*
X145537885Y-63812115D01*
X145667725Y-63918671D01*
X145815858Y-63997850D01*
X145976592Y-64046608D01*
X145983800Y-64047318D01*
X146177501Y-64106077D01*
X146344248Y-64122500D01*
X146966979Y-64122500D01*
X146639017Y-64341637D01*
X146341637Y-64639017D01*
X146107988Y-64988698D01*
X145947047Y-65377244D01*
X145865000Y-65789721D01*
X145865000Y-66210279D01*
X145947047Y-66622756D01*
X146107988Y-67011302D01*
X146341637Y-67360983D01*
X146639017Y-67658363D01*
X146988698Y-67892012D01*
X147377244Y-68052953D01*
X147789721Y-68135000D01*
X148210279Y-68135000D01*
X148622756Y-68052953D01*
X149011302Y-67892012D01*
X149360983Y-67658363D01*
X149658363Y-67360983D01*
X149892012Y-67011302D01*
X150052953Y-66622756D01*
X150135000Y-66210279D01*
X150135000Y-65789721D01*
X150052953Y-65377244D01*
X149892012Y-64988698D01*
X149658363Y-64639017D01*
X149360983Y-64341637D01*
X149033021Y-64122500D01*
X150317369Y-64122500D01*
X152714538Y-66519669D01*
X152485825Y-66748382D01*
X152279534Y-67057118D01*
X152137439Y-67400166D01*
X152065000Y-67764344D01*
X152065000Y-68135656D01*
X152137439Y-68499834D01*
X152279534Y-68842882D01*
X152485825Y-69151618D01*
X152748382Y-69414175D01*
X152815001Y-69458688D01*
X152815000Y-71979867D01*
X149669869Y-75125000D01*
X138727603Y-75125000D01*
X138719180Y-75120498D01*
X138599482Y-75084188D01*
X138475000Y-75071928D01*
X137560000Y-75071928D01*
X137560000Y-72312417D01*
X137689250Y-72310000D01*
X137848000Y-72151250D01*
X137848000Y-71327000D01*
X138102000Y-71327000D01*
X138102000Y-72151250D01*
X138260750Y-72310000D01*
X138425000Y-72313072D01*
X138549482Y-72300812D01*
X138669180Y-72264502D01*
X138779494Y-72205537D01*
X138876185Y-72126185D01*
X138955537Y-72029494D01*
X139014502Y-71919180D01*
X139050812Y-71799482D01*
X139063072Y-71675000D01*
X139060000Y-71485750D01*
X138901250Y-71327000D01*
X138102000Y-71327000D01*
X137848000Y-71327000D01*
X137828000Y-71327000D01*
X137828000Y-71073000D01*
X137848000Y-71073000D01*
X137848000Y-69727000D01*
X138102000Y-69727000D01*
X138102000Y-71073000D01*
X138901250Y-71073000D01*
X139060000Y-70914250D01*
X139063072Y-70725000D01*
X139050812Y-70600518D01*
X139014502Y-70480820D01*
X138971302Y-70400000D01*
X139014502Y-70319180D01*
X139050812Y-70199482D01*
X139063072Y-70075000D01*
X139060000Y-69885750D01*
X138901250Y-69727000D01*
X138102000Y-69727000D01*
X137848000Y-69727000D01*
X137828000Y-69727000D01*
X137828000Y-69473000D01*
X137848000Y-69473000D01*
X137848000Y-68127000D01*
X138102000Y-68127000D01*
X138102000Y-69473000D01*
X138901250Y-69473000D01*
X139060000Y-69314250D01*
X139063072Y-69125000D01*
X139050812Y-69000518D01*
X139014502Y-68880820D01*
X138971302Y-68800000D01*
X139014502Y-68719180D01*
X139050812Y-68599482D01*
X139063072Y-68475000D01*
X139060000Y-68285750D01*
X138901250Y-68127000D01*
X138102000Y-68127000D01*
X137848000Y-68127000D01*
X137828000Y-68127000D01*
X137828000Y-67873000D01*
X137848000Y-67873000D01*
X137848000Y-67048750D01*
X138102000Y-67048750D01*
X138102000Y-67873000D01*
X138901250Y-67873000D01*
X139009906Y-67764344D01*
X140065000Y-67764344D01*
X140065000Y-68135656D01*
X140137439Y-68499834D01*
X140279534Y-68842882D01*
X140485825Y-69151618D01*
X140748382Y-69414175D01*
X141057118Y-69620466D01*
X141400166Y-69762561D01*
X141764344Y-69835000D01*
X142135656Y-69835000D01*
X142499834Y-69762561D01*
X142842882Y-69620466D01*
X143151618Y-69414175D01*
X143414175Y-69151618D01*
X143620466Y-68842882D01*
X143762561Y-68499834D01*
X143835000Y-68135656D01*
X143835000Y-67764344D01*
X143762561Y-67400166D01*
X143620466Y-67057118D01*
X143414175Y-66748382D01*
X143151618Y-66485825D01*
X142842882Y-66279534D01*
X142499834Y-66137439D01*
X142135656Y-66065000D01*
X141764344Y-66065000D01*
X141400166Y-66137439D01*
X141057118Y-66279534D01*
X140748382Y-66485825D01*
X140485825Y-66748382D01*
X140279534Y-67057118D01*
X140137439Y-67400166D01*
X140065000Y-67764344D01*
X139009906Y-67764344D01*
X139060000Y-67714250D01*
X139063072Y-67525000D01*
X139050812Y-67400518D01*
X139014502Y-67280820D01*
X138955537Y-67170506D01*
X138876185Y-67073815D01*
X138779494Y-66994463D01*
X138669180Y-66935498D01*
X138549482Y-66899188D01*
X138425000Y-66886928D01*
X138260750Y-66890000D01*
X138102000Y-67048750D01*
X137848000Y-67048750D01*
X137689250Y-66890000D01*
X137525000Y-66886928D01*
X137400518Y-66899188D01*
X137280820Y-66935498D01*
X137170506Y-66994463D01*
X137126351Y-67030700D01*
X136980283Y-66952625D01*
X136818377Y-66903512D01*
X136673168Y-66889210D01*
X136647498Y-66881423D01*
X136425000Y-66859509D01*
X136202501Y-66881423D01*
X136176831Y-66889210D01*
X136031623Y-66903512D01*
X135869717Y-66952625D01*
X135720503Y-67032382D01*
X135589716Y-67139716D01*
X135482382Y-67270503D01*
X135402625Y-67419717D01*
X135353512Y-67581623D01*
X135347583Y-67641815D01*
X135306423Y-67777502D01*
X135290000Y-67944249D01*
X135290000Y-69289636D01*
X135204494Y-69219463D01*
X135094180Y-69160498D01*
X134974482Y-69124188D01*
X134850000Y-69111928D01*
X133350000Y-69111928D01*
X133225518Y-69124188D01*
X133105820Y-69160498D01*
X132995506Y-69219463D01*
X132950000Y-69256809D01*
X132935000Y-69244499D01*
X132935000Y-66088072D01*
X133700000Y-66088072D01*
X133824482Y-66075812D01*
X133944180Y-66039502D01*
X134054494Y-65980537D01*
X134151185Y-65901185D01*
X134230537Y-65804494D01*
X134289502Y-65694180D01*
X134322621Y-65585000D01*
X135290000Y-65585000D01*
X135290000Y-65655752D01*
X135306423Y-65822499D01*
X135347583Y-65958183D01*
X135353512Y-66018377D01*
X135402625Y-66180283D01*
X135482382Y-66329497D01*
X135589716Y-66460284D01*
X135720503Y-66567618D01*
X135869717Y-66647375D01*
X136031623Y-66696488D01*
X136176832Y-66710790D01*
X136202502Y-66718577D01*
X136425000Y-66740491D01*
X136647499Y-66718577D01*
X136673169Y-66710790D01*
X136818377Y-66696488D01*
X136980283Y-66647375D01*
X137126351Y-66569300D01*
X137170506Y-66605537D01*
X137280820Y-66664502D01*
X137400518Y-66700812D01*
X137525000Y-66713072D01*
X137689250Y-66710000D01*
X137848000Y-66551250D01*
X137848000Y-65727000D01*
X138102000Y-65727000D01*
X138102000Y-66551250D01*
X138260750Y-66710000D01*
X138425000Y-66713072D01*
X138549482Y-66700812D01*
X138669180Y-66664502D01*
X138779494Y-66605537D01*
X138876185Y-66526185D01*
X138955537Y-66429494D01*
X139014502Y-66319180D01*
X139050812Y-66199482D01*
X139063072Y-66075000D01*
X139060000Y-65885750D01*
X138901250Y-65727000D01*
X138102000Y-65727000D01*
X137848000Y-65727000D01*
X137828000Y-65727000D01*
X137828000Y-65473000D01*
X137848000Y-65473000D01*
X137848000Y-64127000D01*
X138102000Y-64127000D01*
X138102000Y-65473000D01*
X138901250Y-65473000D01*
X139060000Y-65314250D01*
X139063072Y-65125000D01*
X139050812Y-65000518D01*
X139014502Y-64880820D01*
X138971302Y-64800000D01*
X139014502Y-64719180D01*
X139050812Y-64599482D01*
X139063072Y-64475000D01*
X139060000Y-64285750D01*
X138901250Y-64127000D01*
X138102000Y-64127000D01*
X137848000Y-64127000D01*
X137828000Y-64127000D01*
X137828000Y-63873000D01*
X137848000Y-63873000D01*
X137848000Y-63048750D01*
X138102000Y-63048750D01*
X138102000Y-63873000D01*
X138901250Y-63873000D01*
X139060000Y-63714250D01*
X139063072Y-63525000D01*
X139050812Y-63400518D01*
X139014502Y-63280820D01*
X138955537Y-63170506D01*
X138876185Y-63073815D01*
X138779494Y-62994463D01*
X138669180Y-62935498D01*
X138549482Y-62899188D01*
X138425000Y-62886928D01*
X138260750Y-62890000D01*
X138102000Y-63048750D01*
X137848000Y-63048750D01*
X137689250Y-62890000D01*
X137525000Y-62886928D01*
X137400518Y-62899188D01*
X137280820Y-62935498D01*
X137170506Y-62994463D01*
X137126351Y-63030700D01*
X136980283Y-62952625D01*
X136818377Y-62903512D01*
X136673168Y-62889210D01*
X136647498Y-62881423D01*
X136425000Y-62859509D01*
X136424999Y-62859509D01*
X136288022Y-62873000D01*
X136202501Y-62881423D01*
X136176831Y-62889210D01*
X136031623Y-62903512D01*
X135869717Y-62952625D01*
X135720503Y-63032382D01*
X135589716Y-63139716D01*
X135482382Y-63270503D01*
X135458598Y-63315000D01*
X134322621Y-63315000D01*
X134289502Y-63205820D01*
X134230537Y-63095506D01*
X134151185Y-62998815D01*
X134054494Y-62919463D01*
X133944180Y-62860498D01*
X133824482Y-62824188D01*
X133700000Y-62811928D01*
X132935000Y-62811928D01*
X132935000Y-53355743D01*
X132940490Y-53299999D01*
X132935000Y-53244255D01*
X132935000Y-53244248D01*
X132934089Y-53235000D01*
X138158982Y-53235000D01*
X138200000Y-53239040D01*
X138241018Y-53235000D01*
X138241019Y-53235000D01*
X138363689Y-53222918D01*
X138521087Y-53175172D01*
X138666146Y-53097636D01*
X138793291Y-52993291D01*
X138819446Y-52961421D01*
X138830867Y-52950000D01*
X144361928Y-52950000D01*
X144374188Y-53074482D01*
X144410498Y-53194180D01*
X144469463Y-53304494D01*
X144548815Y-53401185D01*
X144645506Y-53480537D01*
X144755820Y-53539502D01*
X144875518Y-53575812D01*
X145000000Y-53588072D01*
X146014250Y-53585000D01*
X146173000Y-53426250D01*
X146173000Y-52527000D01*
X146427000Y-52527000D01*
X146427000Y-53426250D01*
X146585750Y-53585000D01*
X147600000Y-53588072D01*
X147724482Y-53575812D01*
X147844180Y-53539502D01*
X147954494Y-53480537D01*
X148051185Y-53401185D01*
X148130537Y-53304494D01*
X148189502Y-53194180D01*
X148225812Y-53074482D01*
X148238072Y-52950000D01*
X148235000Y-52685750D01*
X148076250Y-52527000D01*
X146427000Y-52527000D01*
X146173000Y-52527000D01*
X144523750Y-52527000D01*
X144365000Y-52685750D01*
X144361928Y-52950000D01*
X138830867Y-52950000D01*
X143156775Y-48624092D01*
X143301898Y-48595226D01*
X143381285Y-48562342D01*
X143282795Y-48709744D01*
X143204774Y-48898102D01*
X143165000Y-49098061D01*
X143165000Y-49301939D01*
X143204774Y-49501898D01*
X143282795Y-49690256D01*
X143396063Y-49859774D01*
X143540226Y-50003937D01*
X143709744Y-50117205D01*
X143898102Y-50195226D01*
X144098061Y-50235000D01*
X144301939Y-50235000D01*
X144361928Y-50223068D01*
X144361928Y-50950000D01*
X144374188Y-51074482D01*
X144410498Y-51194180D01*
X144469463Y-51304494D01*
X144547842Y-51400000D01*
X144469463Y-51495506D01*
X144410498Y-51605820D01*
X144374188Y-51725518D01*
X144361928Y-51850000D01*
X144365000Y-52114250D01*
X144523750Y-52273000D01*
X146173000Y-52273000D01*
X146173000Y-52253000D01*
X146427000Y-52253000D01*
X146427000Y-52273000D01*
X148076250Y-52273000D01*
X148235000Y-52114250D01*
X148238072Y-51850000D01*
X148225812Y-51725518D01*
X148189502Y-51605820D01*
X148130537Y-51495506D01*
X148052158Y-51400000D01*
X148130537Y-51304494D01*
X148153070Y-51262338D01*
X148157394Y-51267606D01*
X148284392Y-51371831D01*
X148429284Y-51449278D01*
X148586500Y-51496969D01*
X148750000Y-51513072D01*
X149150000Y-51513072D01*
X149313500Y-51496969D01*
X149470716Y-51449278D01*
X149615608Y-51371831D01*
X149717590Y-51288137D01*
X149748815Y-51326185D01*
X149845506Y-51405537D01*
X149955820Y-51464502D01*
X150075518Y-51500812D01*
X150200000Y-51513072D01*
X150314250Y-51510000D01*
X150473000Y-51351250D01*
X150473000Y-50527000D01*
X150727000Y-50527000D01*
X150727000Y-51351250D01*
X150885750Y-51510000D01*
X151000000Y-51513072D01*
X151124482Y-51500812D01*
X151244180Y-51464502D01*
X151354494Y-51405537D01*
X151451185Y-51326185D01*
X151530537Y-51229494D01*
X151589502Y-51119180D01*
X151625812Y-50999482D01*
X151638072Y-50875000D01*
X151635000Y-50685750D01*
X151476250Y-50527000D01*
X150727000Y-50527000D01*
X150473000Y-50527000D01*
X150453000Y-50527000D01*
X150453000Y-50273000D01*
X150473000Y-50273000D01*
X150473000Y-49448750D01*
X150727000Y-49448750D01*
X150727000Y-50273000D01*
X151476250Y-50273000D01*
X151635000Y-50114250D01*
X151638072Y-49925000D01*
X151625812Y-49800518D01*
X151589502Y-49680820D01*
X151530537Y-49570506D01*
X151451185Y-49473815D01*
X151354494Y-49394463D01*
X151244180Y-49335498D01*
X151124482Y-49299188D01*
X151000000Y-49286928D01*
X150885750Y-49290000D01*
X150727000Y-49448750D01*
X150473000Y-49448750D01*
X150314250Y-49290000D01*
X150200000Y-49286928D01*
X150075518Y-49299188D01*
X149955820Y-49335498D01*
X149845506Y-49394463D01*
X149748815Y-49473815D01*
X149717590Y-49511863D01*
X149615608Y-49428169D01*
X149470716Y-49350722D01*
X149313500Y-49303031D01*
X149150000Y-49286928D01*
X148750000Y-49286928D01*
X148586500Y-49303031D01*
X148429284Y-49350722D01*
X148284392Y-49428169D01*
X148157394Y-49532394D01*
X148153070Y-49537662D01*
X148130537Y-49495506D01*
X148052158Y-49400000D01*
X148130537Y-49304494D01*
X148189502Y-49194180D01*
X148225812Y-49074482D01*
X148227047Y-49061940D01*
X148309758Y-49117205D01*
X148498116Y-49195226D01*
X148698075Y-49235000D01*
X148901953Y-49235000D01*
X149101912Y-49195226D01*
X149290270Y-49117205D01*
X149413299Y-49035000D01*
X149958982Y-49035000D01*
X150000000Y-49039040D01*
X150041018Y-49035000D01*
X150041019Y-49035000D01*
X150163689Y-49022918D01*
X150321087Y-48975172D01*
X150466146Y-48897636D01*
X150593291Y-48793291D01*
X150619446Y-48761422D01*
X151186426Y-48194442D01*
X151218291Y-48168291D01*
X151322636Y-48041146D01*
X151400172Y-47896087D01*
X151447918Y-47738689D01*
X151460000Y-47616019D01*
X151460000Y-47616009D01*
X151464039Y-47575001D01*
X151460000Y-47533993D01*
X151460000Y-47215949D01*
X151521831Y-47140608D01*
X151599278Y-46995716D01*
X151646969Y-46838500D01*
X151663072Y-46675000D01*
X151663072Y-46125000D01*
X151646969Y-45961500D01*
X151599278Y-45804284D01*
X151521831Y-45659392D01*
X151417606Y-45532394D01*
X151290608Y-45428169D01*
X151145716Y-45350722D01*
X150988500Y-45303031D01*
X150825000Y-45286928D01*
X150425000Y-45286928D01*
X150261500Y-45303031D01*
X150104284Y-45350722D01*
X149959392Y-45428169D01*
X149832394Y-45532394D01*
X149800000Y-45571866D01*
X149767606Y-45532394D01*
X149640608Y-45428169D01*
X149631108Y-45423091D01*
X149659774Y-45403937D01*
X149803937Y-45259774D01*
X149917205Y-45090256D01*
X149995226Y-44901898D01*
X150035000Y-44701939D01*
X150035000Y-44498061D01*
X149995226Y-44298102D01*
X149917205Y-44109744D01*
X149803937Y-43940226D01*
X149659774Y-43796063D01*
X149490256Y-43682795D01*
X149301898Y-43604774D01*
X149101939Y-43565000D01*
X148898061Y-43565000D01*
X148698102Y-43604774D01*
X148509744Y-43682795D01*
X148386715Y-43765000D01*
X148229701Y-43765000D01*
X148225812Y-43725518D01*
X148189502Y-43605820D01*
X148130537Y-43495506D01*
X148052158Y-43400000D01*
X148130537Y-43304494D01*
X148189502Y-43194180D01*
X148204786Y-43143797D01*
X148291146Y-43097636D01*
X148418291Y-42993291D01*
X148444445Y-42961422D01*
X149161433Y-42244436D01*
X149193291Y-42218291D01*
X149297636Y-42091146D01*
X149375172Y-41946087D01*
X149422918Y-41788689D01*
X149435000Y-41666019D01*
X149435000Y-41666018D01*
X149439040Y-41625000D01*
X149435000Y-41583982D01*
X149435000Y-37641018D01*
X149439040Y-37599999D01*
X149422918Y-37436311D01*
X149375172Y-37278913D01*
X149297636Y-37133854D01*
X149290370Y-37125000D01*
X149193291Y-37006709D01*
X149161427Y-36980559D01*
X147406946Y-35226079D01*
X147380791Y-35194209D01*
X147253646Y-35089864D01*
X147108587Y-35012328D01*
X146951189Y-34964582D01*
X146923851Y-34961889D01*
X146968671Y-34907275D01*
X147047850Y-34759142D01*
X147096608Y-34598408D01*
X147113072Y-34431250D01*
X147113072Y-33993750D01*
X147096608Y-33826592D01*
X147047850Y-33665858D01*
X146968671Y-33517725D01*
X146862115Y-33387885D01*
X146732275Y-33281329D01*
X146584142Y-33202150D01*
X146423408Y-33153392D01*
X146256250Y-33136928D01*
X145743750Y-33136928D01*
X145576592Y-33153392D01*
X145415858Y-33202150D01*
X145267725Y-33281329D01*
X145150539Y-33377500D01*
X145061643Y-33377500D01*
X144940608Y-33278169D01*
X144795716Y-33200722D01*
X144638500Y-33153031D01*
X144475000Y-33136928D01*
X143925000Y-33136928D01*
X143761500Y-33153031D01*
X143604284Y-33200722D01*
X143459392Y-33278169D01*
X143332394Y-33382394D01*
X143228169Y-33509392D01*
X143150722Y-33654284D01*
X143103031Y-33811500D01*
X143086928Y-33975000D01*
X143086928Y-34375000D01*
X143103031Y-34538500D01*
X143150722Y-34695716D01*
X143228169Y-34840608D01*
X143311863Y-34942590D01*
X143273815Y-34973815D01*
X143194463Y-35070506D01*
X143135498Y-35180820D01*
X143099188Y-35300518D01*
X143086928Y-35425000D01*
X143090000Y-35539250D01*
X143248750Y-35698000D01*
X144073000Y-35698000D01*
X144073000Y-35678000D01*
X144327000Y-35678000D01*
X144327000Y-35698000D01*
X144347000Y-35698000D01*
X144347000Y-35952000D01*
X144327000Y-35952000D01*
X144327000Y-36701250D01*
X144485750Y-36860000D01*
X144675000Y-36863072D01*
X144799482Y-36850812D01*
X144919180Y-36814502D01*
X145029494Y-36755537D01*
X145126185Y-36676185D01*
X145162313Y-36632163D01*
X145267725Y-36718671D01*
X145415858Y-36797850D01*
X145576592Y-36846608D01*
X145743750Y-36863072D01*
X146256250Y-36863072D01*
X146423408Y-36846608D01*
X146584142Y-36797850D01*
X146605543Y-36786411D01*
X147031061Y-37211928D01*
X145000000Y-37211928D01*
X144875518Y-37224188D01*
X144755820Y-37260498D01*
X144645506Y-37319463D01*
X144548815Y-37398815D01*
X144533263Y-37417766D01*
X144501898Y-37404774D01*
X144301939Y-37365000D01*
X144098061Y-37365000D01*
X143898102Y-37404774D01*
X143709744Y-37482795D01*
X143540226Y-37596063D01*
X143396063Y-37740226D01*
X143282795Y-37909744D01*
X143204774Y-38098102D01*
X143165000Y-38298061D01*
X143165000Y-38501939D01*
X143204774Y-38701898D01*
X143282795Y-38890256D01*
X143396063Y-39059774D01*
X143540226Y-39203937D01*
X143709744Y-39317205D01*
X143898102Y-39395226D01*
X143922103Y-39400000D01*
X143898102Y-39404774D01*
X143709744Y-39482795D01*
X143540226Y-39596063D01*
X143396063Y-39740226D01*
X143282795Y-39909744D01*
X143204774Y-40098102D01*
X143165000Y-40298061D01*
X143165000Y-40501939D01*
X143204774Y-40701898D01*
X143282795Y-40890256D01*
X143396063Y-41059774D01*
X143540226Y-41203937D01*
X143709744Y-41317205D01*
X143898102Y-41395226D01*
X144098061Y-41435000D01*
X144301939Y-41435000D01*
X144501898Y-41395226D01*
X144533263Y-41382234D01*
X144547842Y-41400000D01*
X144469463Y-41495506D01*
X144410498Y-41605820D01*
X144374188Y-41725518D01*
X144361928Y-41850000D01*
X144361928Y-42950000D01*
X144374188Y-43074482D01*
X144410498Y-43194180D01*
X144469463Y-43304494D01*
X144547842Y-43400000D01*
X144469463Y-43495506D01*
X144410498Y-43605820D01*
X144374188Y-43725518D01*
X144361928Y-43850000D01*
X144361928Y-44950000D01*
X144374188Y-45074482D01*
X144410498Y-45194180D01*
X144469463Y-45304494D01*
X144547842Y-45400000D01*
X144533263Y-45417766D01*
X144501898Y-45404774D01*
X144301939Y-45365000D01*
X144098061Y-45365000D01*
X143898102Y-45404774D01*
X143709744Y-45482795D01*
X143540226Y-45596063D01*
X143396063Y-45740226D01*
X143282795Y-45909744D01*
X143204774Y-46098102D01*
X143165000Y-46298061D01*
X143165000Y-46501939D01*
X143180658Y-46580658D01*
X143101939Y-46565000D01*
X142898061Y-46565000D01*
X142698102Y-46604774D01*
X142509744Y-46682795D01*
X142340226Y-46796063D01*
X142196063Y-46940226D01*
X142082795Y-47109744D01*
X142004774Y-47298102D01*
X141975908Y-47443225D01*
X137854133Y-51565000D01*
X132767683Y-51565000D01*
X132730537Y-51495506D01*
X132652158Y-51400000D01*
X132730537Y-51304494D01*
X132789502Y-51194180D01*
X132825812Y-51074482D01*
X132838072Y-50950000D01*
X132838072Y-49850000D01*
X132825812Y-49725518D01*
X132789502Y-49605820D01*
X132730537Y-49495506D01*
X132652158Y-49400000D01*
X132730537Y-49304494D01*
X132789502Y-49194180D01*
X132825812Y-49074482D01*
X132838072Y-48950000D01*
X132838072Y-47850000D01*
X132825812Y-47725518D01*
X132789502Y-47605820D01*
X132730537Y-47495506D01*
X132652158Y-47400000D01*
X132730537Y-47304494D01*
X132789502Y-47194180D01*
X132825812Y-47074482D01*
X132838072Y-46950000D01*
X132838072Y-45850000D01*
X132825812Y-45725518D01*
X132789502Y-45605820D01*
X132730537Y-45495506D01*
X132652158Y-45400000D01*
X132730537Y-45304494D01*
X132789502Y-45194180D01*
X132825812Y-45074482D01*
X132838072Y-44950000D01*
X132838072Y-43850000D01*
X132825812Y-43725518D01*
X132789502Y-43605820D01*
X132730537Y-43495506D01*
X132652158Y-43400000D01*
X132730537Y-43304494D01*
X132789502Y-43194180D01*
X132825812Y-43074482D01*
X132838072Y-42950000D01*
X132838072Y-41850000D01*
X132825812Y-41725518D01*
X132789502Y-41605820D01*
X132730537Y-41495506D01*
X132652158Y-41400000D01*
X132666737Y-41382234D01*
X132698102Y-41395226D01*
X132898061Y-41435000D01*
X133101939Y-41435000D01*
X133301898Y-41395226D01*
X133490256Y-41317205D01*
X133659774Y-41203937D01*
X133803937Y-41059774D01*
X133917205Y-40890256D01*
X133995226Y-40701898D01*
X134035000Y-40501939D01*
X134035000Y-40298061D01*
X133995226Y-40098102D01*
X133917205Y-39909744D01*
X133803937Y-39740226D01*
X133659774Y-39596063D01*
X133490256Y-39482795D01*
X133301898Y-39404774D01*
X133277897Y-39400000D01*
X133301898Y-39395226D01*
X133490256Y-39317205D01*
X133659774Y-39203937D01*
X133803937Y-39059774D01*
X133917205Y-38890256D01*
X133995226Y-38701898D01*
X134035000Y-38501939D01*
X134035000Y-38298061D01*
X133995226Y-38098102D01*
X133917205Y-37909744D01*
X133803937Y-37740226D01*
X133659774Y-37596063D01*
X133490256Y-37482795D01*
X133301898Y-37404774D01*
X133101939Y-37365000D01*
X132898061Y-37365000D01*
X132698102Y-37404774D01*
X132666737Y-37417766D01*
X132651185Y-37398815D01*
X132554494Y-37319463D01*
X132444180Y-37260498D01*
X132324482Y-37224188D01*
X132200000Y-37211928D01*
X129600000Y-37211928D01*
X129475518Y-37224188D01*
X129355820Y-37260498D01*
X129259336Y-37312070D01*
X129246488Y-37181623D01*
X129197375Y-37019717D01*
X129117618Y-36870503D01*
X129010284Y-36739716D01*
X128879497Y-36632382D01*
X128730283Y-36552625D01*
X128568377Y-36503512D01*
X128400000Y-36486928D01*
X127950000Y-36486928D01*
X127781623Y-36503512D01*
X127619717Y-36552625D01*
X127473649Y-36630700D01*
X127429494Y-36594463D01*
X127319180Y-36535498D01*
X127199482Y-36499188D01*
X127075000Y-36486928D01*
X126910750Y-36490000D01*
X126752000Y-36648750D01*
X126752000Y-37473000D01*
X126772000Y-37473000D01*
X126772000Y-37727000D01*
X126752000Y-37727000D01*
X126752000Y-37747000D01*
X126498000Y-37747000D01*
X126498000Y-37727000D01*
X126478000Y-37727000D01*
X126478000Y-37473000D01*
X126498000Y-37473000D01*
X126498000Y-36648750D01*
X126339250Y-36490000D01*
X126235000Y-36488050D01*
X126235000Y-36145867D01*
X127570869Y-34810000D01*
X129885485Y-34810000D01*
X129709744Y-34882795D01*
X129540226Y-34996063D01*
X129396063Y-35140226D01*
X129282795Y-35309744D01*
X129204774Y-35498102D01*
X129165000Y-35698061D01*
X129165000Y-35901939D01*
X129204774Y-36101898D01*
X129282795Y-36290256D01*
X129396063Y-36459774D01*
X129540226Y-36603937D01*
X129709744Y-36717205D01*
X129898102Y-36795226D01*
X130098061Y-36835000D01*
X130301939Y-36835000D01*
X130501898Y-36795226D01*
X130690256Y-36717205D01*
X130813285Y-36635000D01*
X130922044Y-36635000D01*
X130961500Y-36646969D01*
X131125000Y-36663072D01*
X131675000Y-36663072D01*
X131838500Y-36646969D01*
X131995716Y-36599278D01*
X132140608Y-36521831D01*
X132215949Y-36460000D01*
X132333982Y-36460000D01*
X132375000Y-36464040D01*
X132416018Y-36460000D01*
X132416019Y-36460000D01*
X132538689Y-36447918D01*
X132696087Y-36400172D01*
X132841146Y-36322636D01*
X132883262Y-36288072D01*
X133650000Y-36288072D01*
X133774482Y-36275812D01*
X133894180Y-36239502D01*
X134004494Y-36180537D01*
X134101185Y-36101185D01*
X134180537Y-36004494D01*
X134239502Y-35894180D01*
X134275812Y-35774482D01*
X134288072Y-35650000D01*
X136511928Y-35650000D01*
X136524188Y-35774482D01*
X136560498Y-35894180D01*
X136619463Y-36004494D01*
X136698815Y-36101185D01*
X136795506Y-36180537D01*
X136905820Y-36239502D01*
X137025518Y-36275812D01*
X137150000Y-36288072D01*
X137314250Y-36285000D01*
X137473000Y-36126250D01*
X137473000Y-34927000D01*
X137727000Y-34927000D01*
X137727000Y-36126250D01*
X137885750Y-36285000D01*
X138050000Y-36288072D01*
X138174482Y-36275812D01*
X138294180Y-36239502D01*
X138321310Y-36225000D01*
X143086928Y-36225000D01*
X143099188Y-36349482D01*
X143135498Y-36469180D01*
X143194463Y-36579494D01*
X143273815Y-36676185D01*
X143370506Y-36755537D01*
X143480820Y-36814502D01*
X143600518Y-36850812D01*
X143725000Y-36863072D01*
X143914250Y-36860000D01*
X144073000Y-36701250D01*
X144073000Y-35952000D01*
X143248750Y-35952000D01*
X143090000Y-36110750D01*
X143086928Y-36225000D01*
X138321310Y-36225000D01*
X138404494Y-36180537D01*
X138501185Y-36101185D01*
X138580537Y-36004494D01*
X138639502Y-35894180D01*
X138675812Y-35774482D01*
X138688072Y-35650000D01*
X138685000Y-35085750D01*
X138526250Y-34927000D01*
X137727000Y-34927000D01*
X137473000Y-34927000D01*
X136673750Y-34927000D01*
X136515000Y-35085750D01*
X136511928Y-35650000D01*
X134288072Y-35650000D01*
X134288072Y-33950000D01*
X136511928Y-33950000D01*
X136515000Y-34514250D01*
X136673750Y-34673000D01*
X137473000Y-34673000D01*
X137473000Y-33473750D01*
X137727000Y-33473750D01*
X137727000Y-34673000D01*
X138526250Y-34673000D01*
X138685000Y-34514250D01*
X138688072Y-33950000D01*
X138675812Y-33825518D01*
X138639502Y-33705820D01*
X138580537Y-33595506D01*
X138501185Y-33498815D01*
X138404494Y-33419463D01*
X138294180Y-33360498D01*
X138174482Y-33324188D01*
X138050000Y-33311928D01*
X137885750Y-33315000D01*
X137727000Y-33473750D01*
X137473000Y-33473750D01*
X137314250Y-33315000D01*
X137150000Y-33311928D01*
X137025518Y-33324188D01*
X136905820Y-33360498D01*
X136795506Y-33419463D01*
X136698815Y-33498815D01*
X136619463Y-33595506D01*
X136560498Y-33705820D01*
X136524188Y-33825518D01*
X136511928Y-33950000D01*
X134288072Y-33950000D01*
X134275812Y-33825518D01*
X134239502Y-33705820D01*
X134180537Y-33595506D01*
X134101185Y-33498815D01*
X134004494Y-33419463D01*
X133894180Y-33360498D01*
X133774482Y-33324188D01*
X133650000Y-33311928D01*
X132750000Y-33311928D01*
X132625518Y-33324188D01*
X132505820Y-33360498D01*
X132422853Y-33404846D01*
X132371831Y-33309392D01*
X132267606Y-33182394D01*
X132140608Y-33078169D01*
X131995716Y-33000722D01*
X131838500Y-32953031D01*
X131675000Y-32936928D01*
X131125000Y-32936928D01*
X130961500Y-32953031D01*
X130804284Y-33000722D01*
X130659392Y-33078169D01*
X130584051Y-33140000D01*
X127665132Y-33140000D01*
X128470133Y-32335000D01*
X132884556Y-32335000D01*
X132970506Y-32405537D01*
X133080820Y-32464502D01*
X133200518Y-32500812D01*
X133325000Y-32513072D01*
X134675000Y-32513072D01*
X134799482Y-32500812D01*
X134919180Y-32464502D01*
X135029494Y-32405537D01*
X135126185Y-32326185D01*
X135203119Y-32232441D01*
X135336371Y-32329473D01*
X135569472Y-32437238D01*
X135670600Y-32467910D01*
X135873000Y-32344224D01*
X135873000Y-31327000D01*
X135853000Y-31327000D01*
X135853000Y-31073000D01*
X135873000Y-31073000D01*
X135873000Y-31053000D01*
X136127000Y-31053000D01*
X136127000Y-31073000D01*
X136147000Y-31073000D01*
X136147000Y-31327000D01*
X136127000Y-31327000D01*
X136127000Y-32344224D01*
X136329400Y-32467910D01*
X136430528Y-32437238D01*
X136663629Y-32329473D01*
X136871227Y-32178303D01*
X136993319Y-32045940D01*
X137164923Y-32217544D01*
X137379482Y-32360907D01*
X137617887Y-32459658D01*
X137870976Y-32510000D01*
X138129024Y-32510000D01*
X138382113Y-32459658D01*
X138620518Y-32360907D01*
X138835077Y-32217544D01*
X139000000Y-32052621D01*
X139164923Y-32217544D01*
X139379482Y-32360907D01*
X139617887Y-32459658D01*
X139870976Y-32510000D01*
X140129024Y-32510000D01*
X140382113Y-32459658D01*
X140620518Y-32360907D01*
X140835077Y-32217544D01*
X141000000Y-32052621D01*
X141164923Y-32217544D01*
X141379482Y-32360907D01*
X141617887Y-32459658D01*
X141870976Y-32510000D01*
X142129024Y-32510000D01*
X142382113Y-32459658D01*
X142620518Y-32360907D01*
X142835077Y-32217544D01*
X143000000Y-32052621D01*
X143164923Y-32217544D01*
X143379482Y-32360907D01*
X143617887Y-32459658D01*
X143870976Y-32510000D01*
X144129024Y-32510000D01*
X144382113Y-32459658D01*
X144620518Y-32360907D01*
X144835077Y-32217544D01*
X145017544Y-32035077D01*
X145160907Y-31820518D01*
X145259658Y-31582113D01*
X145310000Y-31329024D01*
X145310000Y-31070976D01*
X145259658Y-30817887D01*
X145160907Y-30579482D01*
X145017544Y-30364923D01*
X145012621Y-30360000D01*
X157340001Y-30360000D01*
X157340000Y-77073000D01*
G37*
%TD.AperFunction*%
D28*
X127193551Y-30393551D02*
X127158013Y-30436854D01*
X123436865Y-34158004D01*
X123393551Y-34193551D01*
X123251716Y-34366377D01*
X123146325Y-34563553D01*
X123146324Y-34563554D01*
X123081423Y-34777502D01*
X123059509Y-35000000D01*
X123065000Y-35055751D01*
X123065001Y-62944226D01*
X123059509Y-62999988D01*
X123081423Y-63222486D01*
X123146324Y-63436434D01*
X123162205Y-63466145D01*
X123251717Y-63633611D01*
X123393552Y-63806437D01*
X123436860Y-63841979D01*
X126436856Y-66841977D01*
X126566377Y-66948272D01*
X126763553Y-67053664D01*
X126977501Y-67118565D01*
X127200000Y-67140479D01*
X127422499Y-67118565D01*
X127636447Y-67053664D01*
X127833623Y-66948272D01*
X128006449Y-66806437D01*
X128148284Y-66633611D01*
X128253676Y-66436435D01*
X128318577Y-66222487D01*
X128340491Y-65999988D01*
X128318577Y-65777489D01*
X128253676Y-65563541D01*
X128148284Y-65366365D01*
X128041989Y-65236844D01*
X125335000Y-62529857D01*
X125335000Y-39165868D01*
X125511928Y-39342796D01*
X125511928Y-39475000D01*
X125528031Y-39638500D01*
X125575722Y-39795716D01*
X125653169Y-39940608D01*
X125715000Y-40015949D01*
X125715001Y-41614513D01*
X125678169Y-41659392D01*
X125600722Y-41804284D01*
X125553031Y-41961500D01*
X125536928Y-42125000D01*
X125536928Y-42675000D01*
X125553031Y-42838500D01*
X125600722Y-42995716D01*
X125678169Y-43140608D01*
X125740000Y-43215949D01*
X125740001Y-50133971D01*
X125735960Y-50175000D01*
X125752082Y-50338688D01*
X125799828Y-50496086D01*
X125877364Y-50641145D01*
X125877365Y-50641146D01*
X125981710Y-50768291D01*
X126013574Y-50794441D01*
X128180559Y-52961427D01*
X128206709Y-52993291D01*
X128333854Y-53097636D01*
X128478913Y-53175172D01*
X128636311Y-53222918D01*
X128799999Y-53239040D01*
X128841018Y-53235000D01*
X129032317Y-53235000D01*
X129069463Y-53304494D01*
X129148815Y-53401185D01*
X129245506Y-53480537D01*
X129355820Y-53539502D01*
X129475518Y-53575812D01*
X129600000Y-53588072D01*
X130482941Y-53588072D01*
X130665001Y-53770133D01*
X130665000Y-62811928D01*
X129900000Y-62811928D01*
X129775518Y-62824188D01*
X129655820Y-62860498D01*
X129545506Y-62919463D01*
X129448815Y-62998815D01*
X129369463Y-63095506D01*
X129310498Y-63205820D01*
X129274188Y-63325518D01*
X129261928Y-63450000D01*
X129261928Y-65450000D01*
X129274188Y-65574482D01*
X129310498Y-65694180D01*
X129369463Y-65804494D01*
X129448815Y-65901185D01*
X129545506Y-65980537D01*
X129655820Y-66039502D01*
X129775518Y-66075812D01*
X129900000Y-66088072D01*
X130665001Y-66088072D01*
X130665000Y-69244498D01*
X130650000Y-69256809D01*
X130604494Y-69219463D01*
X130494180Y-69160498D01*
X130374482Y-69124188D01*
X130250000Y-69111928D01*
X129785750Y-69115000D01*
X129627000Y-69273750D01*
X129627000Y-70623000D01*
X129647000Y-70623000D01*
X129647000Y-70877000D01*
X129627000Y-70877000D01*
X129627000Y-72226250D01*
X129785750Y-72385000D01*
X130250000Y-72388072D01*
X130374482Y-72375812D01*
X130494180Y-72339502D01*
X130604494Y-72280537D01*
X130650000Y-72243191D01*
X130695506Y-72280537D01*
X130805820Y-72339502D01*
X130925518Y-72375812D01*
X131050000Y-72388072D01*
X132550000Y-72388072D01*
X132674482Y-72375812D01*
X132794180Y-72339502D01*
X132904494Y-72280537D01*
X132950000Y-72243191D01*
X132995506Y-72280537D01*
X133105820Y-72339502D01*
X133225518Y-72375812D01*
X133265000Y-72379701D01*
X133265000Y-73255751D01*
X133281423Y-73422498D01*
X133346324Y-73636446D01*
X133451716Y-73833623D01*
X133593551Y-74006449D01*
X133766377Y-74148284D01*
X133963553Y-74253676D01*
X134177501Y-74318577D01*
X134400000Y-74340491D01*
X134622498Y-74318577D01*
X134836446Y-74253676D01*
X135033623Y-74148284D01*
X135206449Y-74006449D01*
X135290001Y-73904641D01*
X135290001Y-75071928D01*
X133875000Y-75071928D01*
X133750518Y-75084188D01*
X133630820Y-75120498D01*
X133520506Y-75179463D01*
X133423815Y-75258815D01*
X133344463Y-75355506D01*
X133285498Y-75465820D01*
X133249188Y-75585518D01*
X133236928Y-75710000D01*
X133236928Y-76810000D01*
X133249188Y-76934482D01*
X133285498Y-77054180D01*
X133295558Y-77073000D01*
X132360866Y-77073000D01*
X132363072Y-73400000D01*
X132350812Y-73275518D01*
X132314502Y-73155820D01*
X132255537Y-73045506D01*
X132176185Y-72948815D01*
X132079494Y-72869463D01*
X131969180Y-72810498D01*
X131849482Y-72774188D01*
X131725000Y-72761928D01*
X127310750Y-72765000D01*
X127152000Y-72923750D01*
X127152000Y-77073000D01*
X126898000Y-77073000D01*
X126898000Y-72923750D01*
X126739250Y-72765000D01*
X122325000Y-72761928D01*
X122200518Y-72774188D01*
X122080820Y-72810498D01*
X121970506Y-72869463D01*
X121873815Y-72948815D01*
X121794463Y-73045506D01*
X121735498Y-73155820D01*
X121699188Y-73275518D01*
X121686928Y-73400000D01*
X121689134Y-77073000D01*
X120660000Y-77073000D01*
X120660000Y-71750000D01*
X128111928Y-71750000D01*
X128124188Y-71874482D01*
X128160498Y-71994180D01*
X128219463Y-72104494D01*
X128298815Y-72201185D01*
X128395506Y-72280537D01*
X128505820Y-72339502D01*
X128625518Y-72375812D01*
X128750000Y-72388072D01*
X129214250Y-72385000D01*
X129373000Y-72226250D01*
X129373000Y-70877000D01*
X128273750Y-70877000D01*
X128115000Y-71035750D01*
X128111928Y-71750000D01*
X120660000Y-71750000D01*
X120660000Y-69750000D01*
X128111928Y-69750000D01*
X128115000Y-70464250D01*
X128273750Y-70623000D01*
X129373000Y-70623000D01*
X129373000Y-69273750D01*
X129214250Y-69115000D01*
X128750000Y-69111928D01*
X128625518Y-69124188D01*
X128505820Y-69160498D01*
X128395506Y-69219463D01*
X128298815Y-69298815D01*
X128219463Y-69395506D01*
X128160498Y-69505820D01*
X128124188Y-69625518D01*
X128111928Y-69750000D01*
X120660000Y-69750000D01*
X120660000Y-30360000D01*
X127234433Y-30360000D01*
X127193551Y-30393551D01*
%TA.AperFunction,Conductor*%
D29*
G36*
X127193551Y-30393551D02*
G01*
X127158013Y-30436854D01*
X123436865Y-34158004D01*
X123393551Y-34193551D01*
X123251716Y-34366377D01*
X123146325Y-34563553D01*
X123146324Y-34563554D01*
X123081423Y-34777502D01*
X123059509Y-35000000D01*
X123065000Y-35055751D01*
X123065001Y-62944226D01*
X123059509Y-62999988D01*
X123081423Y-63222486D01*
X123146324Y-63436434D01*
X123162205Y-63466145D01*
X123251717Y-63633611D01*
X123393552Y-63806437D01*
X123436860Y-63841979D01*
X126436856Y-66841977D01*
X126566377Y-66948272D01*
X126763553Y-67053664D01*
X126977501Y-67118565D01*
X127200000Y-67140479D01*
X127422499Y-67118565D01*
X127636447Y-67053664D01*
X127833623Y-66948272D01*
X128006449Y-66806437D01*
X128148284Y-66633611D01*
X128253676Y-66436435D01*
X128318577Y-66222487D01*
X128340491Y-65999988D01*
X128318577Y-65777489D01*
X128253676Y-65563541D01*
X128148284Y-65366365D01*
X128041989Y-65236844D01*
X125335000Y-62529857D01*
X125335000Y-39165868D01*
X125511928Y-39342796D01*
X125511928Y-39475000D01*
X125528031Y-39638500D01*
X125575722Y-39795716D01*
X125653169Y-39940608D01*
X125715000Y-40015949D01*
X125715001Y-41614513D01*
X125678169Y-41659392D01*
X125600722Y-41804284D01*
X125553031Y-41961500D01*
X125536928Y-42125000D01*
X125536928Y-42675000D01*
X125553031Y-42838500D01*
X125600722Y-42995716D01*
X125678169Y-43140608D01*
X125740000Y-43215949D01*
X125740001Y-50133971D01*
X125735960Y-50175000D01*
X125752082Y-50338688D01*
X125799828Y-50496086D01*
X125877364Y-50641145D01*
X125877365Y-50641146D01*
X125981710Y-50768291D01*
X126013574Y-50794441D01*
X128180559Y-52961427D01*
X128206709Y-52993291D01*
X128333854Y-53097636D01*
X128478913Y-53175172D01*
X128636311Y-53222918D01*
X128799999Y-53239040D01*
X128841018Y-53235000D01*
X129032317Y-53235000D01*
X129069463Y-53304494D01*
X129148815Y-53401185D01*
X129245506Y-53480537D01*
X129355820Y-53539502D01*
X129475518Y-53575812D01*
X129600000Y-53588072D01*
X130482941Y-53588072D01*
X130665001Y-53770133D01*
X130665000Y-62811928D01*
X129900000Y-62811928D01*
X129775518Y-62824188D01*
X129655820Y-62860498D01*
X129545506Y-62919463D01*
X129448815Y-62998815D01*
X129369463Y-63095506D01*
X129310498Y-63205820D01*
X129274188Y-63325518D01*
X129261928Y-63450000D01*
X129261928Y-65450000D01*
X129274188Y-65574482D01*
X129310498Y-65694180D01*
X129369463Y-65804494D01*
X129448815Y-65901185D01*
X129545506Y-65980537D01*
X129655820Y-66039502D01*
X129775518Y-66075812D01*
X129900000Y-66088072D01*
X130665001Y-66088072D01*
X130665000Y-69244498D01*
X130650000Y-69256809D01*
X130604494Y-69219463D01*
X130494180Y-69160498D01*
X130374482Y-69124188D01*
X130250000Y-69111928D01*
X129785750Y-69115000D01*
X129627000Y-69273750D01*
X129627000Y-70623000D01*
X129647000Y-70623000D01*
X129647000Y-70877000D01*
X129627000Y-70877000D01*
X129627000Y-72226250D01*
X129785750Y-72385000D01*
X130250000Y-72388072D01*
X130374482Y-72375812D01*
X130494180Y-72339502D01*
X130604494Y-72280537D01*
X130650000Y-72243191D01*
X130695506Y-72280537D01*
X130805820Y-72339502D01*
X130925518Y-72375812D01*
X131050000Y-72388072D01*
X132550000Y-72388072D01*
X132674482Y-72375812D01*
X132794180Y-72339502D01*
X132904494Y-72280537D01*
X132950000Y-72243191D01*
X132995506Y-72280537D01*
X133105820Y-72339502D01*
X133225518Y-72375812D01*
X133265000Y-72379701D01*
X133265000Y-73255751D01*
X133281423Y-73422498D01*
X133346324Y-73636446D01*
X133451716Y-73833623D01*
X133593551Y-74006449D01*
X133766377Y-74148284D01*
X133963553Y-74253676D01*
X134177501Y-74318577D01*
X134400000Y-74340491D01*
X134622498Y-74318577D01*
X134836446Y-74253676D01*
X135033623Y-74148284D01*
X135206449Y-74006449D01*
X135290001Y-73904641D01*
X135290001Y-75071928D01*
X133875000Y-75071928D01*
X133750518Y-75084188D01*
X133630820Y-75120498D01*
X133520506Y-75179463D01*
X133423815Y-75258815D01*
X133344463Y-75355506D01*
X133285498Y-75465820D01*
X133249188Y-75585518D01*
X133236928Y-75710000D01*
X133236928Y-76810000D01*
X133249188Y-76934482D01*
X133285498Y-77054180D01*
X133295558Y-77073000D01*
X132360866Y-77073000D01*
X132363072Y-73400000D01*
X132350812Y-73275518D01*
X132314502Y-73155820D01*
X132255537Y-73045506D01*
X132176185Y-72948815D01*
X132079494Y-72869463D01*
X131969180Y-72810498D01*
X131849482Y-72774188D01*
X131725000Y-72761928D01*
X127310750Y-72765000D01*
X127152000Y-72923750D01*
X127152000Y-77073000D01*
X126898000Y-77073000D01*
X126898000Y-72923750D01*
X126739250Y-72765000D01*
X122325000Y-72761928D01*
X122200518Y-72774188D01*
X122080820Y-72810498D01*
X121970506Y-72869463D01*
X121873815Y-72948815D01*
X121794463Y-73045506D01*
X121735498Y-73155820D01*
X121699188Y-73275518D01*
X121686928Y-73400000D01*
X121689134Y-77073000D01*
X120660000Y-77073000D01*
X120660000Y-71750000D01*
X128111928Y-71750000D01*
X128124188Y-71874482D01*
X128160498Y-71994180D01*
X128219463Y-72104494D01*
X128298815Y-72201185D01*
X128395506Y-72280537D01*
X128505820Y-72339502D01*
X128625518Y-72375812D01*
X128750000Y-72388072D01*
X129214250Y-72385000D01*
X129373000Y-72226250D01*
X129373000Y-70877000D01*
X128273750Y-70877000D01*
X128115000Y-71035750D01*
X128111928Y-71750000D01*
X120660000Y-71750000D01*
X120660000Y-69750000D01*
X128111928Y-69750000D01*
X128115000Y-70464250D01*
X128273750Y-70623000D01*
X129373000Y-70623000D01*
X129373000Y-69273750D01*
X129214250Y-69115000D01*
X128750000Y-69111928D01*
X128625518Y-69124188D01*
X128505820Y-69160498D01*
X128395506Y-69219463D01*
X128298815Y-69298815D01*
X128219463Y-69395506D01*
X128160498Y-69505820D01*
X128124188Y-69625518D01*
X128111928Y-69750000D01*
X120660000Y-69750000D01*
X120660000Y-30360000D01*
X127234433Y-30360000D01*
X127193551Y-30393551D01*
G37*
%TD.AperFunction*%
%TD*%
D30*
X146200000Y-53800000D03*
X124000000Y-32800000D03*
X133000000Y-38400000D03*
X134400000Y-73200000D03*
X127200000Y-65999988D03*
X136840000Y-78760000D03*
X144200000Y-38400000D03*
X144200000Y-40400000D03*
X144200000Y-46400000D03*
X143000000Y-47600000D03*
X148800014Y-48200000D03*
X133000000Y-40400000D03*
X130200000Y-35800000D03*
X140800000Y-60200000D03*
X144200000Y-49200000D03*
X145600000Y-60400000D03*
X149000000Y-44600000D03*
X150800000Y-95800000D03*
X148000000Y-66000000D03*
X153950000Y-67950000D03*
X154000000Y-80200000D03*
X141950000Y-80150000D03*
X141950000Y-67950000D03*
X144000000Y-31200000D03*
X142000000Y-31200000D03*
X140000000Y-31200000D03*
X138000000Y-31200000D03*
X136000000Y-31200000D03*
X134000000Y-31200000D03*
X131760000Y-116000000D03*
X147000000Y-116000000D03*
X136840000Y-116000000D03*
X141920000Y-116000000D03*
M02*
