%TF.GenerationSoftware,KiCad,Pcbnew,(5.1.8)-1*%
%TF.CreationDate,2022-05-15T10:40:37+08:00*%
%TF.ProjectId,smartkey-dc-pwm-60w,736d6172-746b-4657-992d-64632d70776d,rev?*%
%TF.SameCoordinates,Original*%
%TF.FileFunction,Soldermask,Top*%
%TF.FilePolarity,Negative*%
%FSLAX46Y46*%
G04 Gerber Fmt 4.6, Leading zero omitted, Abs format (unit mm)*
G04 Created by KiCad (PCBNEW (5.1.8)-1) date 2022-05-15 10:40:37*
%MOMM*%
%LPD*%
G01*
G04 APERTURE LIST*
%ADD10C,3.102000*%
%ADD11C,2.602000*%
%ADD12O,1.452000X1.452000*%
%ADD13C,0.254000*%
%ADD14C,0.350000*%
G04 APERTURE END LIST*
%TO.C,R9*%
G36*
G01*
X150149000Y-50700500D02*
X150149000Y-50099500D01*
G75*
G02*
X150374500Y-49874000I225500J0D01*
G01*
X150825500Y-49874000D01*
G75*
G02*
X151051000Y-50099500I0J-225500D01*
G01*
X151051000Y-50700500D01*
G75*
G02*
X150825500Y-50926000I-225500J0D01*
G01*
X150374500Y-50926000D01*
G75*
G02*
X150149000Y-50700500I0J225500D01*
G01*
G37*
G36*
G01*
X148499000Y-50700500D02*
X148499000Y-50099500D01*
G75*
G02*
X148724500Y-49874000I225500J0D01*
G01*
X149175500Y-49874000D01*
G75*
G02*
X149401000Y-50099500I0J-225500D01*
G01*
X149401000Y-50700500D01*
G75*
G02*
X149175500Y-50926000I-225500J0D01*
G01*
X148724500Y-50926000D01*
G75*
G02*
X148499000Y-50700500I0J225500D01*
G01*
G37*
%TD*%
%TO.C,R7*%
G36*
G01*
X151599000Y-94300500D02*
X151599000Y-93699500D01*
G75*
G02*
X151824500Y-93474000I225500J0D01*
G01*
X152275500Y-93474000D01*
G75*
G02*
X152501000Y-93699500I0J-225500D01*
G01*
X152501000Y-94300500D01*
G75*
G02*
X152275500Y-94526000I-225500J0D01*
G01*
X151824500Y-94526000D01*
G75*
G02*
X151599000Y-94300500I0J225500D01*
G01*
G37*
G36*
G01*
X149949000Y-94300500D02*
X149949000Y-93699500D01*
G75*
G02*
X150174500Y-93474000I225500J0D01*
G01*
X150625500Y-93474000D01*
G75*
G02*
X150851000Y-93699500I0J-225500D01*
G01*
X150851000Y-94300500D01*
G75*
G02*
X150625500Y-94526000I-225500J0D01*
G01*
X150174500Y-94526000D01*
G75*
G02*
X149949000Y-94300500I0J225500D01*
G01*
G37*
%TD*%
%TO.C,R8*%
G36*
G01*
X147626000Y-93699500D02*
X147626000Y-94300500D01*
G75*
G02*
X147400500Y-94526000I-225500J0D01*
G01*
X146949500Y-94526000D01*
G75*
G02*
X146724000Y-94300500I0J225500D01*
G01*
X146724000Y-93699500D01*
G75*
G02*
X146949500Y-93474000I225500J0D01*
G01*
X147400500Y-93474000D01*
G75*
G02*
X147626000Y-93699500I0J-225500D01*
G01*
G37*
G36*
G01*
X149276000Y-93699500D02*
X149276000Y-94300500D01*
G75*
G02*
X149050500Y-94526000I-225500J0D01*
G01*
X148599500Y-94526000D01*
G75*
G02*
X148374000Y-94300500I0J225500D01*
G01*
X148374000Y-93699500D01*
G75*
G02*
X148599500Y-93474000I225500J0D01*
G01*
X149050500Y-93474000D01*
G75*
G02*
X149276000Y-93699500I0J-225500D01*
G01*
G37*
%TD*%
%TO.C,U3*%
G36*
G01*
X130250000Y-71801000D02*
X128750000Y-71801000D01*
G75*
G02*
X128699000Y-71750000I0J51000D01*
G01*
X128699000Y-69750000D01*
G75*
G02*
X128750000Y-69699000I51000J0D01*
G01*
X130250000Y-69699000D01*
G75*
G02*
X130301000Y-69750000I0J-51000D01*
G01*
X130301000Y-71750000D01*
G75*
G02*
X130250000Y-71801000I-51000J0D01*
G01*
G37*
G36*
G01*
X134850000Y-71801000D02*
X133350000Y-71801000D01*
G75*
G02*
X133299000Y-71750000I0J51000D01*
G01*
X133299000Y-69750000D01*
G75*
G02*
X133350000Y-69699000I51000J0D01*
G01*
X134850000Y-69699000D01*
G75*
G02*
X134901000Y-69750000I0J-51000D01*
G01*
X134901000Y-71750000D01*
G75*
G02*
X134850000Y-71801000I-51000J0D01*
G01*
G37*
G36*
G01*
X132550000Y-71801000D02*
X131050000Y-71801000D01*
G75*
G02*
X130999000Y-71750000I0J51000D01*
G01*
X130999000Y-69750000D01*
G75*
G02*
X131050000Y-69699000I51000J0D01*
G01*
X132550000Y-69699000D01*
G75*
G02*
X132601000Y-69750000I0J-51000D01*
G01*
X132601000Y-71750000D01*
G75*
G02*
X132550000Y-71801000I-51000J0D01*
G01*
G37*
G36*
G01*
X133700000Y-65501000D02*
X129900000Y-65501000D01*
G75*
G02*
X129849000Y-65450000I0J51000D01*
G01*
X129849000Y-63450000D01*
G75*
G02*
X129900000Y-63399000I51000J0D01*
G01*
X133700000Y-63399000D01*
G75*
G02*
X133751000Y-63450000I0J-51000D01*
G01*
X133751000Y-65450000D01*
G75*
G02*
X133700000Y-65501000I-51000J0D01*
G01*
G37*
%TD*%
%TO.C,U2*%
G36*
G01*
X131776000Y-73400000D02*
X131776000Y-84200000D01*
G75*
G02*
X131725000Y-84251000I-51000J0D01*
G01*
X122325000Y-84251000D01*
G75*
G02*
X122274000Y-84200000I0J51000D01*
G01*
X122274000Y-73400000D01*
G75*
G02*
X122325000Y-73349000I51000J0D01*
G01*
X131725000Y-73349000D01*
G75*
G02*
X131776000Y-73400000I0J-51000D01*
G01*
G37*
G36*
G01*
X138526000Y-75710000D02*
X138526000Y-76810000D01*
G75*
G02*
X138475000Y-76861000I-51000J0D01*
G01*
X133875000Y-76861000D01*
G75*
G02*
X133824000Y-76810000I0J51000D01*
G01*
X133824000Y-75710000D01*
G75*
G02*
X133875000Y-75659000I51000J0D01*
G01*
X138475000Y-75659000D01*
G75*
G02*
X138526000Y-75710000I0J-51000D01*
G01*
G37*
G36*
G01*
X138526000Y-80790000D02*
X138526000Y-81890000D01*
G75*
G02*
X138475000Y-81941000I-51000J0D01*
G01*
X133875000Y-81941000D01*
G75*
G02*
X133824000Y-81890000I0J51000D01*
G01*
X133824000Y-80790000D01*
G75*
G02*
X133875000Y-80739000I51000J0D01*
G01*
X138475000Y-80739000D01*
G75*
G02*
X138526000Y-80790000I0J-51000D01*
G01*
G37*
%TD*%
%TO.C,C7*%
G36*
G01*
X137474000Y-64275500D02*
X137474000Y-63724500D01*
G75*
G02*
X137724500Y-63474000I250500J0D01*
G01*
X138225500Y-63474000D01*
G75*
G02*
X138476000Y-63724500I0J-250500D01*
G01*
X138476000Y-64275500D01*
G75*
G02*
X138225500Y-64526000I-250500J0D01*
G01*
X137724500Y-64526000D01*
G75*
G02*
X137474000Y-64275500I0J250500D01*
G01*
G37*
G36*
G01*
X135924000Y-64275500D02*
X135924000Y-63724500D01*
G75*
G02*
X136174500Y-63474000I250500J0D01*
G01*
X136675500Y-63474000D01*
G75*
G02*
X136926000Y-63724500I0J-250500D01*
G01*
X136926000Y-64275500D01*
G75*
G02*
X136675500Y-64526000I-250500J0D01*
G01*
X136174500Y-64526000D01*
G75*
G02*
X135924000Y-64275500I0J250500D01*
G01*
G37*
%TD*%
%TO.C,C6*%
G36*
G01*
X137474000Y-65875500D02*
X137474000Y-65324500D01*
G75*
G02*
X137724500Y-65074000I250500J0D01*
G01*
X138225500Y-65074000D01*
G75*
G02*
X138476000Y-65324500I0J-250500D01*
G01*
X138476000Y-65875500D01*
G75*
G02*
X138225500Y-66126000I-250500J0D01*
G01*
X137724500Y-66126000D01*
G75*
G02*
X137474000Y-65875500I0J250500D01*
G01*
G37*
G36*
G01*
X135924000Y-65875500D02*
X135924000Y-65324500D01*
G75*
G02*
X136174500Y-65074000I250500J0D01*
G01*
X136675500Y-65074000D01*
G75*
G02*
X136926000Y-65324500I0J-250500D01*
G01*
X136926000Y-65875500D01*
G75*
G02*
X136675500Y-66126000I-250500J0D01*
G01*
X136174500Y-66126000D01*
G75*
G02*
X135924000Y-65875500I0J250500D01*
G01*
G37*
%TD*%
%TO.C,C5*%
G36*
G01*
X137474000Y-68275500D02*
X137474000Y-67724500D01*
G75*
G02*
X137724500Y-67474000I250500J0D01*
G01*
X138225500Y-67474000D01*
G75*
G02*
X138476000Y-67724500I0J-250500D01*
G01*
X138476000Y-68275500D01*
G75*
G02*
X138225500Y-68526000I-250500J0D01*
G01*
X137724500Y-68526000D01*
G75*
G02*
X137474000Y-68275500I0J250500D01*
G01*
G37*
G36*
G01*
X135924000Y-68275500D02*
X135924000Y-67724500D01*
G75*
G02*
X136174500Y-67474000I250500J0D01*
G01*
X136675500Y-67474000D01*
G75*
G02*
X136926000Y-67724500I0J-250500D01*
G01*
X136926000Y-68275500D01*
G75*
G02*
X136675500Y-68526000I-250500J0D01*
G01*
X136174500Y-68526000D01*
G75*
G02*
X135924000Y-68275500I0J250500D01*
G01*
G37*
%TD*%
%TO.C,C4*%
G36*
G01*
X137474000Y-69875500D02*
X137474000Y-69324500D01*
G75*
G02*
X137724500Y-69074000I250500J0D01*
G01*
X138225500Y-69074000D01*
G75*
G02*
X138476000Y-69324500I0J-250500D01*
G01*
X138476000Y-69875500D01*
G75*
G02*
X138225500Y-70126000I-250500J0D01*
G01*
X137724500Y-70126000D01*
G75*
G02*
X137474000Y-69875500I0J250500D01*
G01*
G37*
G36*
G01*
X135924000Y-69875500D02*
X135924000Y-69324500D01*
G75*
G02*
X136174500Y-69074000I250500J0D01*
G01*
X136675500Y-69074000D01*
G75*
G02*
X136926000Y-69324500I0J-250500D01*
G01*
X136926000Y-69875500D01*
G75*
G02*
X136675500Y-70126000I-250500J0D01*
G01*
X136174500Y-70126000D01*
G75*
G02*
X135924000Y-69875500I0J250500D01*
G01*
G37*
%TD*%
%TO.C,C3*%
G36*
G01*
X137474000Y-71475500D02*
X137474000Y-70924500D01*
G75*
G02*
X137724500Y-70674000I250500J0D01*
G01*
X138225500Y-70674000D01*
G75*
G02*
X138476000Y-70924500I0J-250500D01*
G01*
X138476000Y-71475500D01*
G75*
G02*
X138225500Y-71726000I-250500J0D01*
G01*
X137724500Y-71726000D01*
G75*
G02*
X137474000Y-71475500I0J250500D01*
G01*
G37*
G36*
G01*
X135924000Y-71475500D02*
X135924000Y-70924500D01*
G75*
G02*
X136174500Y-70674000I250500J0D01*
G01*
X136675500Y-70674000D01*
G75*
G02*
X136926000Y-70924500I0J-250500D01*
G01*
X136926000Y-71475500D01*
G75*
G02*
X136675500Y-71726000I-250500J0D01*
G01*
X136174500Y-71726000D01*
G75*
G02*
X135924000Y-71475500I0J250500D01*
G01*
G37*
%TD*%
%TO.C,C2*%
G36*
G01*
X135151000Y-86614937D02*
X135151000Y-87785063D01*
G75*
G02*
X134885063Y-88051000I-265937J0D01*
G01*
X132714937Y-88051000D01*
G75*
G02*
X132449000Y-87785063I0J265937D01*
G01*
X132449000Y-86614937D01*
G75*
G02*
X132714937Y-86349000I265937J0D01*
G01*
X134885063Y-86349000D01*
G75*
G02*
X135151000Y-86614937I0J-265937D01*
G01*
G37*
G36*
G01*
X138751000Y-86614937D02*
X138751000Y-87785063D01*
G75*
G02*
X138485063Y-88051000I-265937J0D01*
G01*
X136314937Y-88051000D01*
G75*
G02*
X136049000Y-87785063I0J265937D01*
G01*
X136049000Y-86614937D01*
G75*
G02*
X136314937Y-86349000I265937J0D01*
G01*
X138485063Y-86349000D01*
G75*
G02*
X138751000Y-86614937I0J-265937D01*
G01*
G37*
%TD*%
%TO.C,SW1*%
G36*
G01*
X133701000Y-33950000D02*
X133701000Y-35650000D01*
G75*
G02*
X133650000Y-35701000I-51000J0D01*
G01*
X132750000Y-35701000D01*
G75*
G02*
X132699000Y-35650000I0J51000D01*
G01*
X132699000Y-33950000D01*
G75*
G02*
X132750000Y-33899000I51000J0D01*
G01*
X133650000Y-33899000D01*
G75*
G02*
X133701000Y-33950000I0J-51000D01*
G01*
G37*
G36*
G01*
X138101000Y-33950000D02*
X138101000Y-35650000D01*
G75*
G02*
X138050000Y-35701000I-51000J0D01*
G01*
X137150000Y-35701000D01*
G75*
G02*
X137099000Y-35650000I0J51000D01*
G01*
X137099000Y-33950000D01*
G75*
G02*
X137150000Y-33899000I51000J0D01*
G01*
X138050000Y-33899000D01*
G75*
G02*
X138101000Y-33950000I0J-51000D01*
G01*
G37*
%TD*%
%TO.C,Q2*%
G36*
G01*
X148351000Y-86499999D02*
X148351000Y-92300001D01*
G75*
G02*
X148300001Y-92351000I-50999J0D01*
G01*
X141899999Y-92351000D01*
G75*
G02*
X141849000Y-92300001I0J50999D01*
G01*
X141849000Y-86499999D01*
G75*
G02*
X141899999Y-86449000I50999J0D01*
G01*
X148300001Y-86449000D01*
G75*
G02*
X148351000Y-86499999I0J-50999D01*
G01*
G37*
G36*
G01*
X152551000Y-86519999D02*
X152551000Y-87720001D01*
G75*
G02*
X152500001Y-87771000I-50999J0D01*
G01*
X150299999Y-87771000D01*
G75*
G02*
X150249000Y-87720001I0J50999D01*
G01*
X150249000Y-86519999D01*
G75*
G02*
X150299999Y-86469000I50999J0D01*
G01*
X152500001Y-86469000D01*
G75*
G02*
X152551000Y-86519999I0J-50999D01*
G01*
G37*
G36*
G01*
X152551000Y-91079999D02*
X152551000Y-92280001D01*
G75*
G02*
X152500001Y-92331000I-50999J0D01*
G01*
X150299999Y-92331000D01*
G75*
G02*
X150249000Y-92280001I0J50999D01*
G01*
X150249000Y-91079999D01*
G75*
G02*
X150299999Y-91029000I50999J0D01*
G01*
X152500001Y-91029000D01*
G75*
G02*
X152551000Y-91079999I0J-50999D01*
G01*
G37*
%TD*%
%TO.C,U1*%
G36*
G01*
X144949000Y-38950000D02*
X144949000Y-37850000D01*
G75*
G02*
X145000000Y-37799000I51000J0D01*
G01*
X147600000Y-37799000D01*
G75*
G02*
X147651000Y-37850000I0J-51000D01*
G01*
X147651000Y-38950000D01*
G75*
G02*
X147600000Y-39001000I-51000J0D01*
G01*
X145000000Y-39001000D01*
G75*
G02*
X144949000Y-38950000I0J51000D01*
G01*
G37*
G36*
G01*
X144949000Y-40950000D02*
X144949000Y-39850000D01*
G75*
G02*
X145000000Y-39799000I51000J0D01*
G01*
X147600000Y-39799000D01*
G75*
G02*
X147651000Y-39850000I0J-51000D01*
G01*
X147651000Y-40950000D01*
G75*
G02*
X147600000Y-41001000I-51000J0D01*
G01*
X145000000Y-41001000D01*
G75*
G02*
X144949000Y-40950000I0J51000D01*
G01*
G37*
G36*
G01*
X144949000Y-42950000D02*
X144949000Y-41850000D01*
G75*
G02*
X145000000Y-41799000I51000J0D01*
G01*
X147600000Y-41799000D01*
G75*
G02*
X147651000Y-41850000I0J-51000D01*
G01*
X147651000Y-42950000D01*
G75*
G02*
X147600000Y-43001000I-51000J0D01*
G01*
X145000000Y-43001000D01*
G75*
G02*
X144949000Y-42950000I0J51000D01*
G01*
G37*
G36*
G01*
X144949000Y-44950000D02*
X144949000Y-43850000D01*
G75*
G02*
X145000000Y-43799000I51000J0D01*
G01*
X147600000Y-43799000D01*
G75*
G02*
X147651000Y-43850000I0J-51000D01*
G01*
X147651000Y-44950000D01*
G75*
G02*
X147600000Y-45001000I-51000J0D01*
G01*
X145000000Y-45001000D01*
G75*
G02*
X144949000Y-44950000I0J51000D01*
G01*
G37*
G36*
G01*
X144949000Y-46950000D02*
X144949000Y-45850000D01*
G75*
G02*
X145000000Y-45799000I51000J0D01*
G01*
X147600000Y-45799000D01*
G75*
G02*
X147651000Y-45850000I0J-51000D01*
G01*
X147651000Y-46950000D01*
G75*
G02*
X147600000Y-47001000I-51000J0D01*
G01*
X145000000Y-47001000D01*
G75*
G02*
X144949000Y-46950000I0J51000D01*
G01*
G37*
G36*
G01*
X144949000Y-48950000D02*
X144949000Y-47850000D01*
G75*
G02*
X145000000Y-47799000I51000J0D01*
G01*
X147600000Y-47799000D01*
G75*
G02*
X147651000Y-47850000I0J-51000D01*
G01*
X147651000Y-48950000D01*
G75*
G02*
X147600000Y-49001000I-51000J0D01*
G01*
X145000000Y-49001000D01*
G75*
G02*
X144949000Y-48950000I0J51000D01*
G01*
G37*
G36*
G01*
X144949000Y-50950000D02*
X144949000Y-49850000D01*
G75*
G02*
X145000000Y-49799000I51000J0D01*
G01*
X147600000Y-49799000D01*
G75*
G02*
X147651000Y-49850000I0J-51000D01*
G01*
X147651000Y-50950000D01*
G75*
G02*
X147600000Y-51001000I-51000J0D01*
G01*
X145000000Y-51001000D01*
G75*
G02*
X144949000Y-50950000I0J51000D01*
G01*
G37*
G36*
G01*
X144949000Y-52950000D02*
X144949000Y-51850000D01*
G75*
G02*
X145000000Y-51799000I51000J0D01*
G01*
X147600000Y-51799000D01*
G75*
G02*
X147651000Y-51850000I0J-51000D01*
G01*
X147651000Y-52950000D01*
G75*
G02*
X147600000Y-53001000I-51000J0D01*
G01*
X145000000Y-53001000D01*
G75*
G02*
X144949000Y-52950000I0J51000D01*
G01*
G37*
G36*
G01*
X129549000Y-52950000D02*
X129549000Y-51850000D01*
G75*
G02*
X129600000Y-51799000I51000J0D01*
G01*
X132200000Y-51799000D01*
G75*
G02*
X132251000Y-51850000I0J-51000D01*
G01*
X132251000Y-52950000D01*
G75*
G02*
X132200000Y-53001000I-51000J0D01*
G01*
X129600000Y-53001000D01*
G75*
G02*
X129549000Y-52950000I0J51000D01*
G01*
G37*
G36*
G01*
X129549000Y-50950000D02*
X129549000Y-49850000D01*
G75*
G02*
X129600000Y-49799000I51000J0D01*
G01*
X132200000Y-49799000D01*
G75*
G02*
X132251000Y-49850000I0J-51000D01*
G01*
X132251000Y-50950000D01*
G75*
G02*
X132200000Y-51001000I-51000J0D01*
G01*
X129600000Y-51001000D01*
G75*
G02*
X129549000Y-50950000I0J51000D01*
G01*
G37*
G36*
G01*
X129549000Y-48950000D02*
X129549000Y-47850000D01*
G75*
G02*
X129600000Y-47799000I51000J0D01*
G01*
X132200000Y-47799000D01*
G75*
G02*
X132251000Y-47850000I0J-51000D01*
G01*
X132251000Y-48950000D01*
G75*
G02*
X132200000Y-49001000I-51000J0D01*
G01*
X129600000Y-49001000D01*
G75*
G02*
X129549000Y-48950000I0J51000D01*
G01*
G37*
G36*
G01*
X129549000Y-46950000D02*
X129549000Y-45850000D01*
G75*
G02*
X129600000Y-45799000I51000J0D01*
G01*
X132200000Y-45799000D01*
G75*
G02*
X132251000Y-45850000I0J-51000D01*
G01*
X132251000Y-46950000D01*
G75*
G02*
X132200000Y-47001000I-51000J0D01*
G01*
X129600000Y-47001000D01*
G75*
G02*
X129549000Y-46950000I0J51000D01*
G01*
G37*
G36*
G01*
X129549000Y-44950000D02*
X129549000Y-43850000D01*
G75*
G02*
X129600000Y-43799000I51000J0D01*
G01*
X132200000Y-43799000D01*
G75*
G02*
X132251000Y-43850000I0J-51000D01*
G01*
X132251000Y-44950000D01*
G75*
G02*
X132200000Y-45001000I-51000J0D01*
G01*
X129600000Y-45001000D01*
G75*
G02*
X129549000Y-44950000I0J51000D01*
G01*
G37*
G36*
G01*
X129549000Y-42950000D02*
X129549000Y-41850000D01*
G75*
G02*
X129600000Y-41799000I51000J0D01*
G01*
X132200000Y-41799000D01*
G75*
G02*
X132251000Y-41850000I0J-51000D01*
G01*
X132251000Y-42950000D01*
G75*
G02*
X132200000Y-43001000I-51000J0D01*
G01*
X129600000Y-43001000D01*
G75*
G02*
X129549000Y-42950000I0J51000D01*
G01*
G37*
G36*
G01*
X129549000Y-40950000D02*
X129549000Y-39850000D01*
G75*
G02*
X129600000Y-39799000I51000J0D01*
G01*
X132200000Y-39799000D01*
G75*
G02*
X132251000Y-39850000I0J-51000D01*
G01*
X132251000Y-40950000D01*
G75*
G02*
X132200000Y-41001000I-51000J0D01*
G01*
X129600000Y-41001000D01*
G75*
G02*
X129549000Y-40950000I0J51000D01*
G01*
G37*
G36*
G01*
X129549000Y-38950000D02*
X129549000Y-37850000D01*
G75*
G02*
X129600000Y-37799000I51000J0D01*
G01*
X132200000Y-37799000D01*
G75*
G02*
X132251000Y-37850000I0J-51000D01*
G01*
X132251000Y-38950000D01*
G75*
G02*
X132200000Y-39001000I-51000J0D01*
G01*
X129600000Y-39001000D01*
G75*
G02*
X129549000Y-38950000I0J51000D01*
G01*
G37*
%TD*%
%TO.C,R6*%
G36*
G01*
X144500500Y-34626000D02*
X143899500Y-34626000D01*
G75*
G02*
X143674000Y-34400500I0J225500D01*
G01*
X143674000Y-33949500D01*
G75*
G02*
X143899500Y-33724000I225500J0D01*
G01*
X144500500Y-33724000D01*
G75*
G02*
X144726000Y-33949500I0J-225500D01*
G01*
X144726000Y-34400500D01*
G75*
G02*
X144500500Y-34626000I-225500J0D01*
G01*
G37*
G36*
G01*
X144500500Y-36276000D02*
X143899500Y-36276000D01*
G75*
G02*
X143674000Y-36050500I0J225500D01*
G01*
X143674000Y-35599500D01*
G75*
G02*
X143899500Y-35374000I225500J0D01*
G01*
X144500500Y-35374000D01*
G75*
G02*
X144726000Y-35599500I0J-225500D01*
G01*
X144726000Y-36050500D01*
G75*
G02*
X144500500Y-36276000I-225500J0D01*
G01*
G37*
%TD*%
%TO.C,R5*%
G36*
G01*
X141100500Y-61826000D02*
X140499500Y-61826000D01*
G75*
G02*
X140274000Y-61600500I0J225500D01*
G01*
X140274000Y-61149500D01*
G75*
G02*
X140499500Y-60924000I225500J0D01*
G01*
X141100500Y-60924000D01*
G75*
G02*
X141326000Y-61149500I0J-225500D01*
G01*
X141326000Y-61600500D01*
G75*
G02*
X141100500Y-61826000I-225500J0D01*
G01*
G37*
G36*
G01*
X141100500Y-63476000D02*
X140499500Y-63476000D01*
G75*
G02*
X140274000Y-63250500I0J225500D01*
G01*
X140274000Y-62799500D01*
G75*
G02*
X140499500Y-62574000I225500J0D01*
G01*
X141100500Y-62574000D01*
G75*
G02*
X141326000Y-62799500I0J-225500D01*
G01*
X141326000Y-63250500D01*
G75*
G02*
X141100500Y-63476000I-225500J0D01*
G01*
G37*
%TD*%
%TO.C,R4*%
G36*
G01*
X131099500Y-35174000D02*
X131700500Y-35174000D01*
G75*
G02*
X131926000Y-35399500I0J-225500D01*
G01*
X131926000Y-35850500D01*
G75*
G02*
X131700500Y-36076000I-225500J0D01*
G01*
X131099500Y-36076000D01*
G75*
G02*
X130874000Y-35850500I0J225500D01*
G01*
X130874000Y-35399500D01*
G75*
G02*
X131099500Y-35174000I225500J0D01*
G01*
G37*
G36*
G01*
X131099500Y-33524000D02*
X131700500Y-33524000D01*
G75*
G02*
X131926000Y-33749500I0J-225500D01*
G01*
X131926000Y-34200500D01*
G75*
G02*
X131700500Y-34426000I-225500J0D01*
G01*
X131099500Y-34426000D01*
G75*
G02*
X130874000Y-34200500I0J225500D01*
G01*
X130874000Y-33749500D01*
G75*
G02*
X131099500Y-33524000I225500J0D01*
G01*
G37*
%TD*%
%TO.C,R3*%
G36*
G01*
X127774000Y-42700500D02*
X127774000Y-42099500D01*
G75*
G02*
X127999500Y-41874000I225500J0D01*
G01*
X128450500Y-41874000D01*
G75*
G02*
X128676000Y-42099500I0J-225500D01*
G01*
X128676000Y-42700500D01*
G75*
G02*
X128450500Y-42926000I-225500J0D01*
G01*
X127999500Y-42926000D01*
G75*
G02*
X127774000Y-42700500I0J225500D01*
G01*
G37*
G36*
G01*
X126124000Y-42700500D02*
X126124000Y-42099500D01*
G75*
G02*
X126349500Y-41874000I225500J0D01*
G01*
X126800500Y-41874000D01*
G75*
G02*
X127026000Y-42099500I0J-225500D01*
G01*
X127026000Y-42700500D01*
G75*
G02*
X126800500Y-42926000I-225500J0D01*
G01*
X126349500Y-42926000D01*
G75*
G02*
X126124000Y-42700500I0J225500D01*
G01*
G37*
%TD*%
%TO.C,R2*%
G36*
G01*
X149426000Y-46099500D02*
X149426000Y-46700500D01*
G75*
G02*
X149200500Y-46926000I-225500J0D01*
G01*
X148749500Y-46926000D01*
G75*
G02*
X148524000Y-46700500I0J225500D01*
G01*
X148524000Y-46099500D01*
G75*
G02*
X148749500Y-45874000I225500J0D01*
G01*
X149200500Y-45874000D01*
G75*
G02*
X149426000Y-46099500I0J-225500D01*
G01*
G37*
G36*
G01*
X151076000Y-46099500D02*
X151076000Y-46700500D01*
G75*
G02*
X150850500Y-46926000I-225500J0D01*
G01*
X150399500Y-46926000D01*
G75*
G02*
X150174000Y-46700500I0J225500D01*
G01*
X150174000Y-46099500D01*
G75*
G02*
X150399500Y-45874000I225500J0D01*
G01*
X150850500Y-45874000D01*
G75*
G02*
X151076000Y-46099500I0J-225500D01*
G01*
G37*
%TD*%
%TO.C,R1*%
G36*
G01*
X127749000Y-39500500D02*
X127749000Y-38899500D01*
G75*
G02*
X127974500Y-38674000I225500J0D01*
G01*
X128425500Y-38674000D01*
G75*
G02*
X128651000Y-38899500I0J-225500D01*
G01*
X128651000Y-39500500D01*
G75*
G02*
X128425500Y-39726000I-225500J0D01*
G01*
X127974500Y-39726000D01*
G75*
G02*
X127749000Y-39500500I0J225500D01*
G01*
G37*
G36*
G01*
X126099000Y-39500500D02*
X126099000Y-38899500D01*
G75*
G02*
X126324500Y-38674000I225500J0D01*
G01*
X126775500Y-38674000D01*
G75*
G02*
X127001000Y-38899500I0J-225500D01*
G01*
X127001000Y-39500500D01*
G75*
G02*
X126775500Y-39726000I-225500J0D01*
G01*
X126324500Y-39726000D01*
G75*
G02*
X126099000Y-39500500I0J225500D01*
G01*
G37*
%TD*%
%TO.C,Q1*%
G36*
G01*
X144000000Y-61501000D02*
X143200000Y-61501000D01*
G75*
G02*
X143149000Y-61450000I0J51000D01*
G01*
X143149000Y-60550000D01*
G75*
G02*
X143200000Y-60499000I51000J0D01*
G01*
X144000000Y-60499000D01*
G75*
G02*
X144051000Y-60550000I0J-51000D01*
G01*
X144051000Y-61450000D01*
G75*
G02*
X144000000Y-61501000I-51000J0D01*
G01*
G37*
G36*
G01*
X144950000Y-63501000D02*
X144150000Y-63501000D01*
G75*
G02*
X144099000Y-63450000I0J51000D01*
G01*
X144099000Y-62550000D01*
G75*
G02*
X144150000Y-62499000I51000J0D01*
G01*
X144950000Y-62499000D01*
G75*
G02*
X145001000Y-62550000I0J-51000D01*
G01*
X145001000Y-63450000D01*
G75*
G02*
X144950000Y-63501000I-51000J0D01*
G01*
G37*
G36*
G01*
X143050000Y-63501000D02*
X142250000Y-63501000D01*
G75*
G02*
X142199000Y-63450000I0J51000D01*
G01*
X142199000Y-62550000D01*
G75*
G02*
X142250000Y-62499000I51000J0D01*
G01*
X143050000Y-62499000D01*
G75*
G02*
X143101000Y-62550000I0J-51000D01*
G01*
X143101000Y-63450000D01*
G75*
G02*
X143050000Y-63501000I-51000J0D01*
G01*
G37*
%TD*%
D10*
%TO.C,K1*%
X148000000Y-66000000D03*
D11*
X153950000Y-67950000D03*
D10*
X154000000Y-80200000D03*
X141950000Y-80150000D03*
D11*
X141950000Y-67950000D03*
%TD*%
D12*
%TO.C,J4*%
X144000000Y-31200000D03*
X142000000Y-31200000D03*
X140000000Y-31200000D03*
X138000000Y-31200000D03*
X136000000Y-31200000D03*
G36*
G01*
X134675000Y-31926000D02*
X133325000Y-31926000D01*
G75*
G02*
X133274000Y-31875000I0J51000D01*
G01*
X133274000Y-30525000D01*
G75*
G02*
X133325000Y-30474000I51000J0D01*
G01*
X134675000Y-30474000D01*
G75*
G02*
X134726000Y-30525000I0J-51000D01*
G01*
X134726000Y-31875000D01*
G75*
G02*
X134675000Y-31926000I-51000J0D01*
G01*
G37*
%TD*%
D10*
%TO.C,J3*%
X131760000Y-116000000D03*
G36*
G01*
X148551000Y-114500000D02*
X148551000Y-117500000D01*
G75*
G02*
X148500000Y-117551000I-51000J0D01*
G01*
X145500000Y-117551000D01*
G75*
G02*
X145449000Y-117500000I0J51000D01*
G01*
X145449000Y-114500000D01*
G75*
G02*
X145500000Y-114449000I51000J0D01*
G01*
X148500000Y-114449000D01*
G75*
G02*
X148551000Y-114500000I0J-51000D01*
G01*
G37*
X136840000Y-116000000D03*
X141920000Y-116000000D03*
%TD*%
%TO.C,D4*%
G36*
G01*
X145718250Y-35299000D02*
X146281750Y-35299000D01*
G75*
G02*
X146526000Y-35543250I0J-244250D01*
G01*
X146526000Y-36031750D01*
G75*
G02*
X146281750Y-36276000I-244250J0D01*
G01*
X145718250Y-36276000D01*
G75*
G02*
X145474000Y-36031750I0J244250D01*
G01*
X145474000Y-35543250D01*
G75*
G02*
X145718250Y-35299000I244250J0D01*
G01*
G37*
G36*
G01*
X145718250Y-33724000D02*
X146281750Y-33724000D01*
G75*
G02*
X146526000Y-33968250I0J-244250D01*
G01*
X146526000Y-34456750D01*
G75*
G02*
X146281750Y-34701000I-244250J0D01*
G01*
X145718250Y-34701000D01*
G75*
G02*
X145474000Y-34456750I0J244250D01*
G01*
X145474000Y-33968250D01*
G75*
G02*
X145718250Y-33724000I244250J0D01*
G01*
G37*
%TD*%
%TO.C,D1*%
G36*
G01*
X146681750Y-61901000D02*
X146118250Y-61901000D01*
G75*
G02*
X145874000Y-61656750I0J244250D01*
G01*
X145874000Y-61168250D01*
G75*
G02*
X146118250Y-60924000I244250J0D01*
G01*
X146681750Y-60924000D01*
G75*
G02*
X146926000Y-61168250I0J-244250D01*
G01*
X146926000Y-61656750D01*
G75*
G02*
X146681750Y-61901000I-244250J0D01*
G01*
G37*
G36*
G01*
X146681750Y-63476000D02*
X146118250Y-63476000D01*
G75*
G02*
X145874000Y-63231750I0J244250D01*
G01*
X145874000Y-62743250D01*
G75*
G02*
X146118250Y-62499000I244250J0D01*
G01*
X146681750Y-62499000D01*
G75*
G02*
X146926000Y-62743250I0J-244250D01*
G01*
X146926000Y-63231750D01*
G75*
G02*
X146681750Y-63476000I-244250J0D01*
G01*
G37*
%TD*%
%TO.C,C1*%
G36*
G01*
X127126000Y-37324500D02*
X127126000Y-37875500D01*
G75*
G02*
X126875500Y-38126000I-250500J0D01*
G01*
X126374500Y-38126000D01*
G75*
G02*
X126124000Y-37875500I0J250500D01*
G01*
X126124000Y-37324500D01*
G75*
G02*
X126374500Y-37074000I250500J0D01*
G01*
X126875500Y-37074000D01*
G75*
G02*
X127126000Y-37324500I0J-250500D01*
G01*
G37*
G36*
G01*
X128676000Y-37324500D02*
X128676000Y-37875500D01*
G75*
G02*
X128425500Y-38126000I-250500J0D01*
G01*
X127924500Y-38126000D01*
G75*
G02*
X127674000Y-37875500I0J250500D01*
G01*
X127674000Y-37324500D01*
G75*
G02*
X127924500Y-37074000I250500J0D01*
G01*
X128425500Y-37074000D01*
G75*
G02*
X128676000Y-37324500I0J-250500D01*
G01*
G37*
%TD*%
D13*
X155973000Y-88852606D02*
X155973000Y-99247394D01*
X148010197Y-107210197D01*
X147994403Y-107229443D01*
X147982667Y-107251399D01*
X147975440Y-107275224D01*
X147973000Y-107300000D01*
X147973000Y-114373000D01*
X146027000Y-114373000D01*
X146027000Y-106452606D01*
X153989803Y-98489803D01*
X154005597Y-98470557D01*
X154017333Y-98448601D01*
X154024560Y-98424776D01*
X154027000Y-98400000D01*
X154027000Y-89700000D01*
X154024560Y-89675224D01*
X154017333Y-89651399D01*
X154005597Y-89629443D01*
X153992844Y-89613346D01*
X152592844Y-88113346D01*
X152574155Y-88096898D01*
X152552615Y-88084412D01*
X152529054Y-88076368D01*
X152500000Y-88073000D01*
X151527000Y-88073000D01*
X151527000Y-86127000D01*
X153247394Y-86127000D01*
X155973000Y-88852606D01*
D14*
G36*
X155973000Y-88852606D02*
G01*
X155973000Y-99247394D01*
X148010197Y-107210197D01*
X147994403Y-107229443D01*
X147982667Y-107251399D01*
X147975440Y-107275224D01*
X147973000Y-107300000D01*
X147973000Y-114373000D01*
X146027000Y-114373000D01*
X146027000Y-106452606D01*
X153989803Y-98489803D01*
X154005597Y-98470557D01*
X154017333Y-98448601D01*
X154024560Y-98424776D01*
X154027000Y-98400000D01*
X154027000Y-89700000D01*
X154024560Y-89675224D01*
X154017333Y-89651399D01*
X154005597Y-89629443D01*
X153992844Y-89613346D01*
X152592844Y-88113346D01*
X152574155Y-88096898D01*
X152552615Y-88084412D01*
X152529054Y-88076368D01*
X152500000Y-88073000D01*
X151527000Y-88073000D01*
X151527000Y-86127000D01*
X153247394Y-86127000D01*
X155973000Y-88852606D01*
G37*
D13*
X141780263Y-90340131D02*
X132710197Y-99410197D01*
X132694403Y-99429443D01*
X132682667Y-99451399D01*
X132675440Y-99475224D01*
X132673000Y-99500000D01*
X132673000Y-115173000D01*
X130827000Y-115173000D01*
X130827000Y-98552972D01*
X140956554Y-88522727D01*
X142052944Y-88431361D01*
X141780263Y-90340131D01*
D14*
G36*
X141780263Y-90340131D02*
G01*
X132710197Y-99410197D01*
X132694403Y-99429443D01*
X132682667Y-99451399D01*
X132675440Y-99475224D01*
X132673000Y-99500000D01*
X132673000Y-115173000D01*
X130827000Y-115173000D01*
X130827000Y-98552972D01*
X140956554Y-88522727D01*
X142052944Y-88431361D01*
X141780263Y-90340131D01*
G37*
G36*
X141851000Y-90451000D02*
G01*
X141851000Y-90752775D01*
X141850000Y-90754507D01*
X141848000Y-90754507D01*
X141847010Y-90752971D01*
X141844628Y-90728784D01*
X141837628Y-90705709D01*
X141826263Y-90684445D01*
X141810968Y-90665808D01*
X141792331Y-90650513D01*
X141771067Y-90639148D01*
X141747992Y-90632148D01*
X141724001Y-90629785D01*
X141700010Y-90632148D01*
X141676935Y-90639148D01*
X141655671Y-90650513D01*
X141636882Y-90665933D01*
X141634908Y-90666259D01*
X141633640Y-90664713D01*
X141634199Y-90662973D01*
X141847586Y-90449586D01*
X141849518Y-90449068D01*
X141851000Y-90451000D01*
G37*
M02*
