%TF.GenerationSoftware,KiCad,Pcbnew,(5.1.8)-1*%
%TF.CreationDate,2022-05-15T10:40:37+08:00*%
%TF.ProjectId,smartkey-dc-pwm-60w,736d6172-746b-4657-992d-64632d70776d,rev?*%
%TF.SameCoordinates,Original*%
%TF.FileFunction,Copper,L2,Bot*%
%TF.FilePolarity,Positive*%
%FSLAX46Y46*%
G04 Gerber Fmt 4.6, Leading zero omitted, Abs format (unit mm)*
G04 Created by KiCad (PCBNEW (5.1.8)-1) date 2022-05-15 10:40:37*
%MOMM*%
%LPD*%
G01*
G04 APERTURE LIST*
%TA.AperFunction,ComponentPad*%
%ADD10C,3.000000*%
%TD*%
%TA.AperFunction,ComponentPad*%
%ADD11C,2.500000*%
%TD*%
%TA.AperFunction,ComponentPad*%
%ADD12O,1.350000X1.350000*%
%TD*%
%TA.AperFunction,ComponentPad*%
%ADD13R,1.350000X1.350000*%
%TD*%
%TA.AperFunction,ComponentPad*%
%ADD14R,3.000000X3.000000*%
%TD*%
%TA.AperFunction,ViaPad*%
%ADD15C,0.800000*%
%TD*%
%TA.AperFunction,Conductor*%
%ADD16C,0.400000*%
%TD*%
%TA.AperFunction,Conductor*%
%ADD17C,1.000000*%
%TD*%
%TA.AperFunction,Conductor*%
%ADD18C,2.000000*%
%TD*%
%TA.AperFunction,Conductor*%
%ADD19C,0.254000*%
%TD*%
%TA.AperFunction,Conductor*%
%ADD20C,0.350000*%
%TD*%
%ADD21C,0.350000*%
G04 APERTURE END LIST*
D10*
%TO.P,K1,1*%
%TO.N,VCC+*%
X148000000Y-66000000D03*
D11*
%TO.P,K1,5*%
%TO.N,+5V*%
X153950000Y-67950000D03*
D10*
%TO.P,K1,4*%
%TO.N,N/C*%
X154000000Y-80200000D03*
%TO.P,K1,3*%
%TO.N,LED+*%
X141950000Y-80150000D03*
D11*
%TO.P,K1,2*%
%TO.N,Net-(D1-Pad2)*%
X141950000Y-67950000D03*
%TD*%
D12*
%TO.P,J4,6*%
%TO.N,TXD*%
X144000000Y-31200000D03*
%TO.P,J4,5*%
%TO.N,RXD*%
X142000000Y-31200000D03*
%TO.P,J4,4*%
%TO.N,IO0*%
X140000000Y-31200000D03*
%TO.P,J4,3*%
%TO.N,EN*%
X138000000Y-31200000D03*
%TO.P,J4,2*%
%TO.N,GND*%
X136000000Y-31200000D03*
D13*
%TO.P,J4,1*%
%TO.N,+5V*%
X134000000Y-31200000D03*
%TD*%
D10*
%TO.P,J3,4*%
%TO.N,GND*%
X131760000Y-116000000D03*
D14*
%TO.P,J3,1*%
%TO.N,LED-*%
X147000000Y-116000000D03*
D10*
%TO.P,J3,3*%
%TO.N,VCC+*%
X136840000Y-116000000D03*
%TO.P,J3,2*%
%TO.N,LED+*%
X141920000Y-116000000D03*
%TD*%
D15*
%TO.N,GND*%
X146200000Y-53800000D03*
X124000000Y-32800000D03*
%TO.N,EN*%
X133000000Y-38400000D03*
%TO.N,+5V*%
X134400000Y-73200000D03*
X127200000Y-65999988D03*
%TO.N,VCC+*%
X136840000Y-78760000D03*
%TO.N,TXD*%
X144200000Y-38400000D03*
%TO.N,RXD*%
X144200000Y-40400000D03*
%TO.N,IO0*%
X144200000Y-46400000D03*
%TO.N,+3V3*%
X143000000Y-47600000D03*
X148800014Y-48200000D03*
%TO.N,BTN*%
X133000000Y-40400000D03*
X130200000Y-35800000D03*
%TO.N,OPEN*%
X140800000Y-60200000D03*
X144200000Y-49200000D03*
%TO.N,Net-(D1-Pad2)*%
X145600000Y-60400000D03*
%TO.N,PWM*%
X149000000Y-44600000D03*
X150800000Y-95800000D03*
%TD*%
D16*
%TO.N,GND*%
X134400000Y-32800000D02*
X124000000Y-32800000D01*
X136000000Y-31200000D02*
X134400000Y-32800000D01*
%TO.N,EN*%
X138000000Y-33400000D02*
X133000000Y-38400000D01*
X138000000Y-31200000D02*
X138000000Y-33400000D01*
D17*
%TO.N,+5V*%
X134400000Y-73200000D02*
X127200000Y-66000000D01*
X127200000Y-66000000D02*
X127200000Y-65999988D01*
D18*
%TO.N,VCC+*%
X148000000Y-66000000D02*
X136840000Y-77160000D01*
X136840000Y-78760000D02*
X136840000Y-116000000D01*
X136840000Y-77160000D02*
X136840000Y-78760000D01*
D16*
%TO.N,TXD*%
X144000000Y-38200000D02*
X144200000Y-38400000D01*
X144000000Y-31200000D02*
X144000000Y-38200000D01*
%TO.N,RXD*%
X142000000Y-38200000D02*
X144200000Y-40400000D01*
X142000000Y-31200000D02*
X142000000Y-38200000D01*
%TO.N,IO0*%
X140000000Y-42200000D02*
X144200000Y-46400000D01*
X140000000Y-31200000D02*
X140000000Y-42200000D01*
%TO.N,+3V3*%
X143000000Y-47600000D02*
X148200014Y-47600000D01*
X148200014Y-47600000D02*
X148800014Y-48200000D01*
%TO.N,BTN*%
X130200000Y-37600000D02*
X130200000Y-35800000D01*
X133000000Y-40400000D02*
X130200000Y-37600000D01*
%TO.N,OPEN*%
X140800000Y-52600000D02*
X144200000Y-49200000D01*
X140800000Y-60200000D02*
X140800000Y-52600000D01*
D17*
%TO.N,Net-(D1-Pad2)*%
X141950000Y-64050000D02*
X145600000Y-60400000D01*
X141950000Y-67950000D02*
X141950000Y-64050000D01*
D16*
%TO.N,PWM*%
X150800000Y-46400000D02*
X150800000Y-95800000D01*
X149000000Y-44600000D02*
X150800000Y-46400000D01*
D18*
%TO.N,LED+*%
X141950000Y-115970000D02*
X141920000Y-116000000D01*
X141950000Y-80150000D02*
X141950000Y-115970000D01*
%TD*%
D19*
%TO.N,GND*%
X132699188Y-30400518D02*
X132686928Y-30525000D01*
X132686928Y-31875000D01*
X132699188Y-31999482D01*
X132735498Y-32119180D01*
X132794463Y-32229494D01*
X132873815Y-32326185D01*
X132970506Y-32405537D01*
X133080820Y-32464502D01*
X133200518Y-32500812D01*
X133325000Y-32513072D01*
X134675000Y-32513072D01*
X134799482Y-32500812D01*
X134919180Y-32464502D01*
X135029494Y-32405537D01*
X135126185Y-32326185D01*
X135203119Y-32232441D01*
X135336371Y-32329473D01*
X135569472Y-32437238D01*
X135670600Y-32467910D01*
X135873000Y-32344224D01*
X135873000Y-31327000D01*
X135853000Y-31327000D01*
X135853000Y-31073000D01*
X135873000Y-31073000D01*
X135873000Y-31053000D01*
X136127000Y-31053000D01*
X136127000Y-31073000D01*
X136147000Y-31073000D01*
X136147000Y-31327000D01*
X136127000Y-31327000D01*
X136127000Y-32344224D01*
X136329400Y-32467910D01*
X136430528Y-32437238D01*
X136663629Y-32329473D01*
X136871227Y-32178303D01*
X136993319Y-32045940D01*
X137164923Y-32217544D01*
X137165000Y-32217596D01*
X137165001Y-33054130D01*
X132843225Y-37375907D01*
X132698102Y-37404774D01*
X132509744Y-37482795D01*
X132340226Y-37596063D01*
X132196063Y-37740226D01*
X132082795Y-37909744D01*
X132004774Y-38098102D01*
X131983902Y-38203034D01*
X131035000Y-37254133D01*
X131035000Y-36413285D01*
X131117205Y-36290256D01*
X131195226Y-36101898D01*
X131235000Y-35901939D01*
X131235000Y-35698061D01*
X131195226Y-35498102D01*
X131117205Y-35309744D01*
X131003937Y-35140226D01*
X130859774Y-34996063D01*
X130690256Y-34882795D01*
X130501898Y-34804774D01*
X130301939Y-34765000D01*
X130098061Y-34765000D01*
X129898102Y-34804774D01*
X129709744Y-34882795D01*
X129540226Y-34996063D01*
X129396063Y-35140226D01*
X129282795Y-35309744D01*
X129204774Y-35498102D01*
X129165000Y-35698061D01*
X129165000Y-35901939D01*
X129204774Y-36101898D01*
X129282795Y-36290256D01*
X129365001Y-36413286D01*
X129365000Y-37558981D01*
X129360960Y-37600000D01*
X129365000Y-37641018D01*
X129377082Y-37763688D01*
X129424828Y-37921086D01*
X129502364Y-38066145D01*
X129606709Y-38193291D01*
X129638579Y-38219446D01*
X131975908Y-40556775D01*
X132004774Y-40701898D01*
X132082795Y-40890256D01*
X132196063Y-41059774D01*
X132340226Y-41203937D01*
X132509744Y-41317205D01*
X132698102Y-41395226D01*
X132898061Y-41435000D01*
X133101939Y-41435000D01*
X133301898Y-41395226D01*
X133490256Y-41317205D01*
X133659774Y-41203937D01*
X133803937Y-41059774D01*
X133917205Y-40890256D01*
X133995226Y-40701898D01*
X134035000Y-40501939D01*
X134035000Y-40298061D01*
X133995226Y-40098102D01*
X133917205Y-39909744D01*
X133803937Y-39740226D01*
X133659774Y-39596063D01*
X133490256Y-39482795D01*
X133301898Y-39404774D01*
X133277897Y-39400000D01*
X133301898Y-39395226D01*
X133490256Y-39317205D01*
X133659774Y-39203937D01*
X133803937Y-39059774D01*
X133917205Y-38890256D01*
X133995226Y-38701898D01*
X134024093Y-38556775D01*
X138561432Y-34019437D01*
X138593291Y-33993291D01*
X138697636Y-33866146D01*
X138775172Y-33721087D01*
X138822918Y-33563689D01*
X138835000Y-33441019D01*
X138839040Y-33400000D01*
X138835000Y-33358982D01*
X138835000Y-32217595D01*
X138835077Y-32217544D01*
X139000000Y-32052621D01*
X139164923Y-32217544D01*
X139165000Y-32217596D01*
X139165001Y-42158971D01*
X139160960Y-42200000D01*
X139177082Y-42363688D01*
X139224828Y-42521086D01*
X139224829Y-42521087D01*
X139302365Y-42666146D01*
X139406710Y-42793291D01*
X139438574Y-42819441D01*
X143175908Y-46556777D01*
X143180658Y-46580658D01*
X143101939Y-46565000D01*
X142898061Y-46565000D01*
X142698102Y-46604774D01*
X142509744Y-46682795D01*
X142340226Y-46796063D01*
X142196063Y-46940226D01*
X142082795Y-47109744D01*
X142004774Y-47298102D01*
X141965000Y-47498061D01*
X141965000Y-47701939D01*
X142004774Y-47901898D01*
X142082795Y-48090256D01*
X142196063Y-48259774D01*
X142340226Y-48403937D01*
X142509744Y-48517205D01*
X142698102Y-48595226D01*
X142898061Y-48635000D01*
X143101939Y-48635000D01*
X143301898Y-48595226D01*
X143381285Y-48562342D01*
X143282795Y-48709744D01*
X143204774Y-48898102D01*
X143175908Y-49043225D01*
X140238574Y-51980559D01*
X140206710Y-52006709D01*
X140180562Y-52038571D01*
X140102364Y-52133855D01*
X140024828Y-52278914D01*
X139977082Y-52436312D01*
X139960960Y-52600000D01*
X139965001Y-52641028D01*
X139965000Y-59586715D01*
X139882795Y-59709744D01*
X139804774Y-59898102D01*
X139765000Y-60098061D01*
X139765000Y-60301939D01*
X139804774Y-60501898D01*
X139882795Y-60690256D01*
X139996063Y-60859774D01*
X140140226Y-61003937D01*
X140309744Y-61117205D01*
X140498102Y-61195226D01*
X140698061Y-61235000D01*
X140901939Y-61235000D01*
X141101898Y-61195226D01*
X141290256Y-61117205D01*
X141459774Y-61003937D01*
X141603937Y-60859774D01*
X141717205Y-60690256D01*
X141795226Y-60501898D01*
X141835000Y-60301939D01*
X141835000Y-60098061D01*
X141795226Y-59898102D01*
X141717205Y-59709744D01*
X141635000Y-59586715D01*
X141635000Y-52945867D01*
X144356775Y-50224092D01*
X144501898Y-50195226D01*
X144690256Y-50117205D01*
X144859774Y-50003937D01*
X145003937Y-49859774D01*
X145117205Y-49690256D01*
X145195226Y-49501898D01*
X145235000Y-49301939D01*
X145235000Y-49098061D01*
X145195226Y-48898102D01*
X145117205Y-48709744D01*
X145003937Y-48540226D01*
X144898711Y-48435000D01*
X147791481Y-48435000D01*
X147804788Y-48501898D01*
X147882809Y-48690256D01*
X147996077Y-48859774D01*
X148140240Y-49003937D01*
X148309758Y-49117205D01*
X148498116Y-49195226D01*
X148698075Y-49235000D01*
X148901953Y-49235000D01*
X149101912Y-49195226D01*
X149290270Y-49117205D01*
X149459788Y-49003937D01*
X149603951Y-48859774D01*
X149717219Y-48690256D01*
X149795240Y-48501898D01*
X149835014Y-48301939D01*
X149835014Y-48098061D01*
X149795240Y-47898102D01*
X149717219Y-47709744D01*
X149603951Y-47540226D01*
X149459788Y-47396063D01*
X149290270Y-47282795D01*
X149101912Y-47204774D01*
X148956789Y-47175907D01*
X148819459Y-47038578D01*
X148793305Y-47006709D01*
X148666160Y-46902364D01*
X148521101Y-46824828D01*
X148363703Y-46777082D01*
X148241033Y-46765000D01*
X148241032Y-46765000D01*
X148200014Y-46760960D01*
X148158996Y-46765000D01*
X145169088Y-46765000D01*
X145195226Y-46701898D01*
X145235000Y-46501939D01*
X145235000Y-46298061D01*
X145195226Y-46098102D01*
X145117205Y-45909744D01*
X145003937Y-45740226D01*
X144859774Y-45596063D01*
X144690256Y-45482795D01*
X144501898Y-45404774D01*
X144356777Y-45375908D01*
X140835000Y-41854133D01*
X140835000Y-32217595D01*
X140835077Y-32217544D01*
X141000000Y-32052621D01*
X141164923Y-32217544D01*
X141165000Y-32217596D01*
X141165001Y-38158972D01*
X141160960Y-38200000D01*
X141177082Y-38363688D01*
X141224828Y-38521086D01*
X141302364Y-38666145D01*
X141302365Y-38666146D01*
X141406710Y-38793291D01*
X141438574Y-38819441D01*
X143175908Y-40556776D01*
X143204774Y-40701898D01*
X143282795Y-40890256D01*
X143396063Y-41059774D01*
X143540226Y-41203937D01*
X143709744Y-41317205D01*
X143898102Y-41395226D01*
X144098061Y-41435000D01*
X144301939Y-41435000D01*
X144501898Y-41395226D01*
X144690256Y-41317205D01*
X144859774Y-41203937D01*
X145003937Y-41059774D01*
X145117205Y-40890256D01*
X145195226Y-40701898D01*
X145235000Y-40501939D01*
X145235000Y-40298061D01*
X145195226Y-40098102D01*
X145117205Y-39909744D01*
X145003937Y-39740226D01*
X144859774Y-39596063D01*
X144690256Y-39482795D01*
X144501898Y-39404774D01*
X144477897Y-39400000D01*
X144501898Y-39395226D01*
X144690256Y-39317205D01*
X144859774Y-39203937D01*
X145003937Y-39059774D01*
X145117205Y-38890256D01*
X145195226Y-38701898D01*
X145235000Y-38501939D01*
X145235000Y-38298061D01*
X145195226Y-38098102D01*
X145117205Y-37909744D01*
X145003937Y-37740226D01*
X144859774Y-37596063D01*
X144835000Y-37579510D01*
X144835000Y-32217595D01*
X144835077Y-32217544D01*
X145017544Y-32035077D01*
X145160907Y-31820518D01*
X145259658Y-31582113D01*
X145310000Y-31329024D01*
X145310000Y-31070976D01*
X145259658Y-30817887D01*
X145160907Y-30579482D01*
X145017544Y-30364923D01*
X145012621Y-30360000D01*
X157340001Y-30360000D01*
X157340000Y-77073000D01*
X151635000Y-77073000D01*
X151635000Y-67764344D01*
X152065000Y-67764344D01*
X152065000Y-68135656D01*
X152137439Y-68499834D01*
X152279534Y-68842882D01*
X152485825Y-69151618D01*
X152748382Y-69414175D01*
X153057118Y-69620466D01*
X153400166Y-69762561D01*
X153764344Y-69835000D01*
X154135656Y-69835000D01*
X154499834Y-69762561D01*
X154842882Y-69620466D01*
X155151618Y-69414175D01*
X155414175Y-69151618D01*
X155620466Y-68842882D01*
X155762561Y-68499834D01*
X155835000Y-68135656D01*
X155835000Y-67764344D01*
X155762561Y-67400166D01*
X155620466Y-67057118D01*
X155414175Y-66748382D01*
X155151618Y-66485825D01*
X154842882Y-66279534D01*
X154499834Y-66137439D01*
X154135656Y-66065000D01*
X153764344Y-66065000D01*
X153400166Y-66137439D01*
X153057118Y-66279534D01*
X152748382Y-66485825D01*
X152485825Y-66748382D01*
X152279534Y-67057118D01*
X152137439Y-67400166D01*
X152065000Y-67764344D01*
X151635000Y-67764344D01*
X151635000Y-46441007D01*
X151639039Y-46399999D01*
X151635000Y-46358991D01*
X151635000Y-46358981D01*
X151622918Y-46236311D01*
X151575172Y-46078913D01*
X151497636Y-45933854D01*
X151393291Y-45806709D01*
X151361428Y-45780560D01*
X150024093Y-44443225D01*
X149995226Y-44298102D01*
X149917205Y-44109744D01*
X149803937Y-43940226D01*
X149659774Y-43796063D01*
X149490256Y-43682795D01*
X149301898Y-43604774D01*
X149101939Y-43565000D01*
X148898061Y-43565000D01*
X148698102Y-43604774D01*
X148509744Y-43682795D01*
X148340226Y-43796063D01*
X148196063Y-43940226D01*
X148082795Y-44109744D01*
X148004774Y-44298102D01*
X147965000Y-44498061D01*
X147965000Y-44701939D01*
X148004774Y-44901898D01*
X148082795Y-45090256D01*
X148196063Y-45259774D01*
X148340226Y-45403937D01*
X148509744Y-45517205D01*
X148698102Y-45595226D01*
X148843225Y-45624093D01*
X149965000Y-46745868D01*
X149965000Y-65164908D01*
X149892012Y-64988698D01*
X149658363Y-64639017D01*
X149360983Y-64341637D01*
X149011302Y-64107988D01*
X148622756Y-63947047D01*
X148210279Y-63865000D01*
X147789721Y-63865000D01*
X147377244Y-63947047D01*
X146988698Y-64107988D01*
X146639017Y-64341637D01*
X146341637Y-64639017D01*
X146107988Y-64988698D01*
X145947047Y-65377244D01*
X145865000Y-65789721D01*
X145865000Y-65822761D01*
X143835000Y-67852761D01*
X143835000Y-67764344D01*
X143762561Y-67400166D01*
X143620466Y-67057118D01*
X143414175Y-66748382D01*
X143151618Y-66485825D01*
X143085000Y-66441312D01*
X143085000Y-64520131D01*
X146441989Y-61163144D01*
X146548284Y-61033623D01*
X146653676Y-60836447D01*
X146718577Y-60622499D01*
X146740491Y-60400000D01*
X146718577Y-60177501D01*
X146653676Y-59963553D01*
X146548284Y-59766377D01*
X146406449Y-59593551D01*
X146233623Y-59451716D01*
X146036447Y-59346324D01*
X145822499Y-59281423D01*
X145600000Y-59259509D01*
X145377501Y-59281423D01*
X145163553Y-59346324D01*
X144966377Y-59451716D01*
X144836856Y-59558011D01*
X141186860Y-63208009D01*
X141143552Y-63243551D01*
X141001717Y-63416377D01*
X140945384Y-63521770D01*
X140896324Y-63613554D01*
X140831423Y-63827502D01*
X140809509Y-64050000D01*
X140815001Y-64105761D01*
X140815000Y-66441312D01*
X140748382Y-66485825D01*
X140485825Y-66748382D01*
X140279534Y-67057118D01*
X140137439Y-67400166D01*
X140065000Y-67764344D01*
X140065000Y-68135656D01*
X140137439Y-68499834D01*
X140279534Y-68842882D01*
X140485825Y-69151618D01*
X140748382Y-69414175D01*
X141057118Y-69620466D01*
X141400166Y-69762561D01*
X141764344Y-69835000D01*
X141852761Y-69835000D01*
X135740687Y-75947075D01*
X135678286Y-75998286D01*
X135473969Y-76247249D01*
X135322148Y-76531286D01*
X135228657Y-76839485D01*
X135205658Y-77073000D01*
X120660000Y-77073000D01*
X120660000Y-66000000D01*
X126059509Y-66000000D01*
X126065000Y-66055751D01*
X126081423Y-66222498D01*
X126146324Y-66436446D01*
X126251716Y-66633623D01*
X126393551Y-66806449D01*
X126436865Y-66841996D01*
X133636856Y-74041989D01*
X133766377Y-74148284D01*
X133963553Y-74253676D01*
X134177501Y-74318577D01*
X134400000Y-74340491D01*
X134622499Y-74318577D01*
X134836447Y-74253676D01*
X135033623Y-74148284D01*
X135206449Y-74006449D01*
X135348284Y-73833623D01*
X135453676Y-73636447D01*
X135518577Y-73422499D01*
X135540491Y-73200000D01*
X135518577Y-72977501D01*
X135453676Y-72763553D01*
X135348284Y-72566377D01*
X135241989Y-72436856D01*
X128042051Y-65236920D01*
X128006449Y-65193539D01*
X127833623Y-65051704D01*
X127636447Y-64946312D01*
X127422499Y-64881411D01*
X127200000Y-64859497D01*
X126977502Y-64881411D01*
X126763554Y-64946312D01*
X126566377Y-65051704D01*
X126393551Y-65193539D01*
X126251716Y-65366365D01*
X126146324Y-65563541D01*
X126081423Y-65777489D01*
X126065000Y-65944236D01*
X126065000Y-65944249D01*
X126059509Y-66000000D01*
X120660000Y-66000000D01*
X120660000Y-30360000D01*
X132711479Y-30360000D01*
X132699188Y-30400518D01*
%TA.AperFunction,Conductor*%
D20*
G36*
X132699188Y-30400518D02*
G01*
X132686928Y-30525000D01*
X132686928Y-31875000D01*
X132699188Y-31999482D01*
X132735498Y-32119180D01*
X132794463Y-32229494D01*
X132873815Y-32326185D01*
X132970506Y-32405537D01*
X133080820Y-32464502D01*
X133200518Y-32500812D01*
X133325000Y-32513072D01*
X134675000Y-32513072D01*
X134799482Y-32500812D01*
X134919180Y-32464502D01*
X135029494Y-32405537D01*
X135126185Y-32326185D01*
X135203119Y-32232441D01*
X135336371Y-32329473D01*
X135569472Y-32437238D01*
X135670600Y-32467910D01*
X135873000Y-32344224D01*
X135873000Y-31327000D01*
X135853000Y-31327000D01*
X135853000Y-31073000D01*
X135873000Y-31073000D01*
X135873000Y-31053000D01*
X136127000Y-31053000D01*
X136127000Y-31073000D01*
X136147000Y-31073000D01*
X136147000Y-31327000D01*
X136127000Y-31327000D01*
X136127000Y-32344224D01*
X136329400Y-32467910D01*
X136430528Y-32437238D01*
X136663629Y-32329473D01*
X136871227Y-32178303D01*
X136993319Y-32045940D01*
X137164923Y-32217544D01*
X137165000Y-32217596D01*
X137165001Y-33054130D01*
X132843225Y-37375907D01*
X132698102Y-37404774D01*
X132509744Y-37482795D01*
X132340226Y-37596063D01*
X132196063Y-37740226D01*
X132082795Y-37909744D01*
X132004774Y-38098102D01*
X131983902Y-38203034D01*
X131035000Y-37254133D01*
X131035000Y-36413285D01*
X131117205Y-36290256D01*
X131195226Y-36101898D01*
X131235000Y-35901939D01*
X131235000Y-35698061D01*
X131195226Y-35498102D01*
X131117205Y-35309744D01*
X131003937Y-35140226D01*
X130859774Y-34996063D01*
X130690256Y-34882795D01*
X130501898Y-34804774D01*
X130301939Y-34765000D01*
X130098061Y-34765000D01*
X129898102Y-34804774D01*
X129709744Y-34882795D01*
X129540226Y-34996063D01*
X129396063Y-35140226D01*
X129282795Y-35309744D01*
X129204774Y-35498102D01*
X129165000Y-35698061D01*
X129165000Y-35901939D01*
X129204774Y-36101898D01*
X129282795Y-36290256D01*
X129365001Y-36413286D01*
X129365000Y-37558981D01*
X129360960Y-37600000D01*
X129365000Y-37641018D01*
X129377082Y-37763688D01*
X129424828Y-37921086D01*
X129502364Y-38066145D01*
X129606709Y-38193291D01*
X129638579Y-38219446D01*
X131975908Y-40556775D01*
X132004774Y-40701898D01*
X132082795Y-40890256D01*
X132196063Y-41059774D01*
X132340226Y-41203937D01*
X132509744Y-41317205D01*
X132698102Y-41395226D01*
X132898061Y-41435000D01*
X133101939Y-41435000D01*
X133301898Y-41395226D01*
X133490256Y-41317205D01*
X133659774Y-41203937D01*
X133803937Y-41059774D01*
X133917205Y-40890256D01*
X133995226Y-40701898D01*
X134035000Y-40501939D01*
X134035000Y-40298061D01*
X133995226Y-40098102D01*
X133917205Y-39909744D01*
X133803937Y-39740226D01*
X133659774Y-39596063D01*
X133490256Y-39482795D01*
X133301898Y-39404774D01*
X133277897Y-39400000D01*
X133301898Y-39395226D01*
X133490256Y-39317205D01*
X133659774Y-39203937D01*
X133803937Y-39059774D01*
X133917205Y-38890256D01*
X133995226Y-38701898D01*
X134024093Y-38556775D01*
X138561432Y-34019437D01*
X138593291Y-33993291D01*
X138697636Y-33866146D01*
X138775172Y-33721087D01*
X138822918Y-33563689D01*
X138835000Y-33441019D01*
X138839040Y-33400000D01*
X138835000Y-33358982D01*
X138835000Y-32217595D01*
X138835077Y-32217544D01*
X139000000Y-32052621D01*
X139164923Y-32217544D01*
X139165000Y-32217596D01*
X139165001Y-42158971D01*
X139160960Y-42200000D01*
X139177082Y-42363688D01*
X139224828Y-42521086D01*
X139224829Y-42521087D01*
X139302365Y-42666146D01*
X139406710Y-42793291D01*
X139438574Y-42819441D01*
X143175908Y-46556777D01*
X143180658Y-46580658D01*
X143101939Y-46565000D01*
X142898061Y-46565000D01*
X142698102Y-46604774D01*
X142509744Y-46682795D01*
X142340226Y-46796063D01*
X142196063Y-46940226D01*
X142082795Y-47109744D01*
X142004774Y-47298102D01*
X141965000Y-47498061D01*
X141965000Y-47701939D01*
X142004774Y-47901898D01*
X142082795Y-48090256D01*
X142196063Y-48259774D01*
X142340226Y-48403937D01*
X142509744Y-48517205D01*
X142698102Y-48595226D01*
X142898061Y-48635000D01*
X143101939Y-48635000D01*
X143301898Y-48595226D01*
X143381285Y-48562342D01*
X143282795Y-48709744D01*
X143204774Y-48898102D01*
X143175908Y-49043225D01*
X140238574Y-51980559D01*
X140206710Y-52006709D01*
X140180562Y-52038571D01*
X140102364Y-52133855D01*
X140024828Y-52278914D01*
X139977082Y-52436312D01*
X139960960Y-52600000D01*
X139965001Y-52641028D01*
X139965000Y-59586715D01*
X139882795Y-59709744D01*
X139804774Y-59898102D01*
X139765000Y-60098061D01*
X139765000Y-60301939D01*
X139804774Y-60501898D01*
X139882795Y-60690256D01*
X139996063Y-60859774D01*
X140140226Y-61003937D01*
X140309744Y-61117205D01*
X140498102Y-61195226D01*
X140698061Y-61235000D01*
X140901939Y-61235000D01*
X141101898Y-61195226D01*
X141290256Y-61117205D01*
X141459774Y-61003937D01*
X141603937Y-60859774D01*
X141717205Y-60690256D01*
X141795226Y-60501898D01*
X141835000Y-60301939D01*
X141835000Y-60098061D01*
X141795226Y-59898102D01*
X141717205Y-59709744D01*
X141635000Y-59586715D01*
X141635000Y-52945867D01*
X144356775Y-50224092D01*
X144501898Y-50195226D01*
X144690256Y-50117205D01*
X144859774Y-50003937D01*
X145003937Y-49859774D01*
X145117205Y-49690256D01*
X145195226Y-49501898D01*
X145235000Y-49301939D01*
X145235000Y-49098061D01*
X145195226Y-48898102D01*
X145117205Y-48709744D01*
X145003937Y-48540226D01*
X144898711Y-48435000D01*
X147791481Y-48435000D01*
X147804788Y-48501898D01*
X147882809Y-48690256D01*
X147996077Y-48859774D01*
X148140240Y-49003937D01*
X148309758Y-49117205D01*
X148498116Y-49195226D01*
X148698075Y-49235000D01*
X148901953Y-49235000D01*
X149101912Y-49195226D01*
X149290270Y-49117205D01*
X149459788Y-49003937D01*
X149603951Y-48859774D01*
X149717219Y-48690256D01*
X149795240Y-48501898D01*
X149835014Y-48301939D01*
X149835014Y-48098061D01*
X149795240Y-47898102D01*
X149717219Y-47709744D01*
X149603951Y-47540226D01*
X149459788Y-47396063D01*
X149290270Y-47282795D01*
X149101912Y-47204774D01*
X148956789Y-47175907D01*
X148819459Y-47038578D01*
X148793305Y-47006709D01*
X148666160Y-46902364D01*
X148521101Y-46824828D01*
X148363703Y-46777082D01*
X148241033Y-46765000D01*
X148241032Y-46765000D01*
X148200014Y-46760960D01*
X148158996Y-46765000D01*
X145169088Y-46765000D01*
X145195226Y-46701898D01*
X145235000Y-46501939D01*
X145235000Y-46298061D01*
X145195226Y-46098102D01*
X145117205Y-45909744D01*
X145003937Y-45740226D01*
X144859774Y-45596063D01*
X144690256Y-45482795D01*
X144501898Y-45404774D01*
X144356777Y-45375908D01*
X140835000Y-41854133D01*
X140835000Y-32217595D01*
X140835077Y-32217544D01*
X141000000Y-32052621D01*
X141164923Y-32217544D01*
X141165000Y-32217596D01*
X141165001Y-38158972D01*
X141160960Y-38200000D01*
X141177082Y-38363688D01*
X141224828Y-38521086D01*
X141302364Y-38666145D01*
X141302365Y-38666146D01*
X141406710Y-38793291D01*
X141438574Y-38819441D01*
X143175908Y-40556776D01*
X143204774Y-40701898D01*
X143282795Y-40890256D01*
X143396063Y-41059774D01*
X143540226Y-41203937D01*
X143709744Y-41317205D01*
X143898102Y-41395226D01*
X144098061Y-41435000D01*
X144301939Y-41435000D01*
X144501898Y-41395226D01*
X144690256Y-41317205D01*
X144859774Y-41203937D01*
X145003937Y-41059774D01*
X145117205Y-40890256D01*
X145195226Y-40701898D01*
X145235000Y-40501939D01*
X145235000Y-40298061D01*
X145195226Y-40098102D01*
X145117205Y-39909744D01*
X145003937Y-39740226D01*
X144859774Y-39596063D01*
X144690256Y-39482795D01*
X144501898Y-39404774D01*
X144477897Y-39400000D01*
X144501898Y-39395226D01*
X144690256Y-39317205D01*
X144859774Y-39203937D01*
X145003937Y-39059774D01*
X145117205Y-38890256D01*
X145195226Y-38701898D01*
X145235000Y-38501939D01*
X145235000Y-38298061D01*
X145195226Y-38098102D01*
X145117205Y-37909744D01*
X145003937Y-37740226D01*
X144859774Y-37596063D01*
X144835000Y-37579510D01*
X144835000Y-32217595D01*
X144835077Y-32217544D01*
X145017544Y-32035077D01*
X145160907Y-31820518D01*
X145259658Y-31582113D01*
X145310000Y-31329024D01*
X145310000Y-31070976D01*
X145259658Y-30817887D01*
X145160907Y-30579482D01*
X145017544Y-30364923D01*
X145012621Y-30360000D01*
X157340001Y-30360000D01*
X157340000Y-77073000D01*
X151635000Y-77073000D01*
X151635000Y-67764344D01*
X152065000Y-67764344D01*
X152065000Y-68135656D01*
X152137439Y-68499834D01*
X152279534Y-68842882D01*
X152485825Y-69151618D01*
X152748382Y-69414175D01*
X153057118Y-69620466D01*
X153400166Y-69762561D01*
X153764344Y-69835000D01*
X154135656Y-69835000D01*
X154499834Y-69762561D01*
X154842882Y-69620466D01*
X155151618Y-69414175D01*
X155414175Y-69151618D01*
X155620466Y-68842882D01*
X155762561Y-68499834D01*
X155835000Y-68135656D01*
X155835000Y-67764344D01*
X155762561Y-67400166D01*
X155620466Y-67057118D01*
X155414175Y-66748382D01*
X155151618Y-66485825D01*
X154842882Y-66279534D01*
X154499834Y-66137439D01*
X154135656Y-66065000D01*
X153764344Y-66065000D01*
X153400166Y-66137439D01*
X153057118Y-66279534D01*
X152748382Y-66485825D01*
X152485825Y-66748382D01*
X152279534Y-67057118D01*
X152137439Y-67400166D01*
X152065000Y-67764344D01*
X151635000Y-67764344D01*
X151635000Y-46441007D01*
X151639039Y-46399999D01*
X151635000Y-46358991D01*
X151635000Y-46358981D01*
X151622918Y-46236311D01*
X151575172Y-46078913D01*
X151497636Y-45933854D01*
X151393291Y-45806709D01*
X151361428Y-45780560D01*
X150024093Y-44443225D01*
X149995226Y-44298102D01*
X149917205Y-44109744D01*
X149803937Y-43940226D01*
X149659774Y-43796063D01*
X149490256Y-43682795D01*
X149301898Y-43604774D01*
X149101939Y-43565000D01*
X148898061Y-43565000D01*
X148698102Y-43604774D01*
X148509744Y-43682795D01*
X148340226Y-43796063D01*
X148196063Y-43940226D01*
X148082795Y-44109744D01*
X148004774Y-44298102D01*
X147965000Y-44498061D01*
X147965000Y-44701939D01*
X148004774Y-44901898D01*
X148082795Y-45090256D01*
X148196063Y-45259774D01*
X148340226Y-45403937D01*
X148509744Y-45517205D01*
X148698102Y-45595226D01*
X148843225Y-45624093D01*
X149965000Y-46745868D01*
X149965000Y-65164908D01*
X149892012Y-64988698D01*
X149658363Y-64639017D01*
X149360983Y-64341637D01*
X149011302Y-64107988D01*
X148622756Y-63947047D01*
X148210279Y-63865000D01*
X147789721Y-63865000D01*
X147377244Y-63947047D01*
X146988698Y-64107988D01*
X146639017Y-64341637D01*
X146341637Y-64639017D01*
X146107988Y-64988698D01*
X145947047Y-65377244D01*
X145865000Y-65789721D01*
X145865000Y-65822761D01*
X143835000Y-67852761D01*
X143835000Y-67764344D01*
X143762561Y-67400166D01*
X143620466Y-67057118D01*
X143414175Y-66748382D01*
X143151618Y-66485825D01*
X143085000Y-66441312D01*
X143085000Y-64520131D01*
X146441989Y-61163144D01*
X146548284Y-61033623D01*
X146653676Y-60836447D01*
X146718577Y-60622499D01*
X146740491Y-60400000D01*
X146718577Y-60177501D01*
X146653676Y-59963553D01*
X146548284Y-59766377D01*
X146406449Y-59593551D01*
X146233623Y-59451716D01*
X146036447Y-59346324D01*
X145822499Y-59281423D01*
X145600000Y-59259509D01*
X145377501Y-59281423D01*
X145163553Y-59346324D01*
X144966377Y-59451716D01*
X144836856Y-59558011D01*
X141186860Y-63208009D01*
X141143552Y-63243551D01*
X141001717Y-63416377D01*
X140945384Y-63521770D01*
X140896324Y-63613554D01*
X140831423Y-63827502D01*
X140809509Y-64050000D01*
X140815001Y-64105761D01*
X140815000Y-66441312D01*
X140748382Y-66485825D01*
X140485825Y-66748382D01*
X140279534Y-67057118D01*
X140137439Y-67400166D01*
X140065000Y-67764344D01*
X140065000Y-68135656D01*
X140137439Y-68499834D01*
X140279534Y-68842882D01*
X140485825Y-69151618D01*
X140748382Y-69414175D01*
X141057118Y-69620466D01*
X141400166Y-69762561D01*
X141764344Y-69835000D01*
X141852761Y-69835000D01*
X135740687Y-75947075D01*
X135678286Y-75998286D01*
X135473969Y-76247249D01*
X135322148Y-76531286D01*
X135228657Y-76839485D01*
X135205658Y-77073000D01*
X120660000Y-77073000D01*
X120660000Y-66000000D01*
X126059509Y-66000000D01*
X126065000Y-66055751D01*
X126081423Y-66222498D01*
X126146324Y-66436446D01*
X126251716Y-66633623D01*
X126393551Y-66806449D01*
X126436865Y-66841996D01*
X133636856Y-74041989D01*
X133766377Y-74148284D01*
X133963553Y-74253676D01*
X134177501Y-74318577D01*
X134400000Y-74340491D01*
X134622499Y-74318577D01*
X134836447Y-74253676D01*
X135033623Y-74148284D01*
X135206449Y-74006449D01*
X135348284Y-73833623D01*
X135453676Y-73636447D01*
X135518577Y-73422499D01*
X135540491Y-73200000D01*
X135518577Y-72977501D01*
X135453676Y-72763553D01*
X135348284Y-72566377D01*
X135241989Y-72436856D01*
X128042051Y-65236920D01*
X128006449Y-65193539D01*
X127833623Y-65051704D01*
X127636447Y-64946312D01*
X127422499Y-64881411D01*
X127200000Y-64859497D01*
X126977502Y-64881411D01*
X126763554Y-64946312D01*
X126566377Y-65051704D01*
X126393551Y-65193539D01*
X126251716Y-65366365D01*
X126146324Y-65563541D01*
X126081423Y-65777489D01*
X126065000Y-65944236D01*
X126065000Y-65944249D01*
X126059509Y-66000000D01*
X120660000Y-66000000D01*
X120660000Y-30360000D01*
X132711479Y-30360000D01*
X132699188Y-30400518D01*
G37*
%TD.AperFunction*%
%TD*%
D21*
X146200000Y-53800000D03*
X124000000Y-32800000D03*
X133000000Y-38400000D03*
X134400000Y-73200000D03*
X127200000Y-65999988D03*
X136840000Y-78760000D03*
X144200000Y-38400000D03*
X144200000Y-40400000D03*
X144200000Y-46400000D03*
X143000000Y-47600000D03*
X148800014Y-48200000D03*
X133000000Y-40400000D03*
X130200000Y-35800000D03*
X140800000Y-60200000D03*
X144200000Y-49200000D03*
X145600000Y-60400000D03*
X149000000Y-44600000D03*
X150800000Y-95800000D03*
X148000000Y-66000000D03*
X153950000Y-67950000D03*
X154000000Y-80200000D03*
X141950000Y-80150000D03*
X141950000Y-67950000D03*
X144000000Y-31200000D03*
X142000000Y-31200000D03*
X140000000Y-31200000D03*
X138000000Y-31200000D03*
X136000000Y-31200000D03*
X134000000Y-31200000D03*
X131760000Y-116000000D03*
X147000000Y-116000000D03*
X136840000Y-116000000D03*
X141920000Y-116000000D03*
M02*
